<svg width="247" height="90" viewBox="0 0 247 90" fill="none" xmlns="http://www.w3.org/2000/svg">
<g clip-path="url(#clip0_4280_2701)">
<path d="M99.2828 21.1882H96.366V30.6508H88.1838V25.5748H85.2669V30.6508H75.7286C69.6222 30.6508 66.1599 33.8177 66.1599 39.4846C66.1599 45.1516 69.4858 48.0381 75.7286 48.0381H80.2061C81.6607 48.0381 82.4562 47.2047 82.4562 45.7804V35.5905H79.547V44.8788C79.547 45.2273 79.3727 45.4016 79.0242 45.4016H75.7286C71.2511 45.4016 69.1373 43.5227 69.1373 39.4164C69.1373 35.3102 71.289 33.2949 75.7286 33.2949H85.2669V41.6059C85.2669 46.0228 87.2822 48.0381 91.7142 48.0381H94.0704V45.4319H91.8885C89.252 45.4319 88.1762 44.2803 88.1762 41.6059V33.2949H96.3584V48.0456H99.2752V33.2949H102.919C106.942 33.2949 108.329 34.7571 108.329 39.0679V48.0456H111.246V39.0679C111.246 33.0146 108.92 30.6508 102.995 30.6508H99.2828V21.1882Z" fill="white"/>
<path d="M190.886 48.038C196.121 48.038 198.311 46.4697 198.311 42.712C198.311 39.4466 196.439 38.0526 191.515 37.4996C188.083 37.1132 187.462 36.7344 187.462 35.204C187.462 33.8479 188.674 33.2872 191.416 33.2872H197V30.6432H191.765C186.734 30.6432 184.552 32.1735 184.552 35.3707C184.552 38.5678 186.181 39.5754 191.386 40.1361C194.265 40.4467 195.371 41.1816 195.371 42.712C195.371 44.659 194.265 45.3939 191.242 45.3939H176.537C172.34 45.3939 170.536 43.5529 170.536 39.2042C170.536 34.8555 172.135 33.0827 175.529 33.0827C178.446 33.0827 179.794 34.4009 179.794 37.2193C179.794 38.0223 179.688 38.1966 179.272 38.1966H172.824V40.8407H179.272C181.734 40.8407 182.636 39.7951 182.636 37.0147C182.636 32.8781 180.105 30.5447 175.522 30.5447C170.355 30.5447 167.612 33.5373 167.612 39.2421C167.612 45.2954 170.491 48.0456 176.87 48.0456H190.878L190.886 48.038Z" fill="white"/>
<path d="M48.303 48.038H51.2198V26.0597C51.2198 25.6051 51.394 25.3626 51.7425 25.3626H57.6368C61.3794 25.3626 62.9477 26.6127 62.9477 29.5674C62.9477 32.5221 61.4249 33.6358 57.4322 33.6358C55.0382 33.6358 53.826 34.7495 53.826 36.8026C53.826 38.0906 54.4851 38.9618 55.3867 39.9694L62.5992 48.038H66.5539L56.9095 37.3254C56.7352 37.1511 56.667 36.9769 56.667 36.8026C56.667 36.5602 56.8413 36.3556 57.2201 36.3556C63.1825 36.3556 65.9251 34.1964 65.9251 29.575C65.9251 24.9535 63.1825 22.6504 57.5989 22.6504H50.6289C49.1364 22.6504 48.303 23.4838 48.303 24.9081V48.038Z" fill="white"/>
<path d="M116.594 21.1882H113.715V45.7804C113.715 47.2426 114.511 48.0381 115.935 48.0381H120.238C126.413 48.0381 129.534 45.2879 129.534 39.4467C129.534 33.6055 126.519 30.6433 120.413 30.6433H118.89V33.2873H120.238C124.678 33.2873 126.549 35.098 126.549 39.4467C126.549 43.7954 124.678 45.394 120.238 45.394H117.117C116.769 45.394 116.594 45.2197 116.594 44.8712V21.1882Z" fill="white"/>
<path d="M156.998 33.295C161.021 33.295 162.407 34.7571 162.407 39.068V48.0457H165.324V39.068C165.324 33.0146 162.998 30.6509 157.074 30.6509H152.702C151.278 30.6509 150.452 31.454 150.452 32.9086V48.0381H153.369V33.8101C153.369 33.4616 153.543 33.2874 153.892 33.2874H157.013L156.998 33.295Z" fill="white"/>
<path d="M140.005 30.5447C134.421 30.5447 131.542 33.5373 131.542 39.4845C131.542 45.4318 134.353 48.3183 139.936 48.3183C145.52 48.3183 148.263 45.2575 148.263 39.3785C148.263 33.4994 145.421 30.5447 140.005 30.5447ZM139.936 45.7424C136.156 45.7424 134.459 43.7575 134.459 39.4466C134.459 35.1358 136.194 33.113 139.936 33.113C143.679 33.113 145.346 35.0601 145.346 39.4466C145.346 43.8332 143.679 45.7424 139.936 45.7424Z" fill="white"/>
<path d="M123.701 66.8571L122.14 61.9857C121.791 60.9099 121.519 60.6296 120.958 60.6296C120.367 60.6296 120.087 60.9099 119.746 61.9857L118.253 66.9253L116.17 59.7583H114.958L117.662 68.6603H118.806L120.92 61.8114L123.102 68.6603H124.246L126.92 59.7583H125.739L123.693 66.8571H123.701Z" fill="white"/>
<path d="M151.831 67.592H149.543C147.535 67.592 146.732 66.6904 146.732 64.3191C146.732 61.819 147.535 60.8416 149.543 60.8416H150.619V59.7658H149.619C146.808 59.7658 145.528 61.1901 145.528 64.3191C145.528 67.448 146.74 68.6678 149.551 68.6678H153.02V55.7656H151.839V67.592H151.831Z" fill="white"/>
<path d="M101.821 59.6599C99.1844 59.6599 97.9041 61.2282 97.9041 64.2511C97.9041 67.2739 99.1541 68.8043 101.821 68.8043C104.488 68.8043 105.738 67.2361 105.738 64.2511C105.738 61.2661 104.457 59.6599 101.821 59.6599ZM101.851 67.7285C99.942 67.7285 99.1162 66.683 99.1162 64.2132C99.1162 61.7434 99.9117 60.7357 101.783 60.7357C103.654 60.7357 104.526 61.7812 104.526 64.2814C104.526 66.7815 103.73 67.7285 101.851 67.7285Z" fill="white"/>
<path d="M71.4027 59.6599C68.7662 59.6599 67.4858 61.2282 67.4858 64.2511C67.4858 67.2739 68.7359 68.8043 71.4027 68.8043C74.0695 68.8043 75.3196 67.2361 75.3196 64.2511C75.3196 61.2661 74.0392 59.6599 71.4027 59.6599ZM71.4406 67.7285C69.5314 67.7285 68.698 66.683 68.698 64.2132C68.698 61.7434 69.4935 60.7357 71.3648 60.7357C73.2361 60.7357 74.1074 61.7812 74.1074 64.2814C74.1074 66.7815 73.3119 67.7285 71.4406 67.7285Z" fill="white"/>
<path d="M61.3414 59.6599C58.7049 59.6599 57.4246 61.2282 57.4246 64.2511C57.4246 67.2739 58.6746 68.8043 61.3414 68.8043C64.0082 68.8043 65.2583 67.2361 65.2583 64.2511C65.2583 61.2661 63.9779 59.6599 61.3414 59.6599ZM61.3793 67.7285C59.4701 67.7285 58.6367 66.683 58.6367 64.2132C58.6367 61.7434 59.4322 60.7357 61.3035 60.7357C63.1749 60.7357 64.0461 61.7812 64.0461 64.2814C64.0461 66.7815 63.2506 67.7285 61.3793 67.7285Z" fill="white"/>
<path d="M131.504 67.592C130.186 67.592 129.595 67.1072 129.595 65.9556C129.595 64.804 130.186 64.251 131.398 64.251H133.512V63.2433H131.497C129.451 63.2433 128.443 64.0464 128.443 65.9556C128.443 67.8648 129.451 68.6678 131.671 68.6678H135.868V63.1373C135.868 60.6977 134.966 59.7583 132.542 59.7583H129.459V60.8341H132.716C134.141 60.8341 134.732 61.4629 134.732 63.1297V67.5845H131.504V67.592Z" fill="white"/>
<path d="M84.9261 59.7658H83.3351L79.1379 63.2736V55.7656H77.9561V68.6678H79.1379V64.5615L83.4715 68.6678H85.1004L79.9713 63.8645L84.9261 59.7658Z" fill="white"/>
<path d="M92.0023 59.7658H90.5098V60.8416H92.0023V68.6678H93.1841V60.8416H96.3434V59.7658H93.1841V59.4552C93.1841 57.4702 93.7372 56.849 95.4343 56.849H96.6843V55.7732H95.6464C93.0478 55.7732 92.0023 56.8187 92.0023 59.531V59.7734V59.7658Z" fill="white"/>
<path d="M49.553 56.8037H48.303V68.6679H55.7579V67.524H49.553V56.8037Z" fill="white"/>
<path d="M138.823 68.6678H140.005V63.1373C140.005 61.4705 140.527 60.8417 141.982 60.8417H143.649V59.7659H142.194C139.8 59.7659 138.83 60.7053 138.83 63.1448V68.6754L138.823 68.6678Z" fill="white"/>
<path d="M108.23 68.6678H109.412V63.1373C109.412 61.4705 109.935 60.8417 111.389 60.8417H113.056V59.7659H111.602C109.208 59.7659 108.238 60.7053 108.238 63.1448V68.6754L108.23 68.6678Z" fill="white"/>
</g>
<defs>
<clipPath id="clip0_4280_2701">
<rect width="150" height="47.6236" fill="white" transform="translate(48.303 21.1882)"/>
</clipPath>
</defs>
</svg>
