<svg width="247" height="90" viewBox="0 0 247 90" fill="none" xmlns="http://www.w3.org/2000/svg">
<g clip-path="url(#clip0_4292_2848)">
<path d="M194.169 39.7188V39.7314C196.186 41.767 197.509 44.5085 197.724 47.5966C198.203 54.4156 193.066 60.3208 186.26 60.7998C183.058 61.0267 180.058 60.0057 177.726 58.1592L177.714 58.1718C180.134 60.4217 183.443 61.7136 187.003 61.4615C193.81 60.9889 198.946 55.0773 198.467 48.2646C198.228 44.8173 196.595 41.7985 194.163 39.7188" fill="white"/>
<path d="M172.269 53.7918C171.872 54.0124 171.79 54.3401 171.992 54.8506C172.174 55.3106 172.464 55.5186 172.779 55.3863C173.025 55.2917 173.069 55.0712 172.968 54.5166L172.924 54.3023C172.823 53.7477 172.805 53.5145 172.874 53.275C172.937 53.004 173.088 52.8339 173.321 52.7456C173.882 52.5187 174.405 52.8654 174.72 53.6531C175.061 54.504 174.878 55.1405 174.216 55.4178L174.052 55.0018C174.519 54.8065 174.632 54.3716 174.38 53.754C174.185 53.2498 173.857 53.0229 173.523 53.1616C173.246 53.2687 173.189 53.5208 173.29 54.0943L173.328 54.3401L173.359 54.5544C173.435 54.9766 173.441 55.1279 173.403 55.3106C173.346 55.5375 173.208 55.7014 172.975 55.7896C172.452 56.0039 171.941 55.6951 171.657 54.9829C171.355 54.214 171.519 53.6405 172.105 53.3758L172.275 53.7855" fill="white"/>
<path d="M171.916 49.3234L173.794 47.7478L173.807 48.3276L172.218 49.6448L172.729 50.212L173.844 50.1868L173.857 50.6468L170.674 50.7162L170.662 50.2624L171.91 50.2309H172.086H172.25L172.143 50.1174L172.029 50.004L170.624 48.4789L170.611 47.8738L171.916 49.3234Z" fill="white"/>
<path d="M173.327 44.3825L174.556 44.8174L174.405 45.2522L173.176 44.8174L170.977 45.4791L171.159 44.956L172.527 44.5716L172.697 44.5275C172.766 44.5086 172.811 44.496 172.924 44.4707C172.817 44.3447 172.792 44.3132 172.678 44.1556L171.834 43.0149L172.01 42.5107L173.321 44.3825" fill="white"/>
<path d="M175.483 38.5212L174.815 39.3468L176.819 40.9917L176.34 41.5841L174.329 39.9393L173.655 40.7585L173.201 40.3867L175.029 38.1494L175.483 38.5212Z" fill="white"/>
<path d="M179.787 35.5027L178.18 36.448L178.52 37.0341L180.001 36.1707L180.272 36.6434L178.798 37.5005L179.195 38.1811L180.833 37.2232L181.13 37.7274L178.829 39.076L177.222 36.322L179.491 34.9922L179.787 35.5027Z" fill="white"/>
<path d="M185.951 36.7442L185.125 36.8009L184.709 36.114L183.424 36.3219L183.241 37.1097L182.447 37.3114L183.285 33.8262L184.073 33.7002L185.951 36.7505M184.129 35.1056C183.953 34.8157 183.89 34.6833 183.783 34.4565C183.758 34.6833 183.726 34.8535 183.644 35.1812L183.512 35.7925L184.438 35.6413L184.123 35.1056H184.129Z" fill="white"/>
<path d="M191.075 37.7651L190.406 37.5067L190.665 36.5551C190.69 36.448 190.728 36.2967 190.785 36.095C190.841 35.8934 190.885 35.7421 190.917 35.6224C190.961 35.49 190.999 35.364 191.043 35.2253L191.119 34.9984C190.93 35.3198 190.854 35.4333 190.684 35.6917C190.614 35.8051 190.551 35.8997 190.495 35.9816L189.587 37.2483L189.007 37.0908L188.825 35.5656C188.812 35.4837 188.806 35.3766 188.793 35.2253C188.781 35.0236 188.774 34.8724 188.768 34.7652C188.768 34.6833 188.768 34.551 188.768 34.3808L188.686 34.7652C188.591 35.1812 188.554 35.364 188.428 35.8681L188.163 36.8954L187.457 36.782L188.251 33.6624L189.323 33.8703L189.474 35.3451C189.512 35.6917 189.518 35.9816 189.505 36.3912C189.625 36.158 189.669 36.0761 189.808 35.8618C189.902 35.7169 189.978 35.5908 190.054 35.49L190.892 34.2863L191.906 34.6329L191.081 37.7462" fill="white"/>
<path d="M184.987 43.9098C184.596 44.2438 183.833 44.9812 183.096 45.6934L182.258 46.5C181.577 46.3803 180.903 46.3173 180.203 46.3173C178.653 46.3173 177.228 46.7458 176.579 47.4139C176.334 47.666 176.207 47.9433 176.22 48.2269C176.233 48.9831 177.096 49.355 177.361 49.4558C178.741 49.9663 179.894 49.8213 181.111 48.9642C181.785 48.4979 182.592 47.7416 183.222 47.1303C183.713 47.2437 184.268 47.395 184.867 47.5651L185.421 47.729C184.703 48.4348 183.972 49.1722 183.285 49.7772L183.235 49.8276C182.289 50.6595 181.602 51.2646 180.613 51.4851C179.913 51.6364 179.422 51.4851 179.258 51.3906L179.22 51.4221C179.793 51.8948 180.335 52.1595 181.268 52.0775C182.157 52.0019 183.184 51.4473 184.23 50.4579L185.642 49.0651L186.631 48.0819L188.636 48.668L188.673 48.6806L187.432 49.8844L186.367 50.9431C185.276 52.0082 184.684 52.5565 184.041 53.004C182.989 53.7602 182.088 54.1447 181.287 54.2014C180.877 54.2329 180.279 54.2014 179.787 53.9115L179.737 53.9367C180.272 54.3968 180.934 54.9514 182.075 54.9199C183.361 54.8757 184.501 54.2581 186.272 52.6258C187.079 51.8822 187.879 51.0503 188.591 50.3192L189.909 48.9831C190.778 49.1785 191.547 49.2541 192.411 49.2415C193.658 49.21 194.73 48.6176 194.736 47.9307C194.749 47.4265 194.333 47.1492 194.087 46.9916C193.879 46.8593 193.324 46.5442 192.549 46.5442C191.617 46.5442 190.633 46.9601 189.644 47.7794L188.988 48.3655L188.743 48.3025L186.909 47.7857C187.451 47.2815 187.911 46.8467 188.327 46.4748C189.335 45.5799 190.438 45.2144 191.087 45.1703C191.56 45.1388 192.385 45.1766 192.719 45.4161L192.757 45.3782C191.856 44.6094 191.075 44.5022 190.432 44.5022C189.789 44.5022 188.781 44.7039 187.533 45.6681C187.028 46.0652 186.367 46.7269 185.673 47.4265L184.747 47.1366L184.526 47.0672L183.55 46.771L184.104 46.2417C184.76 45.5988 185.384 44.9938 185.863 44.5779C187.621 43.0968 188.73 42.9078 189.499 42.9015C190.343 42.9015 191.012 43.0716 191.49 43.4182L191.528 43.3867C190.545 42.4918 189.827 42.2019 188.604 42.1956C187.526 42.1893 186.241 42.788 184.98 43.8909M178.067 49.1722C177.499 49.1344 177.216 48.9075 177.216 48.4664C177.216 48.4096 177.254 47.0105 180.449 46.853C180.814 46.8341 181.218 46.8215 181.842 46.8908L181.482 47.2059L181.281 47.3887C180.512 48.0882 179.22 49.2604 178.067 49.1785M190.999 48.0504C191.919 47.4265 192.682 47.0988 193.161 47.1114C193.438 47.1177 193.778 47.2059 193.778 47.5525C193.778 47.8991 193.438 48.208 192.77 48.4474C192.19 48.6554 191.289 48.7121 190.312 48.5987C190.583 48.3529 190.81 48.1701 190.999 48.0441" fill="white"/>
<path d="M192.379 35.2189C192.493 34.9479 192.801 34.8281 193.066 34.9416C193.337 35.055 193.457 35.3638 193.343 35.6285C193.23 35.8932 192.921 36.013 192.656 35.8995C192.385 35.7861 192.266 35.4836 192.379 35.2189ZM193.249 35.6348C193.369 35.4205 193.287 35.1496 193.072 35.0361C192.858 34.9164 192.587 34.992 192.467 35.2063C192.348 35.4205 192.436 35.6915 192.644 35.8113C192.852 35.9247 193.129 35.8554 193.242 35.6348M192.934 35.7861L192.852 35.742L192.827 35.4332L192.745 35.3827L192.619 35.6159L192.549 35.5781L192.827 35.0739L193.047 35.2C193.135 35.2504 193.211 35.3197 193.154 35.4269C193.098 35.5277 193.009 35.5277 192.921 35.4836L192.946 35.7924L192.934 35.7861ZM192.864 35.3575C192.921 35.389 193.028 35.4584 193.072 35.3827C193.098 35.3323 193.035 35.2819 192.984 35.2504L192.852 35.1811L192.782 35.3071L192.871 35.3575H192.864Z" fill="white"/>
<path d="M97.9019 45.5735L99.1371 46.8718L100.379 45.5735L99.1371 44.2878L97.9019 45.5735Z" fill="white"/>
<path d="M92.6647 29.32L91.4295 28.0281L90.1816 29.32L91.4295 30.612L92.6647 29.32Z" fill="white"/>
<path d="M94.6499 45.5735L95.9041 46.8718L97.1456 45.5735L95.9041 44.2878L94.6499 45.5735Z" fill="white"/>
<path d="M95.9292 29.32L94.6688 28.0281L93.4272 29.32L94.6688 30.612L95.9292 29.32Z" fill="white"/>
<path d="M155.889 30.5742V39.681C155.889 40.1978 155.839 40.6389 155.656 40.9477C155.429 41.3259 155.038 41.6347 154.282 41.6347C153.526 41.6347 153.129 41.3196 152.902 40.9477C152.713 40.6389 152.662 40.2041 152.662 39.681V33.1077H150.519V39.6558H147.841V33.1203H145.717V39.6558H143.039V33.1077H140.909V39.6558H132.69C130.321 39.4919 129.766 38.2252 129.766 37.0529C129.766 35.4017 131.228 34.7652 132.835 34.7652H136.321V33.114H133.226C130.712 33.114 128.6 34.1476 128.6 36.7693C128.6 38.4709 129.363 39.2461 130.031 39.6621H124.642V31.5385C119.985 32.1183 116.286 35.5971 116.286 41.3133H122.525V43.3237C122.525 44.0989 122.613 45.5799 121.485 45.7942V46.6828C122.273 46.5946 123.546 46.0715 124.107 45.1135C124.548 44.3699 124.642 43.6955 124.642 42.1389V41.307H150.79C150.872 41.5086 150.986 41.7229 151.131 41.9372C151.786 42.8384 152.933 43.2418 154.288 43.2418C155.643 43.2418 156.765 42.8384 157.414 41.9372C157.956 41.1746 158.019 40.412 158.019 39.4982V30.5742H155.895M122.531 39.6558H118.157V39.347C118.157 35.616 121.056 33.3472 122.531 32.9439V39.6558Z" fill="white"/>
<path d="M163.105 30.5742H160.994V41.3196H163.105V30.5742Z" fill="white"/>
<path d="M109.504 33.0698H106.454V34.7336H109.013C110.985 34.7336 113.015 34.8281 113.015 37.1221C113.015 39.1578 111.521 39.6178 108.849 39.6178H103.719V41.2816H109.233C112.555 41.2816 114.187 40.2607 114.187 37.1284C114.187 33.9962 112.252 33.0635 109.511 33.0635" fill="white"/>
<path d="M99.1373 39.6558C99.1373 40.1852 99.0805 40.6138 98.8915 40.9352C98.6709 41.3133 98.2802 41.6158 97.5239 41.6158C96.7676 41.6158 96.3769 41.3133 96.15 40.9352C95.9609 40.6138 95.9042 40.1852 95.9042 39.6558V31.5322C90.8372 32.0112 87.5537 36.0194 87.5537 41.3196H94.0261C94.1207 41.5213 94.2278 41.723 94.3664 41.9246C95.0093 42.8259 96.1626 43.2292 97.505 43.2292C98.8474 43.2292 99.9881 42.8259 100.631 41.9246C101.185 41.1684 101.255 40.4121 101.255 39.4857V32.3893H99.131V39.6558M93.7614 39.6558H89.4192V39.3785C89.4192 35.6728 92.2804 33.3347 93.7614 32.9313V39.6558Z" fill="white"/>
<path fill-rule="evenodd" clip-rule="evenodd" d="M119.481 61.8397C117.382 61.8397 115.807 61.3985 114.843 60.4721C113.985 59.678 113.588 58.7705 113.588 56.9554V49.3801H115.857V57.2769C115.857 58.4365 116.034 59.1045 116.595 59.6969C117.193 60.3461 118.227 60.6927 119.481 60.6927C120.735 60.6927 121.75 60.3461 122.355 59.6969C122.909 59.0982 123.086 58.4365 123.086 57.2769V49.3801H125.374V56.9554C125.374 58.7705 124.97 59.678 124.119 60.4721C123.149 61.3985 121.561 61.8397 119.487 61.8397" fill="white"/>
<path fill-rule="evenodd" clip-rule="evenodd" d="M133.881 49.1218C132.76 49.147 130.006 49.2668 127.995 49.8529L128.184 50.7604C128.726 50.6091 129.237 50.502 129.829 50.4012V61.5814C133.043 61.6444 134.43 61.6318 136.112 61.4364C139.074 61.0772 141.873 58.8588 141.873 55.443C141.873 50.628 137.568 49.0525 133.888 49.1218M134.329 60.5226C133.875 60.5226 132.886 60.4722 132.463 60.1318C132.117 59.8356 132.11 59.3441 132.11 58.6193V50.1554C135.608 49.8466 139.484 50.8801 139.484 55.4871C139.484 59.1739 137.083 60.5289 134.329 60.5289" fill="white"/>
<path d="M147.299 49.3738H145.011V61.5813H147.299V49.3738Z" fill="white"/>
<path fill-rule="evenodd" clip-rule="evenodd" d="M112.101 61.5813H109.511C108.597 59.7284 106.214 57.05 102.263 57.3084L100.183 61.5813H98.5698L104.941 49.1785H105.754L112.101 61.5813ZM102.761 56.2748C103.927 56.2748 106.095 56.4324 107.645 57.6613L104.866 51.9641L102.761 56.2748Z" fill="white"/>
<path fill-rule="evenodd" clip-rule="evenodd" d="M163.162 61.5813H160.572C159.658 59.7284 157.275 57.05 153.324 57.3084L151.244 61.5813H149.631L156.002 49.1785H156.815L163.162 61.5813ZM153.822 56.2748C154.988 56.2748 157.156 56.4324 158.706 57.6676L155.927 51.9704L153.822 56.2811V56.2748Z" fill="white"/>
<path fill-rule="evenodd" clip-rule="evenodd" d="M96.7674 49.7897C96.112 49.4431 94.4797 48.9389 92.7907 48.9704C89.8097 49.046 87.8245 50.2624 87.7993 52.4619C87.7867 52.8967 87.8812 53.4513 88.1459 53.924C89.5891 56.3945 95.5637 55.9911 95.5637 58.6381C95.5637 59.3943 94.8389 60.6359 92.7907 60.6359C90.5597 60.6359 88.8581 59.6086 88.0451 58.9658L87.459 60.7556C88.1522 61.1149 90.0177 61.7955 92.6899 61.7955C93.8936 61.7955 95.2549 61.4678 96.2506 60.6926C97.2149 59.9363 97.6497 58.9973 97.6497 57.844C97.6497 53.4639 90.0114 54.5668 90.0114 51.8127C90.0114 51.359 90.2635 51.0312 90.3517 50.9178C90.7677 50.3821 91.6689 50.0544 92.8159 50.0544C93.8873 50.0544 95.0091 50.4136 96.1246 51.3022L96.7611 49.796" fill="white"/>
<path d="M79.203 52.7078L79.1588 52.7771C76.3921 57.592 71.2117 60.8251 65.2624 60.8251C56.414 60.8251 49.242 53.6531 49.242 44.8047C49.242 41.9057 50.0172 39.1831 51.3659 36.8387L51.4037 36.7757L51.3848 36.7126L51.3281 36.7316L51.2903 36.7883C51.0508 37.1349 50.8302 37.5004 50.6159 37.866C46.2106 45.5484 48.9269 55.3736 56.6661 59.8104C64.4053 64.2472 74.2494 61.6255 78.6484 53.9493C78.8626 53.5775 79.0643 53.1994 79.2408 52.8149L79.2723 52.7393L79.2534 52.6763L79.1967 52.7015" fill="white"/>
<path d="M61.3425 32.4333C59.0674 32.9185 55.2356 35.263 54.4289 39.1515C56.8805 36.2524 59.4392 34.7273 61.3992 34.3744C59.3951 35.8743 57.517 39.3657 58.0969 41.8173C59.1556 39.2145 61.0148 36.6621 62.7164 35.7356C61.7522 37.3238 61.437 41.1619 62.3572 42.8572C62.5715 40.6577 63.2647 37.8028 64.3613 36.3911L64.689 39.1515H64.3172L64.7142 41.956H64.4054L64.7331 44.7605H64.4621L64.8718 47.565L63.5483 48.2456V48.3401H67.0082V48.2456L65.6785 47.565L66.0818 44.7605H65.8171L66.1448 41.956H65.8297L66.2268 39.1515H65.8549L66.1826 36.3911C67.2792 37.8028 67.9725 40.6577 68.1868 42.8572C69.1132 41.1619 68.7918 37.3238 67.8338 35.7356C69.5354 36.6621 71.3883 39.2082 72.4534 41.8173C73.0332 39.3657 71.1551 35.868 69.151 34.3744C71.111 34.7273 73.6634 36.2524 76.115 39.1515C75.3083 35.263 71.4828 32.9185 69.2014 32.4333C71.7097 32.1812 74.155 32.9879 76.3734 34.0655C73.9659 31.2862 70.3295 30.2779 67.9284 30.5552C68.3317 30.1266 68.7288 29.8997 69.3401 29.717C68.3254 29.2443 66.7435 29.4901 66.1322 30.1834C66.1322 30.1834 66.0188 28.8977 65.2814 28.3872C64.5441 28.8914 64.4306 30.1834 64.4306 30.1834C63.813 29.4964 62.2374 29.2443 61.2228 29.717C61.8341 29.8997 62.2248 30.1266 62.6345 30.5552C60.2333 30.2779 56.5969 31.2925 54.1895 34.0655C56.4078 32.9879 58.8531 32.1875 61.3614 32.4333" fill="white"/>
<path d="M65.9496 50.338C65.7605 50.464 65.5274 50.6216 65.2627 50.8043C65.0043 50.6216 64.7648 50.464 64.5757 50.338C63.5548 49.651 54.9459 43.8908 51.2275 47.9683C54.6623 46.607 59.7482 49.1784 63.9392 51.7056C62.893 52.424 61.6956 53.2496 60.6809 53.9366C59.0738 52.3736 58.4751 52.6257 58.3302 52.6887C58.1726 52.7517 58.0592 52.8967 58.0529 53.0795C58.0529 53.3126 58.2293 53.5143 58.4625 53.5206C58.6957 53.5206 58.8848 53.3379 58.8911 53.0984V53.0038C59.3259 53.2874 59.7419 53.6656 60.7818 54.737C61.8405 55.8335 62.2502 56.1361 62.5653 56.3188C62.7796 56.4449 63.0002 56.4764 63.1325 56.4638C63.3531 56.4512 63.5674 56.2936 63.58 56.0478C63.5926 55.802 63.4098 55.6004 63.1766 55.6004C62.9434 55.6004 62.7481 55.7831 62.7481 56.0289V56.0667C62.4645 55.8588 62.1557 55.4806 61.538 54.8189C62.5464 54.2454 63.8321 53.4135 65.2627 52.5123C66.6996 53.4072 67.9789 54.2391 68.9873 54.8189C68.376 55.4806 68.0672 55.8588 67.7773 56.0667V56.0289C67.7773 55.7831 67.5819 55.5941 67.3487 55.6004C67.1092 55.6004 66.9328 55.8083 66.9454 56.0478C66.958 56.2936 67.1722 56.4512 67.3928 56.4638C67.5252 56.4764 67.7458 56.4449 67.96 56.3188C68.2688 56.1361 68.6848 55.8335 69.7436 54.737C70.7834 53.6656 71.1994 53.2811 71.6405 53.0038V53.0984C71.6405 53.3315 71.8296 53.5206 72.0565 53.5206C72.2834 53.5143 72.4724 53.3126 72.4661 53.0795C72.4598 52.8967 72.3464 52.7517 72.1888 52.6887C72.0439 52.6257 71.4452 52.3799 69.8381 53.9366C68.8234 53.2496 67.626 52.424 66.5798 51.7119C70.7708 49.1847 75.8631 46.6133 79.2915 47.9746C75.5669 43.8971 66.9643 49.6573 65.9433 50.3443" fill="white"/>
<path d="M56.3386 55.7139C56.2062 55.6572 56.0676 55.5816 55.9983 55.569C55.9478 55.569 55.91 55.569 55.8785 55.6068C55.8533 55.6446 55.8407 55.7139 55.8722 55.7706C55.8911 55.8148 55.9415 55.8904 56.0739 56.0101C56.6348 56.5017 57.7692 56.9366 60.7502 55.2665C60.6619 55.1782 60.5674 55.0774 60.4666 54.9766C60.2649 54.7686 60.0884 54.5921 59.9372 54.4346C58.3616 55.4303 57.1075 56.029 56.3386 55.7139Z" fill="white"/>
<path d="M74.1865 55.7139C73.4113 56.029 72.1635 55.4303 70.5879 54.4346C70.4303 54.5921 70.2602 54.7686 70.0522 54.9766C69.9577 55.0774 69.8631 55.1719 69.7749 55.2665C72.7559 56.9366 73.8903 56.4954 74.4512 56.0101C74.5898 55.8904 74.6402 55.8148 74.6528 55.7706C74.6844 55.7139 74.6781 55.6383 74.6465 55.6068C74.6213 55.5753 74.5772 55.5627 74.5268 55.569C74.4575 55.5816 74.3188 55.6572 74.1865 55.7139Z" fill="white"/>
</g>
<defs>
<clipPath id="clip0_4292_2848">
<rect width="150" height="33.944" fill="white" transform="translate(48.5049 28.0281)"/>
</clipPath>
</defs>
</svg>
