<svg width="219" height="90" viewBox="0 0 219 90" fill="none" xmlns="http://www.w3.org/2000/svg">
<g clip-path="url(#clip0_4280_2668)">
<path d="M48.4001 31.8142C48.4001 27.6785 48.3001 23.8642 48.0001 20.4856C48.9001 20.5856 49.6715 20.6213 50.3358 20.6213C51.8715 20.6213 53.7072 20.457 55.8786 20.457C61.0215 20.457 63.4643 22.2427 63.4643 26.4213C63.4643 31.1285 60.4572 33.3427 54.2786 33.3427C53.9143 33.3427 53.5429 33.307 53.1786 33.307V38.1785C53.1786 38.807 53.3143 40.4642 53.5429 43.1142C52.6072 43.0142 51.6715 42.9499 50.7358 42.9499C49.8001 42.9499 48.9001 43.0142 47.9929 43.1142C48.3286 39.5356 48.3929 35.7927 48.3929 31.8213L48.4001 31.8142ZM58.1858 26.5785C58.1858 23.6999 56.9501 22.307 54.4072 22.307C54.0715 22.307 53.7358 22.3427 53.3715 22.3713C53.2358 23.5999 53.1358 24.8213 53.1358 26.0499V31.5142C56.7143 31.5142 58.1786 30.0927 58.1786 26.5785H58.1858Z" fill="white"/>
<path d="M64.9072 35.1643C64.9072 32.0857 64.8714 29.4643 64.6714 27.25C65.4429 27.35 66.2072 27.3857 67.0072 27.3857C67.8072 27.3857 68.5429 27.35 69.3143 27.25C69.2143 28.9715 69.15 30.4 69.15 31.4929H69.3143C70.1143 28.4429 71.8857 26.8572 74.4572 26.8572H74.6214C74.4857 27.65 74.4215 28.45 74.4215 29.2429C74.4215 30.0357 74.4857 30.9 74.6214 31.7286C73.8214 31.4286 73.0857 31.2286 72.45 31.2286C70.1786 31.2286 69.3072 32.75 69.3072 35.9357C69.3072 38.85 69.4429 41.2715 69.6072 43.1215C68.8072 43.0215 67.9715 42.9572 67.1357 42.9572C66.3 42.9572 65.5 43.0215 64.6643 43.1215C64.8286 40.7715 64.9 38.1215 64.9 35.1715L64.9072 35.1643Z" fill="white"/>
<path d="M82.2643 42.9786L75.4929 27.2429C76.3643 27.3429 77.2286 27.3786 78.1001 27.3786C78.9715 27.3786 79.8358 27.3429 80.7072 27.2429C81.8429 30.5858 83.1786 34.0001 84.6858 37.4786L88.5643 27.2429C89.0286 27.3429 89.5001 27.3786 89.9358 27.3786C90.4001 27.3786 90.8715 27.3429 91.3072 27.2429C87.3286 35.9572 83.7929 44.2715 80.6501 52.1501C80.2143 52.0858 79.7501 52.0501 79.2501 52.0501C78.7501 52.0501 78.2501 52.0858 77.6786 52.1501C78.4143 51.0215 79.1143 49.7001 79.8501 48.1715L82.2786 42.9715L82.2643 42.9786Z" fill="white"/>
<path d="M92.5715 38.5715C93.3072 40.7572 94.9072 41.9858 96.8786 41.9858C98.4786 41.9858 99.3858 41.1572 99.3858 39.7644C99.3858 38.2715 97.9501 37.8429 95.4786 36.8144C92.7715 35.6858 91.4358 34.5929 91.4358 32.2787C91.4358 29.1001 93.7715 26.8787 97.5501 26.8787C99.2858 26.8787 100.857 27.3429 102.357 28.2715C101.922 29.2287 101.586 30.2572 101.386 31.3858H101.05C100.079 29.3644 98.7786 28.3358 97.1072 28.3358C95.6715 28.3358 94.7001 29.2287 94.7001 30.3929C94.7001 31.6858 95.6715 32.1144 97.5429 32.8429C101.05 34.2001 102.986 34.9644 102.986 37.9144C102.986 41.2287 100.479 43.5429 96.6358 43.5429C94.6644 43.5429 93.0644 43.1787 91.6572 42.2501C91.7572 41.5858 91.8929 40.3644 92.0929 38.5715H92.5572H92.5715Z" fill="white"/>
<path d="M104.864 35.1642C104.864 33.4071 104.8 30.7928 104.664 27.25C105.464 27.35 106.236 27.3857 107 27.3857C107.764 27.3857 108.571 27.35 109.307 27.25V29.4714C110.579 27.85 112.05 26.9214 114.221 26.9214C116.393 26.9214 118.1 27.9785 118.864 30C120.164 27.9142 121.871 26.9214 124.179 26.9214C125.814 26.9214 127.121 27.4857 128.021 28.5142C129.221 29.9071 129.257 31.9928 129.257 35.0428V37.1C129.257 39.15 129.321 41.1714 129.421 43.1285C128.55 43.0285 127.714 42.9642 126.886 42.9642C126.057 42.9642 125.25 43.0285 124.45 43.1285C124.65 40.2785 124.75 37.8285 124.75 35.6785C124.75 31.6357 124.486 29.6857 122.079 29.6857C119.871 29.6857 119.343 31.4428 119.343 34.8857V40.1214C119.343 40.9857 119.407 42.0071 119.479 43.1357C118.643 43.0357 117.807 42.9714 116.971 42.9714C116.136 42.9714 115.336 43.0357 114.5 43.1357C114.7 40.3214 114.764 38.0357 114.764 36.2428C114.764 31.8071 114.664 29.6857 112.093 29.6857C109.886 29.6857 109.386 31.4714 109.386 34.8857V40.1214C109.386 40.9857 109.45 42.0071 109.521 43.1357C108.75 43.0357 107.95 42.9714 107.114 42.9714C106.279 42.9714 105.507 43.0357 104.679 43.1357C104.814 39.5571 104.879 36.8714 104.879 35.1857L104.864 35.1642Z" fill="white"/>
<path d="M134.257 20C135.657 20 136.764 21.1286 136.764 22.5143C136.764 23.9 135.629 25 134.229 25C132.829 25 131.721 23.9071 131.721 22.5143C131.721 21.1214 132.821 20 134.257 20ZM131.986 35.1929C131.986 32.3429 131.886 29.6929 131.721 27.2429C132.557 27.3429 133.393 27.3786 134.229 27.3786C135.064 27.3786 135.936 27.3429 136.736 27.2429C136.571 29.6929 136.471 32.3429 136.471 35.1929C136.471 37.7786 136.571 40.3929 136.736 43.1071C135.936 43.0071 135.1 42.9429 134.229 42.9429C133.357 42.9429 132.557 43.0071 131.721 43.1071C131.886 40.3929 131.986 37.7714 131.986 35.1929Z" fill="white"/>
<path d="M143.179 43.5071C140.371 43.5071 138.671 41.75 138.671 38.9C138.671 36.7786 139.807 35.4857 142.179 34.6928C144.25 34 146.121 33.6357 147.457 32.7357C147.493 32.5357 147.493 32.3357 147.493 32.1714C147.493 30.15 146.221 28.8928 144.321 28.8928C142.821 28.8928 141.614 29.7214 140.579 31.4428C140.379 30.8143 140.143 30.0857 139.843 29.3214C141.779 27.6286 143.686 26.8071 145.793 26.8071C149.8 26.8071 152.007 28.6928 152.007 32.1071V32.2714L151.907 38.0357V38.6643C151.907 41.0143 152.143 41.8428 154.114 41.8428H154.214V42.6714C153.014 43.1714 151.743 43.4 150.707 43.4C149.136 43.4 148.071 42.6071 147.7 41.0143C146.764 42.6071 145.164 43.5 143.193 43.5L143.179 43.5071ZM143.179 38.4714C143.179 40.3571 143.879 41.3214 145.25 41.3214C146.621 41.3214 147.557 40.2928 147.557 38.2428V34.4C144.514 34.9928 143.179 36.1571 143.179 38.4714Z" fill="white"/>
<path d="M155.371 35.1929C155.371 32.3429 155.271 29.6929 155.107 27.2429C155.879 27.3429 156.643 27.3786 157.414 27.3786C158.186 27.3786 158.921 27.3429 159.65 27.2429V29.5643C161.021 27.7786 162.693 26.9143 164.793 26.9143C166.464 26.9143 167.836 27.5143 168.736 28.5357C169.736 29.6929 169.771 31.25 169.771 33.3714C169.771 34.2643 169.736 35.6572 169.736 37.5143C169.736 39.3714 169.8 41.2929 169.971 43.1143C169.136 43.0143 168.3 42.95 167.464 42.95C166.629 42.95 165.829 43.0143 164.993 43.1143C165.157 41.3215 165.257 38.7429 165.257 35.3929C165.257 31.4857 165.021 29.6929 162.586 29.6929C160.414 29.6929 159.743 31.4786 159.743 35.1572C159.743 37.0143 159.807 39.6643 159.979 43.1072C159.179 43.0072 158.343 42.9429 157.543 42.9429C156.743 42.9429 155.907 43.0072 155.107 43.1072C155.271 40.3929 155.371 37.7715 155.371 35.1929Z" fill="white"/>
<path d="M114.314 63.2858C108.043 63.2858 104.428 59.8644 104.428 54.0287C104.428 48.1929 108.35 44.8787 114.571 44.8787C117.214 44.8787 119.457 45.4215 121.264 46.4358C120.843 47.1858 120.614 48.0144 120.586 48.9001H120.164C118.857 46.9787 117 45.9715 114.386 45.9715C110.228 45.9715 107.35 49.0572 107.35 53.9001C107.35 59.0572 110.043 62.0929 114.536 62.0929C115.95 62.0929 117.307 61.7787 118.643 61.1572C118.693 60.3001 118.721 59.4715 118.721 58.6144C118.721 57.4001 118.671 56.1501 118.536 54.9072C119.007 54.9858 119.45 55.0358 119.921 55.0358C120.443 55.0358 120.964 54.9858 121.493 54.8787C121.414 56.1501 121.364 57.3929 121.364 58.6144C121.364 59.8358 121.414 61.0501 121.493 62.2429C118.928 62.9429 116.528 63.2787 114.3 63.2787L114.314 63.2858Z" fill="white"/>
<path d="M123.543 54.7071C123.543 53.4357 123.543 52.0357 123.336 50.5071C123.807 50.5857 124.25 50.6143 124.721 50.6143C125.164 50.6143 125.636 50.5857 126.079 50.5071C125.95 51.3357 125.871 52.1143 125.871 52.8143V53.1286C126.893 51.1571 128.2 50.2214 129.979 50.2214C130.164 50.2214 130.371 50.2214 130.579 50.25C130.529 50.6357 130.471 51.0571 130.471 51.4714C130.471 51.8857 130.521 52.3 130.579 52.7429C129.821 52.5643 129.243 52.4571 128.829 52.4571C128.021 52.4571 127.286 52.7929 126.793 53.3357C125.879 54.35 125.829 55.3571 125.829 56.5V59.1929C125.829 60.2571 125.879 61.5 125.986 62.9286C125.543 62.85 125.1 62.8 124.65 62.8C124.2 62.8 123.786 62.85 123.343 62.9286C123.529 61.6071 123.55 58.8571 123.55 54.7143L123.543 54.7071Z" fill="white"/>
<path d="M137.414 63.2357C133.414 63.2357 130.986 60.8 130.986 56.7285C130.986 52.6571 133.521 50.2 137.414 50.2C141.307 50.2 143.843 52.6857 143.843 56.7285C143.843 60.7714 141.307 63.2357 137.414 63.2357ZM137.443 51.1571C135.114 51.1571 133.678 53.15 133.678 56.7285C133.678 60.3071 135.143 62.2785 137.443 62.2785C139.743 62.2785 141.157 60.2785 141.157 56.7285C141.157 53.1785 139.743 51.1571 137.443 51.1571Z" fill="white"/>
<path d="M156.086 57.9714C156.086 59.6786 156.086 61.3429 156.271 62.9214C155.85 62.8429 155.436 62.7929 155.043 62.7929C154.621 62.7929 154.207 62.8429 153.786 62.9214C153.814 62.2214 153.864 61.4714 153.893 60.6929C152.793 62.4286 151.464 63.2357 149.607 63.2357C146.678 63.2357 145.421 61.7071 145.421 58.5429V54.8643C145.421 53.6429 145.421 52.1929 145.314 50.5071C145.757 50.5857 146.178 50.6143 146.621 50.6143C147.064 50.6143 147.507 50.5857 147.928 50.5071C147.743 54.3429 147.693 56.9357 147.693 58.2286C147.693 60.5357 148.557 61.6214 150.514 61.6214C152.921 61.6214 153.836 59.9143 153.836 56.4357C153.836 54.4143 153.786 52.4214 153.707 50.5C154.15 50.5786 154.571 50.6071 154.986 50.6071C155.4 50.6071 155.85 50.5786 156.264 50.5C156.107 52.1357 156.078 54.6214 156.078 57.9643L156.086 57.9714Z" fill="white"/>
<path d="M158.364 62.7714C158.364 56.8357 158.314 52.7643 158.207 50.5072C158.628 50.5857 159.043 50.6143 159.464 50.6143C159.857 50.6143 160.271 50.5857 160.693 50.5072C160.586 51.2857 160.536 52.0072 160.507 52.7857C161.5 51 162.836 50.1929 164.793 50.1929C168.007 50.1929 170.1 52.6572 170.1 56.7786C170.1 60.9 167.957 63.2357 164.843 63.2357C162.857 63.2357 161.521 62.5643 160.636 61.0357V64.8214C160.636 66.7429 160.636 68.45 160.793 70.0072C160.371 69.9286 159.928 69.8786 159.514 69.8786C159.071 69.8786 158.65 69.9286 158.207 70.0072C158.364 67.4429 158.364 65.0286 158.364 62.7786V62.7714ZM163.986 51.65C161.843 51.65 160.486 53.4929 160.486 56.7572C160.486 60.0214 161.843 61.9929 163.986 61.9929C166.128 61.9929 167.436 60.1 167.436 56.8072C167.436 53.5143 166.1 51.65 163.986 51.65Z" fill="white"/>
</g>
<defs>
<clipPath id="clip0_4280_2668">
<rect width="122.1" height="50" fill="white" transform="translate(48 20)"/>
</clipPath>
</defs>
</svg>
