<svg width="285" height="93" viewBox="0 0 285 93" fill="none" xmlns="http://www.w3.org/2000/svg">
<path d="M38.3298 61.18L51.6697 68.97L38.3298 76.75L24.9796 68.97L11.6396 61.18V30.06L24.9796 22.28L38.3298 14.5L51.6697 22.28L38.3298 30.06L24.9796 37.84V53.4L38.3298 61.18Z" fill="white"/>
<path d="M65.0101 30.0601V61.1801L64.5801 61.4301L51.6701 68.9701V53.4001L38.3301 45.6201L51.6701 37.8401L65.0101 30.0601Z" fill="white"/>
<g style="mix-blend-mode:multiply">
<path d="M65.0099 61.27L51.6699 53.48V57.89L64.5799 61.52L65.0099 61.27Z" fill="white"/>
</g>
<path d="M102.18 40.5299C101.52 39.3099 100.6 38.3799 99.4398 37.7499C98.2799 37.1099 96.9198 36.7899 95.3699 36.7899C93.6498 36.7899 92.1299 37.1799 90.7999 37.9499C89.4699 38.7299 88.4298 39.8299 87.6798 41.2699C86.9298 42.7099 86.5598 44.3699 86.5598 46.2599C86.5598 48.1499 86.9398 49.8899 87.6998 51.3299C88.4598 52.7699 89.5198 53.8799 90.8798 54.6499C92.2398 55.4299 93.8198 55.8099 95.6199 55.8099C97.8398 55.8099 99.6498 55.2199 101.06 54.0399C102.47 52.8599 103.4 51.2199 103.84 49.1199H93.8699V44.6699H109.58V49.7399C109.19 51.7599 108.36 53.6299 107.09 55.3499C105.82 57.0699 104.17 58.4499 102.17 59.4799C100.16 60.5199 97.9098 61.0399 95.4198 61.0399C92.6198 61.0399 90.0898 60.4099 87.8398 59.1499C85.5798 57.8899 83.8098 56.1399 82.5198 53.8899C81.2298 51.6499 80.5898 49.0999 80.5898 46.2399C80.5898 43.3799 81.2298 40.8299 82.5198 38.5699C83.8098 36.3099 85.5798 34.5499 87.8398 33.2899C90.0998 32.0299 92.6098 31.3999 95.3798 31.3999C98.6498 31.3999 101.49 32.1999 103.9 33.7899C106.31 35.3799 107.97 37.6199 108.89 40.4999H102.2L102.18 40.5299Z" fill="white"/>
<path d="M122.649 38.5C123.859 37.81 125.229 37.46 126.779 37.46V43.57H125.239C123.409 43.57 122.029 44 121.109 44.86C120.179 45.72 119.719 47.21 119.719 49.35V60.82H113.899V37.8H119.719V41.37C120.469 40.15 121.439 39.2 122.649 38.5Z" fill="white"/>
<path d="M130.579 43.0299C131.509 41.2299 132.769 39.8399 134.359 38.8699C135.949 37.8999 137.729 37.4199 139.699 37.4199C141.419 37.4199 142.919 37.7699 144.209 38.4599C145.499 39.1499 146.529 40.0299 147.309 41.0799V37.7999H153.169V60.8199H147.309V57.4499C146.559 58.5299 145.529 59.4199 144.209 60.1299C142.889 60.8399 141.379 61.1899 139.659 61.1899C137.719 61.1899 135.949 60.6899 134.359 59.6899C132.769 58.6899 131.509 57.2899 130.579 55.4699C129.649 53.6599 129.189 51.5699 129.189 49.2199C129.189 46.8699 129.649 44.8299 130.579 43.0299ZM146.479 45.6699C145.929 44.6599 145.179 43.8799 144.239 43.3399C143.299 42.7999 142.289 42.5299 141.209 42.5299C140.129 42.5299 139.129 42.7899 138.219 43.3199C137.309 43.8499 136.559 44.6199 135.999 45.6299C135.429 46.6399 135.149 47.8399 135.149 49.2199C135.149 50.5999 135.429 51.8199 135.999 52.8599C136.569 53.8999 137.319 54.6999 138.239 55.2499C139.169 55.7999 140.159 56.0799 141.209 56.0799C142.259 56.0799 143.299 55.8099 144.239 55.2699C145.179 54.7299 145.929 53.9499 146.479 52.9399C147.029 51.9299 147.309 50.7199 147.309 49.2999C147.309 47.8799 147.029 46.6799 146.479 45.6599V45.6699Z" fill="white"/>
<path d="M158.76 43.0298C159.69 41.2298 160.96 39.8398 162.56 38.8698C164.17 37.8998 165.95 37.4198 167.92 37.4198C169.42 37.4198 170.84 37.7498 172.2 38.3998C173.56 39.0498 174.64 39.9198 175.44 40.9998V30.0698H181.34V60.8198H175.44V57.4098C174.72 58.5498 173.71 59.4598 172.41 60.1498C171.11 60.8398 169.6 61.1898 167.88 61.1898C165.94 61.1898 164.17 60.6898 162.56 59.6898C160.95 58.6898 159.69 57.2898 158.76 55.4698C157.83 53.6598 157.37 51.5698 157.37 49.2198C157.37 46.8698 157.83 44.8298 158.76 43.0298ZM174.65 45.6698C174.1 44.6598 173.35 43.8798 172.41 43.3398C171.47 42.7998 170.46 42.5298 169.38 42.5298C168.3 42.5298 167.3 42.7898 166.39 43.3198C165.48 43.8498 164.73 44.6198 164.17 45.6298C163.6 46.6398 163.32 47.8398 163.32 49.2198C163.32 50.5998 163.6 51.8198 164.17 52.8598C164.74 53.8998 165.49 54.6998 166.41 55.2498C167.34 55.7998 168.33 56.0798 169.38 56.0798C170.43 56.0798 171.47 55.8098 172.41 55.2698C173.35 54.7298 174.1 53.9498 174.65 52.9398C175.2 51.9298 175.48 50.7198 175.48 49.2998C175.48 47.8798 175.2 46.6798 174.65 45.6598V45.6698Z" fill="white"/>
<path d="M218.95 37.79L212.22 60.81H205.95L201.75 44.73L197.55 60.81H191.23L184.46 37.79H190.36L194.43 55.33L198.83 37.79H204.98L209.3 55.28L213.37 37.79H218.94H218.95Z" fill="white"/>
<path d="M243.339 51.0499H226.509C226.649 52.7099 227.229 54.0099 228.259 54.9599C229.279 55.8999 230.549 56.3699 232.039 56.3699C234.199 56.3699 235.739 55.4399 236.649 53.5899H242.919C242.259 55.8099 240.979 57.6299 239.099 59.0499C237.219 60.4799 234.899 61.1899 232.159 61.1899C229.939 61.1899 227.959 60.6999 226.199 59.7099C224.439 58.7299 223.069 57.3299 222.089 55.5299C221.109 53.7299 220.609 51.6499 220.609 49.2999C220.609 46.9499 221.089 44.8299 222.059 43.0299C223.029 41.2299 224.389 39.8399 226.129 38.8699C227.879 37.8999 229.879 37.4199 232.159 37.4199C234.439 37.4199 236.309 37.8899 238.039 38.8299C239.769 39.7699 241.109 41.1099 242.069 42.8399C243.029 44.5699 243.499 46.5599 243.499 48.7999C243.499 49.6299 243.439 50.3799 243.329 51.0399L243.339 51.0499ZM237.479 47.1399C237.449 45.6399 236.909 44.4499 235.859 43.5499C234.809 42.6499 233.519 42.1999 231.999 42.1999C230.559 42.1999 229.349 42.6399 228.359 43.5099C227.379 44.3799 226.769 45.5899 226.549 47.1499H237.479V47.1399Z" fill="white"/>
<path d="M253.57 30.0601V60.8101H247.75V30.0601H253.57Z" fill="white"/>
<path d="M265.12 30.0601V60.8101H259.3V30.0601H265.12Z" fill="white"/>
</svg>
