<svg width="247" height="90" viewBox="0 0 247 90" fill="none" xmlns="http://www.w3.org/2000/svg">
<g clip-path="url(#clip0_4280_2496)">
<path fill-rule="evenodd" clip-rule="evenodd" d="M64.4651 36.6707H64.2736C59.6829 36.9084 56.149 40.8188 56.3868 45.4095C56.6246 50.0002 60.535 53.534 65.1257 53.2962C68.7652 53.1113 71.8631 50.5748 72.768 47.041H64.4387V42.9391H76.9558C78.3627 49.6633 74.056 56.2554 67.3318 57.6689C60.6076 59.0759 54.0155 54.7692 52.602 48.045C52.5293 47.7147 52.4765 47.3779 52.4369 47.041H48.335C49.4645 56.0771 57.7013 62.4908 66.7374 61.3613C75.7734 60.2318 82.1872 51.995 81.0577 42.9589C80.7803 40.7395 80.0537 38.5994 78.9242 36.6707H64.4585H64.4651Z" fill="white"/>
<path fill-rule="evenodd" clip-rule="evenodd" d="M64.4651 28.5066V32.5755H75.5488C72.5434 29.9466 68.6859 28.5 64.6897 28.5066H64.4585H64.4651Z" fill="white"/>
<path fill-rule="evenodd" clip-rule="evenodd" d="M48.335 42.9459H52.4369C53.17 38.5599 56.1953 34.9006 60.3632 33.3418V29.0681C53.9098 30.8317 49.1606 36.3141 48.335 42.9459Z" fill="white"/>
<path d="M104.441 40.3829C103.727 39.7355 102.902 39.2203 102.003 38.8636C101.105 38.507 100.147 38.3286 99.1828 38.3286C98.2647 38.3154 97.3598 38.4871 96.5077 38.824C95.7084 39.1345 94.9819 39.61 94.3676 40.2111C93.1258 41.4992 92.452 43.2232 92.4851 45.0066C92.452 46.2616 92.7757 47.5034 93.423 48.5801C94.0373 49.5841 94.929 50.3833 95.9859 50.8919C97.1088 51.4468 98.3374 51.7242 99.5924 51.711C100.187 51.7044 100.781 51.6383 101.363 51.5194C101.891 51.4402 102.38 51.2156 102.783 50.8655V47.5959H100.57L98.5752 42.8268H108.351V54.5116C107.73 54.8683 107.083 55.1656 106.409 55.4099C105.636 55.7072 104.85 55.9582 104.044 56.1563C103.205 56.3743 102.353 56.5329 101.501 56.6517C100.629 56.7772 99.7509 56.8367 98.8658 56.8433C94.6186 56.8565 90.6818 54.6173 88.5219 50.9646C87.4518 49.1679 86.8904 47.1071 86.9102 45.0198C86.897 42.9259 87.4584 40.8651 88.5219 39.0618C90.6884 35.4025 94.6384 33.1633 98.8922 33.1897C99.9755 33.1897 101.059 33.3152 102.116 33.553C103.172 33.7908 104.196 34.1607 105.161 34.6561C106.079 35.1118 106.937 35.6865 107.704 36.3602L104.441 40.3961V40.3829Z" fill="white"/>
<path d="M111.462 33.5928H117.01V56.1961L111.462 56.1763V33.5928Z" fill="white"/>
<path d="M133.114 56.1959H120.102V33.5926L125.65 33.5728V51.0306H134.594L133.114 56.1959Z" fill="white"/>
<path d="M137.691 56.1763V33.5597H145.77C147.368 33.5465 148.947 33.8438 150.433 34.425C151.84 34.9733 153.128 35.7791 154.244 36.803C155.334 37.8268 156.206 39.0554 156.814 40.4227C157.435 41.8296 157.745 43.3488 157.739 44.8879C157.752 46.4137 157.435 47.9263 156.814 49.32C156.213 50.6873 155.334 51.9159 154.244 52.9397C153.128 53.9768 151.827 54.7892 150.413 55.3375C148.934 55.9121 147.362 56.2094 145.77 56.1961H137.691V56.1763ZM143.464 38.3684V51.4073H145.261C146.159 51.4073 147.051 51.229 147.87 50.8789C148.676 50.542 149.409 50.0466 150.03 49.4323C150.638 48.8312 151.127 48.1112 151.463 47.3252C151.794 46.5458 151.965 45.7135 151.959 44.868C151.959 44.016 151.781 43.1705 151.45 42.3844C151.12 41.6116 150.644 40.9049 150.05 40.3104C149.429 39.7093 148.696 39.2271 147.897 38.8902C147.064 38.5402 146.166 38.3618 145.268 38.3684H143.471H143.464Z" fill="white"/>
<path d="M175.196 56.1959H160.823V33.5728H175.196V38.3748H166.378V42.2918H170.857L172.145 47.0608H166.378V51.4269H175.196V56.1959Z" fill="white"/>
<path d="M178.288 56.1763V33.5597H186.366C187.965 33.5465 189.544 33.8438 191.03 34.425C192.437 34.9733 193.725 35.7791 194.841 36.803C195.931 37.8268 196.803 39.0554 197.41 40.4227C198.031 41.8296 198.342 43.3488 198.335 44.8879C198.348 46.4137 198.031 47.9263 197.41 49.32C196.809 50.6873 195.931 51.9159 194.841 52.9397C193.725 53.9702 192.43 54.7892 191.01 55.3375C189.53 55.9187 187.952 56.2094 186.366 56.1961H178.288V56.1763ZM184.061 38.3684V51.4073H185.858C186.756 51.4073 187.641 51.229 188.467 50.8789C189.273 50.542 190.006 50.0466 190.627 49.4323C191.234 48.8312 191.723 48.1112 192.06 47.3252C192.39 46.5458 192.549 45.7135 192.542 44.868C192.542 44.016 192.364 43.1705 192.034 42.3844C191.703 41.6116 191.228 40.9049 190.633 40.3104C190.006 39.7093 189.279 39.2271 188.473 38.8902C187.641 38.5402 186.749 38.3618 185.845 38.3684H184.055H184.061Z" fill="white"/>
</g>
<defs>
<clipPath id="clip0_4280_2496">
<rect width="150" height="32.9869" fill="white" transform="translate(48.335 28.5066)"/>
</clipPath>
</defs>
</svg>
