<svg width="106" height="43" viewBox="0 0 106 43" fill="none" xmlns="http://www.w3.org/2000/svg">
<path d="M9.13 29.5915H16.06C25.36 29.5915 32.83 24.5915 32.83 15.0115V14.8915C32.83 6.42151 26.85 0.551514 17 0.551514H0V42.0315H9.13V29.5915ZM9.13 8.79151H16.13C20.69 8.79151 23.54 10.9815 23.54 15.0715V15.1815C23.54 18.7315 20.87 21.4615 16.31 21.4615H9.13V8.79151Z" fill="#F5B40C"/>
<path d="M57.7806 6.42151H49.3606V17.0815H38.6406V25.2615H49.3606V35.9315H57.7806V25.2615H68.5006V17.0815H57.7806V6.42151Z" fill="#F5B40C"/>
<path d="M90.5105 34.7915C85.7705 34.7915 81.8605 32.7915 78.1305 29.7915L72.7305 36.1815C77.5819 40.4824 83.8472 42.8461 90.3305 42.8215C99.3305 42.8215 105.56 38.2015 105.56 29.9615V29.8415C105.56 22.6115 100.82 19.5915 92.4105 17.4015C85.2405 15.5615 83.4105 14.6715 83.4105 11.9415V11.8215C83.4105 9.82147 85.2505 8.21147 88.7405 8.21147C92.2305 8.21147 95.9005 9.78147 99.5805 12.3315L104.32 5.46147C99.9564 1.95879 94.5056 0.0911485 88.9105 0.181474C80.4405 0.181474 74.3905 5.18147 74.3905 12.6915V12.8015C74.3905 21.0415 79.7905 23.3515 88.1405 25.4915C95.0805 27.2615 96.5005 28.4915 96.5005 30.7615V30.8815C96.5005 33.3115 94.2405 34.7915 90.5105 34.7915Z" fill="#F5B40C"/>
</svg>
