<svg width="247" height="90" viewBox="0 0 247 90" fill="none" xmlns="http://www.w3.org/2000/svg">
<g clip-path="url(#clip0_4280_2396)">
<path d="M109.76 46.611L113.09 40.7356L114.195 46.611H109.76ZM111.466 36.3574L101.472 53.9774H105.578L107.214 51.0965H115.036L115.579 53.9774H123.034L119.723 36.3574H111.466Z" fill="white"/>
<path d="M94.4274 44.6841C94.1052 47.8871 92.1405 50.4521 87.4148 50.4521H85.7091L88.2677 40.5208H90.4473C92.6964 40.5208 94.7812 41.1652 94.4274 44.6841ZM92.8733 36.3574H81.8869L77.3508 53.9774H91.1296C95.9374 53.9774 101.838 50.648 101.838 44.1976C101.838 39.4973 99.1341 36.3574 92.8796 36.3574H92.8733Z" fill="white"/>
<path d="M154.673 36.3574L147.932 42.2518L149.448 36.3574H141.993L137.457 53.9774H144.912L146.434 48.0514L150.73 53.9774H159.158L152.455 44.722L162.014 36.3574H154.673Z" fill="white"/>
<path d="M130.23 36.3574L125.694 53.9774H133.148L137.685 36.3574H130.23Z" fill="white"/>
<path d="M193.191 36.3574L190.557 46.5731L186.577 36.3574L178.509 36.3953L173.986 53.9774H178.894L181.472 43.9828L185.364 53.9774H193.558L198.1 36.3574H193.191Z" fill="white"/>
<path d="M166.727 36.3574L162.191 53.9774H169.639L174.182 36.3574H166.727Z" fill="white"/>
<path d="M66.3202 29.3828L48.1001 46.3078V60.6173L81.9311 29.3828H66.3202Z" fill="white"/>
<path d="M48.1001 29.3828V45L65.0125 29.3828H48.1001Z" fill="white"/>
</g>
<defs>
<clipPath id="clip0_4280_2396">
<rect width="150" height="31.2345" fill="white" transform="translate(48.1001 29.3828)"/>
</clipPath>
</defs>
</svg>
