<svg width="245" height="90" viewBox="0 0 245 90" fill="none" xmlns="http://www.w3.org/2000/svg">
<g clip-path="url(#clip0_4280_2732)">
<path d="M50.8539 65.7239C50.9339 66.31 51.1004 66.743 51.3401 67.036C51.7864 67.5622 52.5457 67.8286 53.618 67.8286C54.2641 67.8286 54.7836 67.762 55.1899 67.6222C55.9492 67.3557 56.3355 66.8629 56.3355 66.1369C56.3355 65.7173 56.149 65.3909 55.776 65.1578C55.403 64.9313 54.8102 64.7315 53.9977 64.5583L52.6123 64.252C51.2536 63.9522 50.3144 63.6259 49.8082 63.2729C48.949 62.6801 48.5161 61.761 48.5161 60.5021C48.5161 59.3565 48.9357 58.4041 49.7816 57.6448C50.6275 56.8855 51.8663 56.5059 53.4981 56.5059C54.8635 56.5059 56.0291 56.8655 56.9882 57.5782C57.954 58.2909 58.4602 59.3299 58.5068 60.6886H55.9359C55.8892 59.916 55.5429 59.3699 54.9035 59.0502C54.4772 58.837 53.9444 58.7304 53.3116 58.7304C52.6056 58.7304 52.0395 58.8703 51.6199 59.1501C51.2003 59.4298 50.9871 59.8161 50.9871 60.3156C50.9871 60.7752 51.1936 61.1149 51.6132 61.3413C51.8796 61.4945 52.4458 61.6677 53.3116 61.8675L55.5562 62.4004C56.542 62.6335 57.2746 62.9399 57.7675 63.3262C58.5268 63.9256 58.9131 64.7981 58.9131 65.9371C58.9131 67.076 58.4602 68.0751 57.5543 68.8477C56.6485 69.6203 55.3764 70.0066 53.7246 70.0066C52.0728 70.0066 50.7141 69.6269 49.7483 68.8677C48.7825 68.1084 48.303 67.0627 48.303 65.7306H50.8539V65.7239Z" fill="white"/>
<path d="M68.4709 68.5147C67.6716 69.5005 66.4594 69.9933 64.8343 69.9933C63.2091 69.9933 61.9969 69.5005 61.1977 68.5147C60.3984 67.529 59.9988 66.3434 59.9988 64.958C59.9988 63.5727 60.3984 62.4138 61.1977 61.408C61.9969 60.409 63.2091 59.9094 64.8343 59.9094C66.4594 59.9094 67.6716 60.409 68.4709 61.408C69.2701 62.4071 69.6698 63.5927 69.6698 64.958C69.6698 66.3234 69.2701 67.529 68.4709 68.5147ZM66.4927 67.1493C66.879 66.6365 67.0722 65.9038 67.0722 64.958C67.0722 64.0123 66.879 63.2796 66.4927 62.7668C66.1064 62.2539 65.5469 62.0008 64.8276 62.0008C64.1083 62.0008 63.5488 62.2539 63.1558 62.7668C62.7629 63.2796 62.5697 64.0056 62.5697 64.958C62.5697 65.9105 62.7629 66.6365 63.1558 67.1493C63.5488 67.6622 64.1016 67.9219 64.8276 67.9219C65.5536 67.9219 66.1064 67.6622 66.4927 67.1493Z" fill="white"/>
<path d="M73.9057 60.2091V65.9105C73.9057 66.45 73.9657 66.8563 74.0989 67.1227C74.3253 67.6022 74.7649 67.842 75.4176 67.842C76.2569 67.842 76.8363 67.5023 77.1427 66.8163C77.3026 66.4433 77.3825 65.9571 77.3825 65.351V60.2025H79.8935V69.6603H77.489V68.3216C77.489 68.3216 77.4091 68.4348 77.3159 68.5813C77.2226 68.7278 77.1161 68.8544 76.9895 68.961C76.6032 69.3073 76.2302 69.5471 75.8706 69.6736C75.5109 69.8002 75.0846 69.8668 74.6051 69.8668C73.2064 69.8668 72.2673 69.3606 71.781 68.3549C71.508 67.802 71.3748 66.9828 71.3748 65.8971V60.1958H73.9124L73.9057 60.2091Z" fill="white"/>
<path d="M81.3255 62.0608V60.2957H82.6443V57.6582H85.0887V60.2957H86.6272V62.0608H85.0887V67.0628C85.0887 67.4491 85.1353 67.6955 85.2352 67.7887C85.3351 67.882 85.6348 67.9353 86.141 67.9353C86.2143 67.9353 86.2942 67.9353 86.3808 67.9353C86.4674 67.9353 86.5473 67.9286 86.6272 67.922V69.7736L85.455 69.8202C84.2894 69.8601 83.4902 69.6603 83.0572 69.2141C82.7775 68.9277 82.6376 68.4948 82.6376 67.902V62.0807H81.3188L81.3255 62.0608Z" fill="white"/>
<path d="M95.0194 60.2625C95.4922 60.4623 95.8852 60.7754 96.1916 61.195C96.4514 61.548 96.6112 61.9143 96.6645 62.2873C96.7244 62.6603 96.7511 63.2731 96.7511 64.1189V69.6804H94.2268V63.9191C94.2268 63.4063 94.1402 63 93.967 62.6869C93.7405 62.2473 93.3209 62.0275 92.6949 62.0275C92.0688 62.0275 91.5559 62.2473 91.2162 62.6869C90.8832 63.1265 90.71 63.7459 90.71 64.5585V69.6871H88.239V56.939H90.71V61.4548C91.0697 60.9019 91.4827 60.5223 91.9489 60.3025C92.4151 60.0827 92.9147 59.9761 93.4342 59.9761C94.0136 59.9761 94.5465 60.076 95.0194 60.2825V60.2625Z" fill="white"/>
<path d="M105.956 56.8789L107.648 64.2054L108.014 66.2435L108.38 64.2454L109.826 56.8789H112.65L114.168 64.2054L114.554 66.2435L114.947 64.2853L116.653 56.8789H119.377L115.78 69.6736H113.222L111.677 62.1939L111.224 59.7229L110.771 62.1939L109.226 69.6736H106.742L103.112 56.8789H105.949H105.956Z" fill="white"/>
<path d="M126.643 60.4023C127.303 60.6954 127.849 61.1616 128.275 61.801C128.661 62.3605 128.915 63.0132 129.028 63.7592C129.094 64.1921 129.121 64.8182 129.108 65.6374H122.214C122.254 66.5832 122.58 67.2492 123.207 67.6356C123.586 67.8753 124.039 67.9886 124.572 67.9886C125.138 67.9886 125.591 67.842 125.944 67.5556C126.137 67.4024 126.304 67.1826 126.45 66.9029H128.975C128.908 67.4624 128.602 68.0352 128.055 68.6146C127.209 69.5338 126.024 69.9934 124.499 69.9934C123.24 69.9934 122.128 69.607 121.168 68.8278C120.203 68.0485 119.723 66.7897 119.723 65.038C119.723 63.3995 120.156 62.1407 121.029 61.2682C121.894 60.3956 123.027 59.9561 124.412 59.9561C125.238 59.9561 125.977 60.1026 126.637 60.4023H126.643ZM122.94 62.5403C122.587 62.9 122.374 63.3862 122.281 64.0056H126.543C126.497 63.3462 126.277 62.8534 125.884 62.5137C125.491 62.174 124.998 62.0008 124.419 62.0008C123.786 62.0008 123.293 62.1806 122.94 62.5403Z" fill="white"/>
<path d="M132.285 66.6497C132.338 67.0893 132.451 67.4023 132.624 67.5888C132.931 67.9152 133.503 68.0817 134.336 68.0817C134.822 68.0817 135.215 68.0084 135.502 67.8619C135.788 67.7154 135.935 67.5022 135.935 67.2092C135.935 66.9161 135.821 66.723 135.588 66.5764C135.355 66.4299 134.496 66.1835 132.997 65.8305C131.925 65.564 131.166 65.231 130.726 64.8314C130.286 64.4384 130.067 63.8723 130.067 63.133C130.067 62.2605 130.413 61.5078 131.099 60.8818C131.785 60.2557 132.751 59.9426 133.996 59.9426C135.242 59.9426 136.141 60.1757 136.887 60.6486C137.633 61.1215 138.059 61.9341 138.172 63.093H135.701C135.668 62.7733 135.575 62.5202 135.428 62.3404C135.155 62.0074 134.689 61.8342 134.036 61.8342C133.497 61.8342 133.11 61.9208 132.884 62.0873C132.658 62.2538 132.538 62.4536 132.538 62.6801C132.538 62.9665 132.658 63.1663 132.904 63.2995C133.15 63.4327 134.01 63.6592 135.488 63.9855C136.474 64.2186 137.213 64.565 137.706 65.0379C138.192 65.5108 138.432 66.1035 138.432 66.8162C138.432 67.7553 138.086 68.5213 137.387 69.1141C136.687 69.7068 135.608 70.0066 134.15 70.0066C132.691 70.0066 131.559 69.6935 130.846 69.0674C130.133 68.4414 129.78 67.6421 129.78 66.6697H132.291L132.285 66.6497Z" fill="white"/>
<path d="M139.278 62.0608V60.2957H140.597V57.6582H143.041V60.2957H144.58V62.0608H143.041V67.0628C143.041 67.4491 143.088 67.6955 143.188 67.7887C143.287 67.882 143.587 67.9353 144.093 67.9353C144.167 67.9353 144.247 67.9353 144.333 67.9353C144.42 67.9353 144.5 67.9286 144.58 67.922V69.7736L143.407 69.8202C142.235 69.8601 141.442 69.6603 141.01 69.2141C140.73 68.9277 140.597 68.4948 140.597 67.902V62.0807H139.278V62.0608Z" fill="white"/>
<path d="M152.153 56.9189L154.557 67.2759L157.441 56.9189H159.306L162.196 67.2959L164.601 56.9189H166.492L163.142 69.667H161.331L158.387 59.0969L155.429 69.667H153.618L150.288 56.9189H152.159H152.153Z" fill="white"/>
<path d="M172.207 64.0455C172.567 63.9988 172.807 63.8523 172.926 63.5926C172.993 63.4527 173.033 63.2529 173.033 62.9931C173.033 62.4603 172.847 62.074 172.467 61.8275C172.087 61.5878 171.548 61.4679 170.842 61.4679C170.029 61.4679 169.45 61.6877 169.11 62.1339C168.917 62.3804 168.797 62.74 168.737 63.2262H167.278C167.305 62.0806 167.678 61.2747 168.391 60.8285C169.103 60.3756 169.929 60.1558 170.875 60.1558C171.967 60.1558 172.853 60.3622 173.539 60.7818C174.219 61.2015 174.552 61.8475 174.552 62.7267V68.0817C174.552 68.2415 174.585 68.3748 174.651 68.4747C174.718 68.5746 174.858 68.6212 175.071 68.6212C175.138 68.6212 175.218 68.6212 175.304 68.6079C175.391 68.6012 175.484 68.5879 175.584 68.5679V69.7202C175.344 69.7868 175.158 69.8334 175.031 69.8534C174.905 69.8734 174.731 69.88 174.512 69.88C173.972 69.88 173.586 69.6869 173.339 69.3072C173.213 69.1074 173.12 68.821 173.073 68.448C172.753 68.8676 172.3 69.2273 171.701 69.5337C171.101 69.8401 170.449 69.9932 169.729 69.9932C168.87 69.9932 168.164 69.7335 167.618 69.2073C167.072 68.6811 166.799 68.0284 166.799 67.2425C166.799 66.3833 167.065 65.7172 167.605 65.2377C168.144 64.7648 168.85 64.4717 169.723 64.3652L172.214 64.0521L172.207 64.0455ZM168.917 68.2682C169.25 68.5279 169.636 68.6545 170.089 68.6545C170.642 68.6545 171.168 68.5279 171.688 68.2749C172.553 67.8552 172.986 67.1626 172.986 66.2035V64.9446C172.793 65.0645 172.553 65.1711 172.247 65.251C171.947 65.3309 171.654 65.3909 171.361 65.4242L170.415 65.5441C169.849 65.6173 169.423 65.7372 169.137 65.8971C168.65 66.1701 168.411 66.6031 168.411 67.1959C168.411 67.6488 168.577 68.0018 168.904 68.2615L168.917 68.2682Z" fill="white"/>
<path d="M177.423 57.7781H179.001V60.3757H180.487V61.6545H179.001V67.7221C179.001 68.0485 179.108 68.2616 179.328 68.3748C179.447 68.4415 179.654 68.4681 179.934 68.4681C180.007 68.4681 180.087 68.4681 180.173 68.4681C180.26 68.4681 180.36 68.4548 180.48 68.4415V69.6803C180.3 69.7336 180.114 69.7669 179.92 69.7935C179.727 69.8135 179.514 69.8268 179.294 69.8268C178.568 69.8268 178.069 69.6403 177.809 69.2674C177.549 68.8944 177.416 68.4082 177.416 67.8154V61.6611H176.157V60.3823H177.416V57.7847L177.423 57.7781Z" fill="white"/>
<path d="M187.793 60.6287C188.405 60.9417 188.878 61.3413 189.198 61.8275C189.511 62.2938 189.718 62.8399 189.817 63.466C189.911 63.8923 189.957 64.5783 189.957 65.5174H183.197C183.224 66.4632 183.443 67.2225 183.863 67.7953C184.276 68.3681 184.915 68.6545 185.781 68.6545C186.594 68.6545 187.24 68.3814 187.719 67.8419C187.993 67.5289 188.179 67.1626 188.292 66.7496H189.831C189.791 67.0893 189.658 67.4689 189.425 67.8885C189.198 68.3082 188.938 68.6545 188.659 68.9143C188.186 69.3805 187.606 69.6869 186.907 69.8534C186.534 69.9466 186.114 69.9932 185.641 69.9932C184.489 69.9932 183.517 69.5736 182.717 68.7278C181.918 67.8819 181.519 66.7096 181.519 65.1911C181.519 63.6725 181.918 62.4869 182.724 61.5545C183.53 60.622 184.582 60.1558 185.881 60.1558C186.534 60.1558 187.173 60.309 187.786 60.622L187.793 60.6287ZM188.352 64.2786C188.292 63.5992 188.146 63.0597 187.913 62.6534C187.486 61.9008 186.78 61.5278 185.788 61.5278C185.075 61.5278 184.482 61.7876 183.996 62.3071C183.517 62.8266 183.257 63.486 183.23 64.2786H188.352Z" fill="white"/>
<path d="M191.982 60.3757H193.468V61.9808C193.588 61.6678 193.887 61.2881 194.36 60.8419C194.833 60.3956 195.379 60.1692 195.999 60.1692C196.025 60.1692 196.079 60.1692 196.145 60.1758C196.212 60.1825 196.332 60.1958 196.498 60.2092V61.8609C196.405 61.841 196.318 61.8343 196.245 61.8276C196.165 61.8276 196.079 61.821 195.992 61.821C195.206 61.821 194.6 62.0741 194.18 62.5803C193.761 63.0865 193.548 63.6726 193.548 64.332V69.6803H191.982V60.3823V60.3757Z" fill="white"/>
<path d="M151.84 32.4816C139.465 33.4074 124.692 40.2943 124.692 40.2943C119.616 41.8528 122.267 38.5026 122.267 38.5026C125.491 35.3056 124.945 33.1543 124.945 33.1543C124.179 31.1695 119.956 32.9412 119.956 32.9412C109.692 37.73 98.8491 38.9023 98.8491 38.9023C95.5522 39.1953 96.2315 36.0183 96.2315 36.0183C96.4447 33.081 94.3333 33.3807 94.3333 33.3807C91.9689 33.2542 88.259 35.1324 88.259 35.1324C75.9971 40.9537 62.4231 38.7691 62.4231 38.7691C76.2569 43.7777 92.3019 36.9841 92.3019 36.9841C94.6663 36.0582 94.1934 37.3704 94.1934 37.3704C93.8071 38.8223 93.8737 40.6739 93.8737 40.6739C94.0203 44.3305 99.8415 43.8576 99.8415 43.8576C99.8415 43.8576 103.944 44.4105 120.909 36.0849C122.767 35.1724 121.654 36.6777 121.654 36.6777C118.071 39.9679 118.364 41.9061 118.364 41.9061C118.657 47.2012 124.918 45.5161 124.918 45.5161C154.524 38.0897 170.602 43.3381 172.5 44.0241L178.861 33.0544C166.619 30.943 151.84 32.4816 151.84 32.4816Z" fill="white"/>
<path d="M95.3925 27.3265C76.9563 30.7899 67.3253 31.7291 64.8743 31.9289C68.6707 31.8023 87.4599 32.3884 128.095 30.377C159.872 28.8051 174.512 30.3304 179.84 31.3028L185.861 20.9191C154.031 16.8896 95.3991 27.3198 95.3991 27.3198L95.3925 27.3265Z" fill="white"/>
</g>
<defs>
<clipPath id="clip0_4280_2732">
<rect width="148.202" height="50" fill="white" transform="translate(48.303 20)"/>
</clipPath>
</defs>
</svg>
