<svg width="201" height="90" viewBox="0 0 201 90" fill="none" xmlns="http://www.w3.org/2000/svg">
<g clip-path="url(#clip0_4292_2803)">
<g clip-path="url(#clip1_4292_2803)">
<path fill-rule="evenodd" clip-rule="evenodd" d="M94.2481 11.3881C96.3207 11.14 99.3943 10.75 100.325 9.1193C101.256 7.48858 101.414 6.83275 101.502 6.62005C101.59 6.40735 101.642 6.33645 101.765 6.35417C101.888 6.3719 101.888 6.5137 101.853 6.69095C101.818 6.8682 101.291 8.97749 100.764 10.5905C100.237 12.2035 99.4646 15.1281 95.3546 15.589C91.4379 16.0321 89.1898 16.2271 89.0317 17.3969C88.8561 18.5668 90.5773 19.8607 91.4028 20.3925C92.2459 20.9243 94.3886 22.0055 95.3195 22.3068C96.2504 22.6081 98.0595 23.4058 101.853 21.8991C104.98 20.6761 106.929 19.3999 107.79 18.8504C108.65 18.3009 108.861 18.1237 108.967 18.0528C109.125 17.9464 109.23 17.9287 109.283 17.9819C109.353 18.0528 109.3 18.1946 109.265 18.3364C109.23 18.4782 108.844 19.6658 108.633 20.3925C108.422 21.1192 108.159 21.7573 108.088 21.9346C108.018 22.1296 107.913 22.36 107.772 22.4663C107.632 22.5727 106.56 23.459 103.645 25.0365C100.747 26.614 98.2878 27.7839 96.2855 29.0247C93.9671 30.4781 92.0351 32.0557 90.1909 34.7676C88.4521 37.3377 88.1711 38.7203 88.1711 38.7203C88.1711 38.7203 89.6113 38.5785 91.3325 38.0113C92.843 37.515 96.3558 36.5224 100.132 34.4663C103.592 32.5697 106.314 31.0099 106.314 31.0099C106.314 31.0099 106.56 30.8503 106.543 31.0276C106.525 31.2935 106.051 33.4914 106.156 34.5017C106.209 34.9626 106.49 36.2565 107.579 37.2137C108.633 38.1354 110.354 39.0748 113.129 38.6494C116.94 38.0645 120.892 35.0867 121.033 34.9626C121.173 34.8385 121.314 34.7144 121.208 34.5549C121.086 34.3776 120.594 33.7927 119.364 33.6686C118.17 33.5623 117.169 33.58 116.185 33.6509C115.202 33.7395 113.252 33.9522 112.216 32.9242C111.162 31.9139 111.267 29.8932 111.636 28.1916C112.058 26.3304 113.99 22.7499 117.625 22.874C118.978 22.9272 122.052 25.3201 123.07 29.6096C124.107 33.9522 122.526 37.3023 120.067 39.5357C117.59 41.8045 114.376 42.7794 114.376 42.7794C114.376 42.7794 113.656 45.5799 111.144 48.6464C109.054 51.1988 104.189 55.3642 98.1648 55.5238C91.9121 55.6833 88.4872 52.5991 87.2753 50.5607C85.8878 48.221 85.7121 46.7321 85.5716 45.4381C85.4487 44.3215 85.5014 43.3998 85.5014 43.3998C85.5014 43.3998 81.9535 43.4884 79.3189 41.3436C76.7722 39.2698 75.5779 36.4338 76.017 32.6406C76.4385 29.0955 78.2476 26.1532 78.3178 26.0468C78.3881 25.9405 78.511 25.7455 78.634 25.8696C78.7042 25.9227 78.5988 26.1532 78.511 26.3127C78.4408 26.4545 77.826 27.5889 77.5099 29.3969C77.0181 32.2861 77.4572 34.9094 80.1796 36.9655C82.2345 38.5253 83.9382 38.6849 84.6934 38.7558C85.7824 38.8798 86.1864 38.8089 86.1864 38.8089C86.1864 38.8089 86.9416 35.2107 88.8561 32.4102C91.2623 28.8651 94.2306 26.6318 94.2306 26.6318C94.2306 26.6318 91.5433 25.1606 90.226 24.2211C88.9263 23.264 87.9779 22.5195 87.732 20.1443C87.4685 17.8578 87.6442 15.3408 88.9966 13.1961C90.1558 11.3704 92.1054 11.654 94.2481 11.3881ZM113.656 29.2374C113.656 29.2374 113.41 29.2551 113.586 29.0247C113.691 28.9006 114.921 27.323 116.431 27.2876C118.012 27.2521 119.312 28.936 119.347 28.9892C119.382 29.0424 119.435 29.1665 119.329 29.1665C119.206 29.1665 113.656 29.2374 113.656 29.2374ZM87.5388 43.1871C87.5388 43.1871 89.5235 43.063 92.0702 42.0881C95.2141 40.8651 99.1309 38.6317 100.782 37.7277C102.433 36.8237 104.47 35.6893 104.47 35.6893C104.47 35.6893 104.54 38.7026 106.086 40.6169C108.475 43.577 111.39 43.3643 112.023 43.3466C112.532 43.3289 113.656 43.0275 113.656 43.0275C113.656 43.0275 111.847 46.094 107.052 48.6641C100.554 52.156 94.5643 51.2343 91.034 49.0009C87.5388 46.7675 87.5388 43.1871 87.5388 43.1871ZM114.376 22.5372C114.446 22.5904 114.534 22.5727 114.569 22.5018L117.046 18.939C117.099 18.8681 117.081 18.7972 117.011 18.7441L113.48 16.2448C113.41 16.2094 113.34 16.2094 113.287 16.2803L110.811 19.843C110.758 19.9139 110.776 20.0025 110.846 20.038L114.376 22.5372ZM90.0504 26.5609L86.5903 23.9907C86.5376 23.9375 86.4498 23.9553 86.3971 24.0262L84.0612 27.2344L81.128 25.0719C81.0578 25.0188 80.9875 25.0365 80.9348 25.1074L78.3881 28.5992C78.3529 28.6701 78.3529 28.741 78.4232 28.7942L81.8832 31.3644C81.9535 31.3998 82.0238 31.3998 82.0764 31.3289L84.4124 28.1207L87.328 30.3009C87.3983 30.354 87.4861 30.3363 87.5212 30.2654L90.068 26.7736C90.1206 26.7027 90.1031 26.614 90.0504 26.5609Z" fill="white"/>
<path d="M83.9031 67.4528L84.992 68.0555C85.0623 68.0909 85.1325 68.1441 85.2028 68.1441C85.2906 68.1441 85.3257 68.0555 85.3784 68.0023L85.7297 67.3996C85.7648 67.3287 85.7999 67.2756 85.7999 67.2047C85.7999 67.1515 85.7121 67.116 85.677 67.0806L84.588 66.4602C84.5353 66.4247 84.4651 66.3716 84.4124 66.3716C84.3246 66.3716 84.2719 66.4425 84.2368 66.4956L83.8855 67.116C83.8504 67.1692 83.7977 67.2224 83.7977 67.2756C83.7625 67.3465 83.8328 67.4174 83.9031 67.4528ZM74.4889 70.1293L75.6481 70.8206C75.7008 70.856 75.771 70.8915 75.8237 70.8915C75.894 70.8915 75.9467 70.8383 75.9818 70.7674L76.2101 70.3952C76.2453 70.342 76.3155 70.2711 76.3682 70.2711C76.4209 70.2711 76.456 70.3065 76.5087 70.3243L77.4045 70.8029C77.4747 70.8383 77.5274 70.8738 77.6152 70.8738C77.6855 70.8738 77.7557 70.8029 77.7733 70.7497L78.1597 70.0052C78.1773 69.952 78.1948 69.8989 78.1948 69.8634C78.1948 69.8102 78.107 69.7925 78.0719 69.7748L76.8776 69.0835C76.8424 69.0658 76.8073 69.0303 76.7546 69.0303C76.7019 69.0303 76.6317 69.0835 76.6141 69.1367L76.3331 69.5621C76.2979 69.6153 76.2453 69.6684 76.2101 69.6684C76.1574 69.6684 76.1047 69.633 76.0872 69.6153L75.1212 69.0658C75.0685 69.0481 75.0158 69.0126 74.9807 69.0126C74.928 69.0126 74.8753 69.0658 74.8577 69.119L74.4186 69.8634C74.3835 69.9166 74.3659 69.9698 74.3659 70.0052C74.3659 70.0407 74.4362 70.0939 74.4889 70.1293ZM93.1591 72.983C92.9133 72.983 91.7892 73.2312 90.788 73.2312C89.8396 73.2312 88.9263 71.9373 88.9263 71.7777C88.9263 71.5296 89.6815 70.8383 90.3489 70.8383C91.2096 70.8383 91.7365 71.441 91.877 71.441C91.9824 71.441 92.0526 71.3346 92.0526 71.246C92.0526 70.7497 91.2447 69.5798 90.1206 69.5798C88.698 69.5798 87.7671 71.6182 87.7671 71.9018C87.7671 72.5045 88.2589 73.0362 88.2589 73.1426C88.2589 73.2489 88.013 73.2667 87.89 73.2667H86.5552C86.5552 73.178 86.5552 73.0717 86.5552 72.9653C86.5552 70.9624 85.9756 69.1367 85.0798 69.1367C84.3773 69.1367 83.2356 70.732 83.2356 71.7423C83.2356 72.5399 83.8504 72.6463 85.0623 73.2667C84.0611 73.3907 81.9008 73.3376 80.9172 73.2489C80.7767 72.3272 80.2849 70.7851 80.039 70.7851C79.9512 70.7851 79.9161 70.9092 79.8985 70.9624L79.5297 71.8841C79.5121 71.9373 79.4946 71.9727 79.4946 72.0082C79.4946 72.0968 80.2147 72.9122 80.2147 73.2135C80.2147 73.568 77.4045 73.9048 75.3319 73.9048C73.9971 73.9048 72.6096 73.6921 72.6096 72.5576C72.6096 72.1145 72.8379 71.5828 72.8379 71.4941C72.8379 71.4232 72.7852 71.3701 72.7149 71.3701C72.4866 71.3701 71.9421 72.2209 71.9421 73.2135C71.9421 74.5606 73.2419 75.181 75.2617 75.181C78.5285 75.181 80.0566 74.9328 80.6362 74.3124C80.9699 74.6669 85.6243 74.5251 86.0985 74.3833C86.2566 74.4542 86.5727 74.4897 86.9065 74.4897C89.1019 74.4897 92.2107 74.4897 92.2107 74.4897C92.5269 74.4897 92.7376 74.4011 92.9484 73.9225L93.2821 73.178C93.2997 73.1426 93.3172 73.1071 93.3172 73.0717C93.2821 73.0539 93.2294 72.983 93.1591 72.983ZM83.9557 71.2637C83.9557 71.1042 84.5529 70.4306 84.7637 70.4306C85.4311 70.4306 85.8175 71.8132 85.8878 72.3272C85.8878 72.3449 83.9909 71.5473 83.9557 71.2637ZM96.426 66.4779L97.4798 67.0806C97.5325 67.116 97.6028 67.1515 97.6555 67.1515C97.7257 67.1515 97.7784 67.0806 97.8135 67.0274L98.0594 66.6552C98.0946 66.602 98.1648 66.5311 98.2175 66.5311C98.2878 66.5311 98.3405 66.5843 98.3931 66.6197L99.2362 67.0274C99.3065 67.0628 99.3592 67.116 99.447 67.116C99.5348 67.116 99.5699 67.0097 99.605 66.9565L99.9388 66.3893C99.9739 66.3184 100.009 66.2652 100.009 66.1943C100.009 66.1234 99.9388 66.0702 99.8861 66.0348L98.8674 65.4676C98.7971 65.4321 98.7444 65.3967 98.6566 65.3967C98.5863 65.3967 98.5161 65.4499 98.481 65.5208L98.2351 65.9284C98.1999 65.9816 98.1824 66.0348 98.1297 66.0348C98.0594 66.0348 98.0067 65.9816 97.9541 65.9462L97.0583 65.4853C96.988 65.4499 96.9354 65.3967 96.8827 65.3967C96.83 65.3967 96.7773 65.4676 96.7422 65.5208L96.3733 66.1589C96.3382 66.2298 96.2855 66.2652 96.2855 66.3361C96.2855 66.407 96.3733 66.4425 96.426 66.4779ZM126.126 72.9653C124.897 72.3627 123.667 70.5193 121.806 70.5193C120.804 70.5193 119.944 71.6005 119.944 71.955C119.944 72.0436 120.014 72.1145 120.084 72.1145C120.26 72.1145 120.682 71.6537 121.56 71.6537C122.403 71.6537 123.404 72.3804 124.458 73.2312C123.738 73.2844 123.035 73.2135 122.315 73.2135C121.138 73.2135 120.032 73.2844 118.89 73.2667C118.89 73.2667 118.89 73.2667 118.872 73.2667L116.87 73.178C116.87 73.178 116.501 71.7955 116.449 70.7674L116.115 65.6626C116.097 65.5208 116.097 65.2549 115.957 65.2549C115.799 65.2549 115.008 66.3716 115.008 66.5311C115.008 66.7615 115.061 66.9919 115.079 67.2224L115.606 72.2563C115.799 74.2061 116.203 74.5429 117.924 74.5429C117.959 74.5429 117.994 74.5429 118.047 74.5429C118.047 74.5429 120.787 74.5429 123.263 74.5429C125.195 74.5429 127.408 74.6492 127.408 74.2061V73.4085C127.391 73.0717 127.075 73.4262 126.126 72.9653ZM123.351 77.0067L122.262 76.3508C122.21 76.3154 122.139 76.2799 122.087 76.2799C121.999 76.2799 121.964 76.3863 121.929 76.4395L121.56 77.0598C121.525 77.113 121.489 77.1662 121.489 77.2194C121.489 77.2903 121.56 77.3434 121.612 77.3612L122.684 77.9815C122.754 78.017 122.824 78.0702 122.912 78.0702C122.982 78.0702 123.018 77.9993 123.053 77.9461L123.421 77.308C123.457 77.2548 123.509 77.1839 123.509 77.1307C123.509 77.0953 123.404 77.0421 123.351 77.0067ZM111.671 70.6079C109.862 70.6079 110.899 73.2312 108.598 73.2312C108.598 73.2312 106.209 73.3553 105.787 72.8058C106.051 72.4336 106.385 72.0436 106.385 71.4055C106.385 70.537 105.542 69.9343 104.47 69.9343C103.855 69.9343 103.258 70.0938 103.048 70.5902L102.626 71.5473C102.608 71.6005 102.573 71.6537 102.573 71.6891C102.573 71.7246 102.626 71.7955 102.679 71.7955C102.819 71.7955 102.942 71.6891 103.065 71.6891C103.715 71.6891 103.961 72.1145 104.295 72.5576C103.662 73.1249 101.274 74.0997 100.237 73.1603C99.1835 72.2031 99.0781 67.9491 98.7795 67.9491C98.6917 67.9491 98.6742 68.0732 98.639 68.1441L98.2878 69.0835C98.2702 69.1367 98.2526 69.1544 98.2526 69.2076C98.2526 69.3317 98.3405 69.5444 98.3405 69.7393C98.3405 69.8102 96.2152 70.7674 96.2152 72.5045C96.2152 72.8235 97.392 73.4616 98.2351 73.4616C98.8498 73.4616 98.9376 72.7349 99.0606 72.7349C99.447 72.7349 99.1484 74.1706 100.659 74.472C102.187 74.7733 104.277 73.9225 104.909 73.6034C106.595 74.2947 108.176 74.3833 110.055 73.9225C110.055 73.9225 111.917 74.4188 112.55 74.3833C113.182 74.3479 113.586 73.9048 113.586 73.2844C113.551 72.274 112.479 70.6079 111.671 70.6079ZM98.5161 72.2031C97.9892 72.2031 97.1988 71.7068 97.1988 71.565C97.2164 71.2283 98.1999 70.5015 98.4458 70.5193C98.5688 70.537 98.8322 71.6891 98.8322 71.9195C98.8498 72.0791 98.6917 72.2031 98.5161 72.2031ZM112.198 73.4085C111.566 73.3907 111.127 73.3376 110.74 73.1426C110.916 72.7172 111.197 71.7777 111.566 71.7777C112.233 71.7777 112.62 72.7881 112.62 73.1249C112.62 73.3021 112.356 73.4085 112.198 73.4085Z" fill="white"/>
<path d="M71.8894 81.1543H74.9982V81.9342H72.8027V82.8382H74.8226V83.5472H72.8027V84.5753H75.0509V85.3552H71.8894V81.1543Z" fill="white"/>
<path d="M75.8237 81.1543H78.7393V81.9342H76.737V82.9091H78.4759V83.6181H76.737V85.3552H75.8237V81.1543Z" fill="white"/>
<path d="M79.4067 81.1543H82.3223V81.9342H80.3201V82.9091H82.0589V83.6181H80.3201V85.3552H79.4067V81.1543Z" fill="white"/>
<path d="M83.8327 81.1543H84.7636L86.3092 85.3374H85.3607L85.0446 84.398H83.499L83.1653 85.3374H82.2344L83.8327 81.1543ZM83.7449 83.7244H84.8162L84.2893 82.1824H84.2718L83.7449 83.7244Z" fill="white"/>
<path d="M87.3278 81.9164H86.0808V81.1365H89.4882V81.9164H88.2412V85.3373H87.3278V81.9164Z" fill="white"/>
<path d="M95.3897 83.7599C95.3897 84.8943 94.7223 85.4438 93.6157 85.4438C92.4917 85.4438 91.8418 84.8943 91.8418 83.7599V81.1543H92.7551V83.7599C92.7551 84.2208 92.8781 84.6639 93.6157 84.6639C94.2656 84.6639 94.4764 84.3803 94.4764 83.7599V81.1543H95.3897V83.7599Z" fill="white"/>
<path d="M96.3381 81.1543H97.2514L98.9903 83.9726H99.0078V81.1543H99.8684V85.3374H98.9551L97.2339 82.5369H97.2163V85.3374H96.3381V81.1543Z" fill="white"/>
<path d="M100.799 81.1543H101.713V85.3374H100.799V81.1543Z" fill="white"/>
<path d="M104.593 85.3374H103.557L102.204 81.1543H103.153L104.084 84.0967H104.101L105.032 81.1543H105.981L104.593 85.3374Z" fill="white"/>
<path d="M106.472 81.1543H109.581V81.9342H107.386V82.8382H109.406V83.5472H107.386V84.5753H109.634V85.3552H106.472V81.1543Z" fill="white"/>
<path d="M110.389 81.1543H112.637C113.375 81.1543 113.849 81.6683 113.849 82.3064C113.849 82.8027 113.656 83.175 113.199 83.3522V83.3699C113.656 83.494 113.779 83.9194 113.797 84.3448C113.814 84.6107 113.814 85.107 113.972 85.3374H113.059C112.953 85.0716 112.953 84.6639 112.918 84.3271C112.848 83.884 112.69 83.689 112.233 83.689H111.32V85.3197H110.389V81.1543ZM111.302 83.0509H112.304C112.708 83.0509 112.936 82.8736 112.936 82.4482C112.936 82.0406 112.708 81.8633 112.304 81.8633H111.302V83.0509Z" fill="white"/>
<path d="M115.377 83.9549C115.377 84.5044 115.816 84.7348 116.291 84.7348C116.607 84.7348 117.098 84.6462 117.098 84.2208C117.098 83.7776 116.484 83.689 115.869 83.5295C115.254 83.3699 114.622 83.1218 114.622 82.3419C114.622 81.4911 115.43 81.0657 116.168 81.0657C117.028 81.0657 117.836 81.4556 117.836 82.4128H116.958C116.923 81.9165 116.572 81.7747 116.132 81.7747C115.834 81.7747 115.5 81.8988 115.5 82.2533C115.5 82.5723 115.693 82.6255 116.747 82.8914C117.046 82.9623 117.977 83.1572 117.977 84.1144C117.977 84.8766 117.379 85.4615 116.255 85.4615C115.342 85.4615 114.481 85.0007 114.481 83.9726H115.377V83.9549Z" fill="white"/>
<path d="M118.679 81.1543H119.593V85.3374H118.679V81.1543Z" fill="white"/>
<path d="M121.454 81.9164H120.207V81.1365H123.615V81.9164H122.368V85.3373H121.454V81.9164Z" fill="white"/>
<path d="M125.318 83.7067L123.79 81.1543H124.827L125.793 82.8027L126.759 81.1543H127.777L126.232 83.7422V85.3552H125.318V83.7067Z" fill="white"/>
</g>
</g>
<defs>
<clipPath id="clip0_4292_2803">
<rect width="200" height="89" fill="white" transform="translate(0.100098 0.5)"/>
</clipPath>
<clipPath id="clip1_4292_2803">
<rect width="56.8714" height="80.1" fill="white" transform="translate(71.3977 5.84009)"/>
</clipPath>
</defs>
</svg>
