<svg width="279" height="90" viewBox="0 0 279 90" fill="none" xmlns="http://www.w3.org/2000/svg">
<g clip-path="url(#clip0_4280_2507)">
<path d="M50.0404 1H48.335V84.7683H50.0404V1Z" fill="white"/>
<path d="M69.9457 58.4031C69.9457 62.0242 67.8669 63.9322 64.2863 63.9322C60.7057 63.9322 58.3809 62.2277 58.3809 58.4031V49.2104H60.29V58.4031C60.29 60.9217 61.7578 62.3464 64.2778 62.3464C66.7978 62.3464 68.0196 60.9641 68.0196 58.4031V49.2104H69.9287V58.4031H69.9457Z" fill="white"/>
<path d="M72.2285 53.1962H73.8576V54.8668H73.9C74.6297 53.5608 75.8091 52.9587 77.277 52.9587C80.0006 52.9587 80.8576 54.5446 80.8576 56.7834V63.6185H79.1522V56.5798C79.1522 55.3163 78.3376 54.5022 77.0394 54.5022C74.9606 54.5022 73.9425 55.8844 73.9425 57.7586V63.6609H72.237V53.2047L72.2285 53.1962Z" fill="white"/>
<path d="M84.684 51.3306H82.9785V49.2529H84.684V51.3306ZM82.9785 53.2047H84.684V63.6185H82.9785V53.2047Z" fill="white"/>
<path d="M89.2064 53.1961H91.2852V54.7056H89.2064V61.1761C89.2064 61.9478 89.41 62.1089 90.5131 62.1089H91.2852V63.6184H89.9785C88.1882 63.6184 87.4925 63.2538 87.4925 61.3372V54.7056H85.7021V53.1961H87.4925V50.0669H89.1979V53.1961H89.2064Z" fill="white"/>
<path d="M101.213 60.3196C100.763 62.6008 99.1 63.8559 96.7751 63.8559C93.4406 63.8559 91.8878 61.5747 91.769 58.3606C91.769 55.2314 93.8054 52.9502 96.6563 52.9502C100.364 52.9502 101.459 56.4102 101.382 58.9288H93.5678C93.5254 60.7605 94.5436 62.3464 96.826 62.3464C98.2515 62.3464 99.2272 61.651 99.5157 60.3111H101.221L101.213 60.3196ZM99.5412 57.4278C99.4563 55.7996 98.2345 54.5021 96.529 54.5021C94.8236 54.5021 93.6781 55.842 93.5593 57.4278H99.5412Z" fill="white"/>
<path d="M112.158 63.61H110.452V62.1853H110.41C109.841 63.3217 108.501 63.8559 107.075 63.8559C103.86 63.8559 102.273 61.3373 102.273 58.3607C102.273 55.3841 103.86 52.9503 107.033 52.9503C108.094 52.9503 109.638 53.3573 110.41 54.5785H110.452V49.2104H112.158V63.61ZM107.313 62.3464C109.595 62.3464 110.486 60.3536 110.486 58.4031C110.486 56.4526 109.553 54.4598 107.186 54.4598C104.818 54.4598 104.055 56.4526 104.055 58.4879C104.097 60.4384 105.115 62.3549 107.313 62.3549V62.3464Z" fill="white"/>
<path d="M120.303 49.2529H122.213V56.4102L129.501 49.2529H131.987L125.92 55.0703L132.233 63.6524H129.832L124.58 56.3254L122.179 58.5642V63.61H120.27V49.2444H120.312L120.303 49.2529Z" fill="white"/>
<path d="M134.914 51.3306H133.209V49.2529H134.914V51.3306ZM133.209 53.2047H134.914V63.6185H133.209V53.2047Z" fill="white"/>
<path d="M137.036 53.1962H138.665V54.8668H138.707C139.437 53.5608 140.616 52.9587 142.084 52.9587C144.808 52.9587 145.665 54.5446 145.665 56.7834V63.6185H143.959V56.5798C143.959 55.3163 143.145 54.5022 141.847 54.5022C139.768 54.5022 138.75 55.8844 138.75 57.7586V63.6609H137.044V53.2047L137.036 53.1962Z" fill="white"/>
<path d="M156.695 62.7197C156.695 66.0948 155.151 67.8418 151.85 67.8418C149.899 67.8418 147.659 67.0701 147.531 64.7889H149.237C149.322 66.0524 150.824 66.4934 151.927 66.4934C154.167 66.4934 155.058 64.8652 155.058 62.5501V61.8547H155.015C154.447 63.1183 153.064 63.7628 151.757 63.7628C148.66 63.7628 147.116 61.3204 147.116 58.4711C147.116 56.0287 148.338 52.9758 151.918 52.9758C153.225 52.9758 154.404 53.544 155.015 54.7228V53.2133H156.644V62.6942H156.687L156.695 62.7197ZM154.99 58.1997C154.99 56.3679 154.175 54.4599 152.02 54.4599C149.865 54.4599 148.923 56.2492 148.923 58.2421C148.923 60.1162 149.619 62.2278 151.85 62.2278C154.167 62.2278 154.981 60.1502 154.981 58.1997H154.99Z" fill="white"/>
<path d="M168.132 63.61H166.427V62.1853H166.385C165.816 63.3217 164.475 63.8559 163.05 63.8559C159.834 63.8559 158.248 61.3373 158.248 58.3607C158.248 55.3841 159.834 52.9503 163.008 52.9503C164.068 52.9503 165.612 53.3573 166.385 54.5785H166.427V49.2104H168.132V63.61ZM163.33 62.3464C165.612 62.3464 166.503 60.3536 166.503 58.4031C166.503 56.4526 165.57 54.4598 163.203 54.4598C160.835 54.4598 160.072 56.4526 160.072 58.4879C160.072 60.4384 161.09 62.3549 163.33 62.3549V62.3464Z" fill="white"/>
<path d="M174.768 52.9502C178.068 52.9502 179.816 55.3501 179.816 58.403C179.816 61.4559 178.068 63.8559 174.768 63.8559C171.467 63.8559 169.719 61.4559 169.719 58.403C169.719 55.3501 171.467 52.9502 174.768 52.9502ZM174.768 62.3464C176.558 62.3464 178.026 60.9217 178.026 58.403C178.026 55.8844 176.558 54.4597 174.768 54.4597C172.977 54.4597 171.51 55.8844 171.51 58.403C171.51 60.9217 172.977 62.3464 174.768 62.3464Z" fill="white"/>
<path d="M181.36 53.1961H182.989V54.7395H183.032C183.804 53.5608 184.983 52.9502 186.409 52.9502C187.673 52.9502 188.852 53.4421 189.26 54.7395C189.956 53.6371 191.211 52.9502 192.518 52.9502C194.597 52.9502 195.98 53.8067 195.98 55.9607V63.6099H194.274V56.7748C194.274 55.4688 193.952 54.4597 192.238 54.4597C190.524 54.4597 189.514 55.5197 189.514 57.1055V63.576H187.809V56.7409C187.809 55.401 187.402 54.4258 185.857 54.4258C183.821 54.4258 183.091 56.2999 183.091 57.0716V63.5421H181.386V53.2046L181.36 53.1961Z" fill="white"/>
<path d="M58.4741 70.4111H60.3832V76.5933H67.9517V70.4111H69.8608V84.7768H67.9517V78.1876H60.3832V84.7768H58.4741V70.4111Z" fill="white"/>
<path d="M76.3011 86.1506C75.5289 88.1859 74.7908 88.9152 73.2889 88.9152C72.8817 88.9152 72.4744 88.8728 72.1095 88.754V87.1682C72.432 87.253 72.7629 87.4141 73.1277 87.4141C73.8235 87.4141 74.2308 87.0919 74.5532 86.4813L75.2489 84.692L71.1338 74.3545H73.0853L76.1398 82.8602H76.1823L79.1095 74.3545H80.9423L76.3011 86.1506Z" fill="white"/>
<path d="M90.7506 84.7684H89.0451V83.3437H89.0027C88.4342 84.4801 87.0936 85.0144 85.6681 85.0144C82.4524 85.0144 80.8657 82.4957 80.8657 79.5191C80.8657 76.5425 82.4524 74.1087 85.6257 74.1087C86.6863 74.1087 88.2306 74.5158 89.0027 75.7369H89.0451V70.3689H90.7506V84.7684ZM85.9481 83.5049C88.2306 83.5049 89.1215 81.512 89.1215 79.5615C89.1215 77.6111 88.1881 75.6182 85.8209 75.6182C83.4536 75.6182 82.69 77.6111 82.69 79.6463C82.69 81.5968 83.7081 83.5134 85.9481 83.5134V83.5049Z" fill="white"/>
<path d="M92.8296 74.3544H94.4587V76.5508H94.5011C95.3157 74.8802 96.495 74.0661 98.3278 74.1085V75.9403C95.5617 75.9403 94.5435 77.5261 94.5435 80.1295V84.7682H92.8381V74.3544H92.8296Z" fill="white"/>
<path d="M103.571 74.1086C106.872 74.1086 108.62 76.5086 108.62 79.5615C108.62 82.6144 106.872 85.0143 103.571 85.0143C100.271 85.0143 98.5229 82.6144 98.5229 79.5615C98.5229 76.5086 100.271 74.1086 103.571 74.1086ZM103.571 83.5048C105.362 83.5048 106.83 82.0801 106.83 79.5615C106.83 77.0428 105.362 75.6181 103.571 75.6181C101.781 75.6181 100.313 77.0428 100.313 79.5615C100.313 82.0801 101.781 83.5048 103.571 83.5048Z" fill="white"/>
<path d="M119.2 83.8779C119.2 87.2531 117.656 89 114.356 89C112.404 89 110.164 88.2283 110.037 85.9471H111.742C111.827 87.2106 113.329 87.6516 114.432 87.6516C116.672 87.6516 117.563 86.0234 117.563 83.7083V83.0129H117.52C116.952 84.2765 115.569 84.921 114.262 84.921C111.165 84.921 109.621 82.4786 109.621 79.6293C109.621 77.1869 110.843 74.134 114.424 74.134C115.73 74.134 116.91 74.7022 117.52 75.881V74.3715H119.15V83.8524H119.192L119.2 83.8779ZM117.529 79.3579C117.529 77.5262 116.714 75.6181 114.559 75.6181C112.404 75.6181 111.462 77.4074 111.462 79.4003C111.462 81.2744 112.158 83.386 114.39 83.386C116.621 83.386 117.52 81.3084 117.52 79.3579H117.529Z" fill="white"/>
<path d="M121.279 74.3544H122.908V76.5508H122.951C123.765 74.8802 124.945 74.0661 126.777 74.1085V75.9403C124.011 75.9403 122.993 77.5261 122.993 80.1295V84.7682H121.288V74.3544H121.279Z" fill="white"/>
<path d="M136.832 84.7259C136.544 84.887 136.136 85.0142 135.61 85.0142C134.711 85.0142 134.142 84.5223 134.142 83.386C133.209 84.4884 131.945 85.0142 130.477 85.0142C128.568 85.0142 127.015 84.1577 127.015 82.0885C127.015 79.731 128.763 79.2391 130.553 78.8745C132.462 78.5098 134.058 78.6285 134.058 77.3311C134.058 75.8216 132.836 75.5841 131.741 75.5841C130.273 75.5841 129.221 76.0336 129.136 77.5346H127.431C127.516 74.9735 129.51 74.0322 131.826 74.0322C133.701 74.0322 135.738 74.4393 135.738 76.8816V82.2496C135.738 83.0637 135.738 83.4284 136.264 83.4284C136.382 83.4284 136.552 83.4284 136.79 83.3436V84.7259H136.832ZM134.066 79.4002C133.413 79.8921 132.115 79.8921 130.969 80.0956C129.824 80.2992 128.89 80.7062 128.89 81.9698C128.89 83.1061 129.866 83.5132 130.927 83.5132C133.167 83.5132 134.1 82.0885 134.1 81.1557V79.4087H134.058L134.066 79.4002Z" fill="white"/>
<path d="M138.054 74.3546H139.759V75.7793H139.802C140.37 74.6429 141.711 74.1086 143.136 74.1086C146.352 74.1086 147.939 76.6273 147.939 79.6039C147.939 82.5805 146.352 85.0143 143.179 85.0143C142.118 85.0143 140.574 84.6072 139.802 83.3861H139.759V88.7541H138.054V74.3546ZM142.899 75.6181C140.616 75.6181 139.725 77.5686 139.725 79.5615C139.725 81.5543 140.659 83.5048 143.026 83.5048C145.393 83.5048 146.157 81.5119 146.157 79.4767C146.114 77.5262 145.139 75.6097 142.899 75.6097V75.6181Z" fill="white"/>
<path d="M149.534 70.4111H151.239V75.9064H151.282C151.85 74.6428 153.318 74.117 154.582 74.117C157.306 74.117 158.163 75.7028 158.163 77.9416V84.7768H156.457V77.7381C156.457 76.4745 155.643 75.6604 154.345 75.6604C152.266 75.6604 151.248 77.0427 151.248 78.9169V84.8191H149.542V70.4196L149.534 70.4111Z" fill="white"/>
<path d="M161.947 72.4805H160.242V70.4028H161.947V72.4805ZM160.242 74.3547H161.947V84.7684H160.242V74.3547Z" fill="white"/>
<path d="M171.229 77.6874C170.983 76.3814 170.05 75.6097 168.667 75.6097C166.181 75.6097 165.409 77.5602 165.409 79.6803C165.409 81.5883 166.266 83.5049 168.463 83.5049C170.135 83.5049 171.111 82.5296 171.314 80.9862H173.062C172.697 83.5049 171.068 85.0144 168.463 85.0144C165.29 85.0144 163.576 82.818 163.576 79.6887C163.576 76.5595 165.205 74.1172 168.497 74.1172C170.856 74.1172 172.731 75.2196 172.977 77.6959H171.229V77.6874Z" fill="white"/>
<path d="M186.536 70.0381C191.092 70.0381 193.417 73.6592 193.417 77.5686C193.417 81.478 191.101 85.0991 186.536 85.0991C181.971 85.0991 179.655 81.478 179.655 77.5686C179.655 73.6592 181.971 70.0381 186.536 70.0381ZM186.536 83.5048C190.04 83.5048 191.5 80.4943 191.5 77.5686C191.5 74.6429 190.032 71.6324 186.536 71.6324C183.04 71.6324 181.572 74.6429 181.572 77.5686C181.572 80.4943 183.04 83.5048 186.536 83.5048Z" fill="white"/>
<path d="M195.98 75.8556H194.232V74.3462H195.98V72.8027C195.98 71.0982 196.998 70.2417 198.873 70.2417C199.196 70.2417 199.645 70.2841 199.976 70.4028V71.9123C199.688 71.8275 199.323 71.7936 199 71.7936C198.186 71.7936 197.694 72.0395 197.694 72.9724V74.4394H199.73V75.9489H197.694V84.8617H195.988V75.8726L195.98 75.8556Z" fill="white"/>
<path d="M202.004 75.8556H200.256V74.3462H202.004V72.8027C202.004 71.0982 203.022 70.2417 204.898 70.2417C205.22 70.2417 205.67 70.2841 206.001 70.4028V71.9123C205.712 71.8275 205.347 71.7936 205.025 71.7936C204.21 71.7936 203.718 72.0395 203.718 72.9724V74.4394H205.755V75.9489H203.718V84.8617H202.013V75.8726L202.004 75.8556Z" fill="white"/>
<path d="M208.673 72.4805H206.968V70.4028H208.673V72.4805ZM206.968 74.3547H208.673V84.7684H206.968V74.3547Z" fill="white"/>
<path d="M217.956 77.6874C217.71 76.3814 216.776 75.6097 215.393 75.6097C212.907 75.6097 212.135 77.5602 212.135 79.6803C212.135 81.5883 212.992 83.5049 215.19 83.5049C216.861 83.5049 217.837 82.5296 218.04 80.9862H219.788C219.423 83.5049 217.794 85.0144 215.19 85.0144C212.016 85.0144 210.302 82.818 210.302 79.6887C210.302 76.5595 211.931 74.1172 215.223 74.1172C217.582 74.1172 219.457 75.2196 219.703 77.6959H217.956V77.6874Z" fill="white"/>
<path d="M230.165 81.4695C229.716 83.7507 228.053 85.0058 225.728 85.0058C222.393 85.0058 220.84 82.7246 220.722 79.5105C220.722 76.3813 222.758 74.1001 225.609 74.1001C229.317 74.1001 230.411 77.5601 230.335 80.0787H222.52C222.478 81.9104 223.496 83.4963 225.779 83.4963C227.204 83.4963 228.18 82.8009 228.468 81.461H230.174L230.165 81.4695ZM228.494 78.5777C228.409 76.9495 227.187 75.652 225.482 75.652C223.776 75.652 222.631 76.9919 222.512 78.5777H228.494Z" fill="white"/>
<path d="M83.7933 31.2323C85.0151 31.8853 84.1581 33.4287 82.0878 33.2676C82.8599 34.2004 81.7654 35.1417 80.1363 34.4039L80.0939 34.1156C81.4005 34.6414 82.5375 34.2004 81.6042 33.2167C81.4854 33.0132 81.4854 32.8945 81.7654 32.8521C83.4369 33.0132 84.2854 32.2415 83.6745 31.6309C83.5557 31.5461 83.3096 31.4698 83.1484 31.385C82.9448 31.2238 82.9872 31.0203 83.2333 30.9355C84.0478 30.7744 84.6163 30.4436 84.8199 30.1214C85.0236 29.7991 84.9048 29.5108 84.2514 29.3921C83.8866 29.3497 84.0054 29.0698 84.3363 28.9002C84.8284 28.2897 84.5399 27.9674 84.1327 28.1285C83.929 28.2133 83.8442 28.1285 83.929 27.925C84.0478 27.6367 83.7678 26.865 83.1993 27.4331C83.1145 27.5943 83.0381 27.5179 82.9957 27.3907C82.6733 26.8226 82.2999 27.0261 82.1387 27.6367C82.0199 27.9589 81.9351 27.7978 81.8502 27.5943C81.6042 26.9413 80.6708 26.7802 80.5096 28.9766C80.5096 29.3836 80.2211 29.426 80.1448 29.1377C79.8224 28.0776 78.7193 28.8494 79.1266 30.3164C79.2114 30.5624 79.0078 31.0882 78.8381 30.5624C78.7957 30.4012 78.7957 30.3164 78.7193 30.2401C78.3969 29.2649 77.0139 30.486 78.3545 32.4789C79.4914 31.9107 80.3908 32.5213 79.8987 33.946C80.0599 34.3531 79.8987 34.7601 79.4914 35.1672C79.6951 35.1248 79.8987 35.1248 80.0599 35.1248C80.306 35.04 80.6284 34.9636 80.9169 34.8364C80.6708 34.9552 80.4248 35.0824 80.1872 35.2011C79.8648 35.7693 79.3727 36.0576 78.8805 36.3035C78.7193 36.5071 77.4975 36.9141 78.4733 37.5671C77.2939 37.3212 76.8018 37.6519 77.0054 38.2201C77.2514 38.466 77.5739 38.6695 78.0236 38.7119C78.4308 38.7119 78.7957 38.5932 79.0417 38.2201C78.9993 38.4236 78.8381 38.6695 78.8805 38.8307C78.8805 39.119 79.0418 39.2801 79.3727 39.3564C79.8224 39.4752 80.306 39.6024 80.7557 39.7211C81.2478 39.8822 81.6551 40.0857 82.1387 40.3317C82.4611 40.5776 82.8345 40.7387 83.1569 40.7387C82.9957 40.8999 82.6648 40.7387 82.2999 40.7811C81.6466 40.8235 81.163 41.2306 80.1872 41.0695C79.4914 40.9083 78.6005 41.273 79.169 42.0447C79.0078 41.9599 78.8805 41.7564 78.7618 41.4765C78.5581 40.7472 78.1933 40.3741 77.1327 40.0942C74.8163 39.526 74.8163 41.926 76.7678 40.9931C76.3605 41.485 76.403 41.9684 77.0563 42.0532C77.2599 42.138 77.4636 42.2567 77.6248 42.3754C77.6248 42.3754 78.1508 42.7401 78.3969 43.1471C78.8042 43.5542 79.4151 43.5542 79.5339 43.5966C79.5339 43.7153 79.2878 43.7577 78.923 43.7153C78.7617 43.6305 78.5581 43.6729 78.5157 43.6729C78.2696 43.7916 77.4551 43.6729 76.9714 43.5118C76.1569 43.2659 75.5884 42.5789 75.2999 42.5789C74.7739 42.5365 74.1969 43.0708 74.1969 43.0708C75.2999 41.0779 72.4066 40.7896 72.2878 42.2991L72.2454 42.791V42.2991C72.2454 40.832 69.2333 41.1203 70.3363 43.1132C70.3363 43.1132 69.7678 42.5874 69.2333 42.6214C68.9448 42.6214 68.4187 43.3507 67.5617 43.5542C67.0696 43.7153 66.2551 43.8425 66.0514 43.7153C66.009 43.7153 65.8054 43.6729 65.6442 43.7153C65.3217 43.8001 65.0333 43.7153 65.0333 43.5966C65.1521 43.5542 65.763 43.5966 66.1702 43.1471C66.4163 42.7401 66.9424 42.3754 66.9424 42.3754C67.1036 42.2567 67.3072 42.1295 67.5108 42.0532C68.1218 41.9684 68.2066 41.485 67.7993 40.9931C69.7508 41.8072 69.7508 39.526 67.3921 40.0942C66.3739 40.3826 65.9666 40.7472 65.8054 41.4765C65.6866 41.7648 65.5593 41.9684 65.3981 42.0447C65.9666 41.273 65.0757 40.9083 64.4224 41.0695C63.4466 41.2306 62.9121 40.8235 62.3096 40.7811C61.9024 40.7387 61.6139 40.9423 61.4102 40.7387C61.7327 40.7387 62.106 40.5776 62.4284 40.3317C62.9205 40.0433 63.3618 39.8822 63.8539 39.6787C64.3036 39.56 64.7872 39.4328 65.2369 39.314C65.5593 39.2292 65.763 39.0681 65.729 38.7883C65.7714 38.6695 65.6102 38.3812 65.5678 38.1777C65.8139 38.5423 66.1787 38.6695 66.586 38.6695C67.0357 38.6271 67.3581 38.4236 67.6042 38.1777C67.8078 37.6095 67.3157 37.3212 66.1787 37.5247C67.1545 36.9141 65.8902 36.5071 65.729 36.3035C65.2369 36.0152 64.7533 35.7354 64.4224 35.2011C64.1763 35.0824 63.9302 34.9552 63.6927 34.8364C63.9811 34.9212 64.2611 35.04 64.5496 35.1248C64.7533 35.0824 65.0417 35.0824 65.3217 35.1672C64.7957 34.7601 64.626 34.3107 64.8721 33.8273C64.4224 32.4026 65.1605 31.8344 66.3399 32.445C67.723 30.5369 66.4587 29.3497 66.0514 30.1299C66.009 30.2147 65.9666 30.3334 65.9327 30.4945C65.6442 31.1051 65.5254 30.4097 65.6102 30.2062C66.0175 28.7391 64.9569 28.0098 64.6345 29.0274C64.5157 29.3158 64.1848 29.2734 64.2696 28.8239C64.0236 26.6699 63.2514 26.8734 62.929 27.3992C62.8102 27.6452 62.683 27.8063 62.6405 27.484C62.3945 26.9582 62.1145 26.6699 61.7836 27.2381C61.6987 27.3992 61.6224 27.3992 61.4951 27.2805C61.0454 27.0346 60.7654 27.077 60.7993 27.8063C60.8417 27.9674 60.7993 28.0522 60.6381 27.9674C60.0696 27.925 59.9424 28.2133 60.4769 28.8663C60.6805 29.0274 60.7654 29.1886 60.4769 29.231C59.8236 29.3497 59.6624 29.6804 59.866 30.0027C60.0696 30.3249 60.6381 30.6133 61.4527 30.7744C61.6987 30.8168 61.7411 31.0627 61.5375 31.1814C61.3763 31.3002 61.1727 31.3426 61.0454 31.4274C60.3157 31.9955 61.1302 32.7672 62.8781 32.6485C63.1666 32.6909 63.2005 32.8096 63.1242 33.0132C62.1908 33.9884 63.3278 34.3955 64.6345 33.9121L64.5496 34.3615C62.5133 34.9297 62.0636 34.0732 62.8017 33.098C60.5617 33.3439 59.7048 31.7581 61.2575 31.1899C59.7896 30.8677 58.6527 29.7652 60.1545 29.1546C59.6624 28.3405 59.6624 27.8487 60.443 27.8487C60.5278 27.1194 60.8078 26.7886 61.546 27.1194C61.8345 26.6275 62.2417 26.6699 62.7678 27.1618C63.7011 26.3477 64.2357 27.0431 64.5581 28.3829C65.2539 27.9335 65.7375 28.4677 66.0684 29.5617C67.0017 28.6289 67.1714 31.5546 67.7399 31.0712C68.0624 30.7489 68.6393 30.7065 68.843 30.8677C68.9618 30.9525 69.089 31.0712 69.1314 31.3171C69.1739 31.6054 69.4539 31.6394 69.6236 31.7242C69.8696 31.8429 70.0733 32.5807 70.2345 32.4196L70.523 31.6054L71.2187 32.3348L71.6684 31.1984L72.3218 32.0973L72.9751 31.2832L73.4672 32.3432L74.1205 31.7751L74.4854 32.7079C74.4854 32.7079 74.6466 32.6231 74.7314 32.5468C74.7739 32.462 74.5702 31.8938 74.9775 31.6903C75.1387 31.6054 75.2999 31.6054 75.4272 31.4867C75.7157 31.0373 75.9957 30.5539 76.5302 30.7913C76.7339 30.9101 77.3448 31.3171 77.4296 30.9525C77.5484 30.503 77.7181 29.85 78.083 29.7737C78.6939 29.655 78.7787 29.8585 78.8127 29.8924C78.7702 28.3066 79.7884 28.1879 80.1957 28.7561C80.4842 27.289 81.0527 26.4749 81.9436 27.3738C82.2321 26.8056 82.7157 26.6784 83.1654 27.2127C83.8951 26.848 84.2684 27.0091 84.3448 27.7045C85.1593 27.7045 85.1593 28.4762 84.8369 29.0868C86.0587 29.6974 85.2017 30.9609 83.8611 31.2408L83.7933 31.2323ZM69.4199 35.6675C70.9302 35.2605 70.3193 33.6322 68.2405 34.0817C69.3011 33.5559 69.9121 32.0888 68.8514 31.9701C68.7666 31.3171 68.3254 31.0373 67.8333 31.6054C67.0187 31.2408 66.5266 32.3772 66.9339 33.6407C65.9157 32.0973 64.329 32.5383 65.1011 34.0902C64.2866 34.8195 66.0769 35.9219 67.2139 34.9891C68.0284 37.1007 69.7763 36.4562 69.4114 35.6845L69.4199 35.6675ZM67.0187 35.9134C67.1799 35.9982 67.3072 36.0322 67.426 36.0746C67.3072 35.7862 67.1375 35.5488 67.0611 35.2605C66.9763 35.3029 66.8999 35.3453 66.7727 35.3792C66.8914 35.5827 66.9763 35.7438 67.0187 35.905V35.9134ZM77.3193 34.811C78.4563 35.7862 80.2466 34.6499 79.4321 33.9545C80.2042 32.4111 78.6175 31.9616 77.5993 33.505C78.0066 32.2415 77.4805 31.1051 76.6999 31.5122C76.2078 30.944 75.7666 31.1899 75.6817 31.8768C74.5787 31.9616 75.2321 33.4202 76.2927 33.9884C74.2563 33.5814 73.603 35.2096 75.1133 35.5742C74.706 36.3459 76.4963 36.9565 77.3108 34.8025L77.3193 34.811ZM77.6842 35.3029C77.5993 35.2605 77.523 35.2181 77.3957 35.1841C77.2769 35.4725 77.1496 35.7523 77.0308 35.9982C77.1921 35.9134 77.3193 35.8795 77.4381 35.8371C77.5569 35.676 77.6417 35.4725 77.6842 35.3113V35.3029ZM72.5933 33.9206L73.2466 32.9029V34.0393L73.9763 33.3439L73.7302 34.2767L74.5448 33.8273L74.7908 32.7672L74.0611 33.2167L74.0187 32.0379L73.2466 32.7333L72.8393 31.6733L72.2708 32.445L71.7024 31.6733L71.2951 32.7333L70.523 32.0803L70.4805 33.2591L69.7508 32.8096L69.9969 33.8697L70.8114 34.3191L70.5654 33.3863L71.2951 34.0817V32.9453L71.9484 33.963L72.2708 32.6994L72.5933 33.9206ZM72.1436 40.8405C72.0248 40.1112 71.8551 39.9077 71.2102 39.984C70.4381 39.9416 69.9036 39.1699 69.6999 38.4745C69.6151 38.2286 69.5811 37.9826 69.5811 37.7028C69.5387 37.2957 69.666 36.9311 69.666 36.5664C68.809 38.1098 67.5872 35.6336 64.7024 35.5064C65.4745 36.2781 66.9424 36.8123 66.6539 37.4144C68.529 37.372 68.0369 39.4497 65.8393 38.9579C65.9242 40.1366 63.5993 39.7296 62.3011 40.7896C62.8272 40.7896 63.2345 41.0779 63.6418 41.0779C64.4563 41.0779 65.1096 40.9592 65.5933 41.3239C66.0005 40.5946 66.4927 40.391 66.8575 40.2214C68.9702 39.2038 70.5654 41.7648 68.1642 41.5274C68.3678 42.4602 67.3072 42.138 66.009 43.639C68.2914 44.0884 68.7751 41.8072 69.9205 42.7062C69.6321 41.0016 71.4648 40.7981 72.203 41.892C72.9327 40.7557 74.8078 40.9931 74.5193 42.7062C75.6563 41.8072 76.1484 44.0884 78.4308 43.639C77.1242 42.1295 76.0721 42.4602 76.2757 41.5274C73.8321 41.8157 75.4611 39.2123 77.5824 40.2214C77.9896 40.3826 78.4817 40.5861 78.8466 41.3239C79.3387 40.9592 79.9836 41.1203 80.7981 41.0779C81.2054 41.0779 81.6127 40.7896 82.1387 40.7896C80.8321 39.7296 78.5157 40.1366 78.6005 38.9579C76.403 39.4497 75.9108 37.372 77.786 37.4144C77.4975 36.8039 78.9654 36.2781 79.6951 35.5064C76.8442 35.6251 75.546 38.1522 74.7314 36.5664C74.7314 36.8887 74.8502 37.2957 74.8163 37.7028L74.6975 38.4745C74.5363 39.1699 73.9678 39.9416 73.1872 39.984C72.5339 39.9416 72.3727 40.1027 72.2539 40.8405C72.2539 40.8829 72.2114 40.9592 72.169 41.0016C72.2114 40.9592 72.169 40.8829 72.169 40.8405H72.1436ZM69.8611 37.2194C69.8187 38.3218 70.226 39.2123 71.0405 39.5769C71.0405 39.5769 70.9981 39.0087 70.9218 38.9239C71.0066 39.0427 71.4139 39.6532 71.4139 39.5345C71.4563 39.331 71.3714 38.9663 71.329 38.7628C71.4139 39.0851 71.8211 39.7381 71.8551 39.6617C71.9739 39.3734 71.8551 38.7628 71.8551 38.6441C72.0587 38.7289 72.2624 39.8229 72.2199 39.7041C72.3811 39.6193 72.5424 38.5678 72.5084 38.6441C72.6272 38.6441 72.5933 39.4582 72.5933 39.7041C72.7545 39.6617 73.1193 38.6017 73.043 38.7289C73.1618 38.8137 73.043 39.3819 73.043 39.5854C73.0854 39.6702 73.4927 38.9748 73.5351 38.9324C73.6199 38.9324 73.289 39.6278 73.3314 39.6278C74.146 39.3056 74.5957 38.2879 74.5957 37.2703C74.6381 35.6845 73.6199 34.3785 72.2369 34.4633C70.9302 34.5057 69.9545 35.7269 69.8781 37.2279L69.8611 37.2194Z" fill="white"/>
<path d="M58.5933 15.3657C57.8212 14.1446 57.6939 12.44 59.1618 13.0506C58.8394 11.9906 59.077 10.3623 60.2224 11.1765C60.5873 10.4047 60.9945 10.0401 61.4867 10.6083C62.0127 10.4471 62.2588 10.6083 62.3436 11.1001C62.8697 11.0577 62.997 11.592 62.666 12.1178C63.523 12.5248 62.9885 13.5849 62.14 14.2294C62.666 14.9247 61.9788 15.8576 60.9182 16.1374C60.8757 15.9763 60.7994 15.8491 60.757 15.7728C61.2067 15.654 62.5473 14.594 61.4527 14.3905C60.8842 14.3905 61.1642 14.187 61.4103 14.0682C62.2248 13.9834 63.2006 12.1602 62.106 12.5248C61.7412 12.6435 61.7836 12.4061 62.1909 12.1178C62.437 11.7955 62.5982 11.4648 62.3097 11.3885C62.106 11.3885 62.0212 11.3461 62.0636 11.1425C62.0636 10.8542 61.9024 10.7355 61.6139 10.8542C61.4103 11.0153 61.4103 10.6931 61.2067 10.6507C60.8418 10.5659 60.6806 10.8966 60.5109 11.2613C60.426 11.6259 60.3497 11.8294 60.1885 11.5072C59.4588 10.6507 59.2127 11.999 59.4163 12.8895C59.5776 13.3813 59.4163 13.4577 59.2127 13.3389C57.8721 12.5672 58.2794 14.4414 58.9242 15.4166C58.8054 15.3742 58.7206 15.3742 58.6018 15.3742L58.5933 15.3657Z" fill="white"/>
<path d="M61.0792 10.2776C60.7144 8.48821 61.4441 8.08116 62.2162 8.57302C62.1313 7.06352 62.9459 6.41902 63.5992 7.35185C63.8877 6.58015 64.4562 6.29182 64.821 6.9872C65.4319 6.9448 65.5931 7.27553 65.5168 7.80131C65.9241 8.00484 66.0089 8.29317 65.6356 8.73414C66.2041 9.34472 65.6356 10.074 64.6598 10.3624C65.1519 11.4987 63.1495 11.787 62.9883 11.7446C63.0307 11.5835 62.9034 11.2952 62.9034 11.2952C63.5992 11.4139 64.8125 10.7694 63.8792 10.2352C63.2259 9.94682 63.9216 9.94682 64.0828 9.94682C65.3047 9.94682 65.7119 9.04791 65.0162 8.92919C64.6089 8.88679 64.6513 8.76806 65.0162 8.64086C65.4234 8.47973 65.6695 8.2338 65.381 8.03028C65.2622 7.91155 65.1774 7.86915 65.2198 7.66562C65.2622 7.30097 65.135 7.17377 64.855 7.21617C64.7362 7.21617 64.6089 7.21617 64.5665 7.05504C64.3204 6.69039 64.0744 6.76671 63.8707 7.37729C63.8283 7.4621 63.5822 7.90307 63.421 7.58082C63.0138 6.68191 62.4028 7.37729 62.4453 8.51365C62.5301 9.00551 62.4453 9.16664 62.1568 8.8359C61.2234 8.1066 61.0962 9.36168 61.3422 10.3793C61.2574 10.2945 61.1386 10.2606 61.0538 10.2606L61.0792 10.2776Z" fill="white"/>
<path d="M60.1376 27.8147C60.0188 27.8571 59.8915 27.8995 59.8152 27.9758C58.2709 27.7299 56.803 26.2713 58.4321 25.5335C56.9218 24.4735 56.9218 22.8877 58.1861 23.0488C57.6176 21.9887 58.0673 21.3442 58.797 21.6241C59.0855 20.9711 59.7303 21.0135 60.0188 21.463C60.5873 21.1407 61.1558 21.7089 61.1218 22.4382C61.9788 22.2347 62.4624 23.1336 61.894 24.3463C62.997 24.2275 63.2006 25.525 62.3437 26.7038C62.14 26.6614 61.9364 26.6614 61.7752 26.7038C62.7933 25.4402 62.4709 24.2191 61.4867 25.0332C61.2406 25.118 61.037 25.0756 61.1218 24.8296C61.7752 24.0155 62.0976 22.0651 60.6721 22.9979C60.4261 23.0827 60.4261 22.7944 60.5533 22.6756C60.8758 22.1075 60.5958 21.4545 60.1037 21.7428C60.0612 21.7852 59.8576 21.7428 59.8576 21.6241C59.7727 21.217 59.1618 21.1322 59.0855 21.7428C59.043 21.9887 58.763 21.8276 58.7206 21.7852C58.1946 21.6241 58.0673 22.1923 58.5594 23.0064C58.6443 23.0912 58.763 23.4558 58.3133 23.2947C56.9303 22.8877 57.7449 24.8042 58.8394 25.33C59.043 25.4148 58.9582 25.6522 58.7546 25.6522C57.2103 26.1441 58.3897 27.5264 60.1376 27.8062V27.8147Z" fill="white"/>
<path d="M58.4746 21.5477C58.3897 21.5477 58.3134 21.5477 58.1861 21.5901C57.0491 20.8184 56.1497 18.5796 57.7788 18.6644C56.9643 17.7316 56.6758 15.9422 58.0673 16.3493C57.9485 15.6539 58.517 15.3316 59.0431 15.5776C59.4503 15.1705 59.7728 15.2553 60.0612 15.7387C60.757 15.62 60.8334 16.1033 60.8334 16.6376C61.9364 16.7987 61.5631 18.2658 60.9946 19.0375C61.9703 19.4022 61.4867 20.7421 60.7485 21.5222C60.6297 21.4374 60.5025 21.4035 60.2988 21.4035C61.0709 20.7081 61.5206 19.2495 60.46 19.4531C60.0528 19.6566 60.0103 19.4106 60.3412 19.0884C60.9097 18.4778 61.4443 16.9768 60.5025 17.1379C60.2988 17.2567 60.214 17.1803 60.2988 16.9344C60.46 16.5698 60.3837 15.9592 60.0103 16.1203C59.8915 16.239 59.7643 16.239 59.7643 15.9592C59.6455 15.6708 59.4758 15.5945 59.1958 15.8404C59.1109 15.9592 58.9922 16.0016 58.9073 15.9252C58.4152 15.7217 58.254 15.9677 58.3812 16.6206C58.4237 16.909 58.3388 16.909 58.1776 16.8242C58.0928 16.7394 57.8891 16.663 57.7703 16.663C57.1594 16.6206 57.2443 17.6383 58.0164 18.6983C58.2625 18.8594 58.22 19.3513 57.8128 19.063C57.0406 18.6559 56.6334 19.9958 58.4661 21.5816L58.4746 21.5477Z" fill="white"/>
<path d="M64.4561 6.49515C64.4561 5.35879 65.3554 4.41748 65.8391 5.39271C66.2039 4.53621 67.307 3.64577 67.5445 4.66341C68.3167 4.01043 69.0548 4.01043 69.0124 4.86694C69.7082 4.90934 69.827 5.35879 69.4197 5.84217C70.1154 6.24922 69.7421 7.06333 68.8512 7.10573C68.9361 7.71632 68.5288 8.03857 67.6294 8.08097C67.6294 8.93748 66.5264 9.0986 65.7203 8.73395C65.8815 8.64915 65.9664 8.4117 66.0088 8.3693C67.1882 8.65763 67.3494 8.16577 66.7809 7.63999C66.6621 7.47887 66.7809 7.43647 66.9845 7.47887C68.0876 7.7672 68.9361 7.43647 68.0451 6.78348C67.9264 6.49515 68.2912 6.62236 68.2488 6.62236C69.3518 6.86829 69.7591 6.30011 69.1482 6.01178C69.0633 6.01178 69.0294 5.89305 69.1058 5.80825C69.5979 5.4436 69.4706 5.03654 68.8173 5.15527C68.6985 5.19767 68.6561 5.15527 68.6985 5.03654C69.1482 4.18003 68.13 4.38356 67.5615 5.07894C67.4427 5.19767 67.3154 5.16375 67.3579 4.99414C67.5615 4.01891 66.5433 4.34116 66.0173 5.80825C65.8985 5.96937 65.7712 5.96937 65.7712 5.80825C65.6524 4.67189 64.753 5.31639 64.753 6.53755C64.6342 6.53755 64.4306 6.49515 64.4645 6.49515H64.4561Z" fill="white"/>
<path d="M78.7869 8.64921C78.7445 8.56441 78.7021 8.48808 78.6257 8.40328C77.93 8.64921 77.0815 8.522 77.6924 7.7927C77.9809 7.63157 77.8112 7.38564 77.5312 7.58917C77.0051 7.8351 75.5372 7.58917 76.4706 6.89379C76.7166 6.77506 76.5554 6.57154 76.3094 6.69026C75.9869 6.89379 74.6803 6.60546 75.376 6.07968C75.6221 6.03728 75.6221 5.91855 75.3336 5.79135C74.8839 5.58782 75.1724 5.01964 75.6221 5.18077C75.8257 5.34189 76.0294 5.18077 75.8257 5.06204C75.4609 4.00201 76.8015 4.69739 76.9627 5.06204C77.0475 5.30797 77.3275 5.26557 77.2512 5.01964C77.1324 3.79848 78.473 5.01964 78.5578 5.71503C78.6003 6.07968 78.9227 6.12208 78.8803 5.75743C79.0839 4.69739 79.8136 5.5115 79.8985 6.48673C79.9833 6.40193 80.0597 6.36801 80.2633 6.32561C80.1445 5.39278 79.4488 4.29034 78.6766 5.10445C78.3118 4.08681 77.1663 3.67976 76.8863 4.45146C76.2754 3.75608 75.1809 4.12921 75.5033 4.90092C75.0112 4.78219 74.6463 5.5539 75.1385 5.87615C74.3663 6.48673 75.3421 7.13972 75.953 6.93619C75.5457 7.66549 76.6827 8.07255 77.2597 7.7927C77.0136 9.13259 78.5239 8.64921 78.8039 8.64921H78.7869Z" fill="white"/>
<path d="M81.5957 11.575C81.5957 11.4902 81.6381 11.4139 81.7145 11.3291C80.5351 11.2867 79.6781 10.8796 80.7387 10.2267C80.8575 10.2267 81.1036 9.98074 80.62 9.98074C79.8054 10.1843 78.4224 9.25143 79.6018 8.9207C79.8903 8.9207 79.8478 8.67477 79.5594 8.67477C79.3981 8.7935 78.8297 8.35252 79.1097 8.06419C79.1097 8.02179 79.3981 7.90307 79.2284 7.65714C79.0672 6.88543 80.0006 7.45361 79.9242 7.04656C79.9242 7.04656 80.2466 6.31725 80.6963 7.53841C80.7812 7.58081 81.0187 7.98787 81.1036 7.58082C81.3072 6.76671 82.3254 7.41969 82.0369 8.68325C81.9521 9.09031 82.0369 9.13271 82.283 8.88678C83.3436 8.15748 83.3436 9.37864 83.14 10.1927C83.2587 10.1503 83.386 10.1503 83.5472 10.1927C83.8357 8.92918 83.4284 7.87763 82.4442 8.361C82.4866 7.22464 81.6297 6.24941 80.9339 7.13984C80.7727 6.57166 80.0345 6.0374 79.6697 6.97871C79.0163 6.97871 78.94 7.42817 79.0587 7.83522C78.609 8.12355 78.8127 8.64933 79.1436 8.76806C78.3715 9.42104 79.5509 10.2351 80.2466 10.1927C79.6781 11.2952 80.5351 11.4987 81.5872 11.575H81.5957Z" fill="white"/>
<path d="M83.7509 16.0526C83.7509 16.0526 83.8358 15.9339 83.8697 15.8915C83.1739 15.6456 81.9606 14.6703 83.0976 14.4244C83.4624 14.4668 83.4624 14.1785 83.0976 14.1361C82.4442 14.1361 81.1885 12.3467 82.283 12.5503C82.6054 12.7962 82.6903 12.5079 82.3679 12.2619C82.0454 12.1008 81.757 11.363 82.1642 11.363C82.2491 11.4478 82.4867 11.3206 82.3679 11.2019C82.3254 11.0408 82.5291 10.7524 82.7751 10.8796C82.9364 10.9984 83.0636 10.9644 83.0976 10.7948C83.4624 10.3454 83.8697 10.9136 83.9121 11.3206C84.0309 11.7277 84.1158 11.7701 84.277 11.4393C85.0915 10.7864 85.2103 11.6853 85.0067 12.864C84.8454 13.4322 85.0067 13.4746 85.3291 13.2711C86.8394 12.7453 85.8551 14.8145 85.5751 15.3488H85.9824C86.3048 14.823 87.2467 12.4994 85.4564 12.8301C85.5751 11.4478 85.2527 10.4726 84.1921 11.0408C84.0309 10.4302 83.2927 9.90441 82.8091 10.6761C82.563 10.4302 81.9521 10.7609 82.037 11.168C81.5109 11.2104 81.5448 11.9397 81.9521 12.3043C80.8151 12.5503 82.2406 14.1785 82.6479 14.2548C81.7145 14.577 83.0127 15.9593 83.7509 16.0441V16.0526Z" fill="white"/>
<path d="M84.2767 21.5053C83.5809 20.8947 82.8936 19.3089 84.1155 19.5124C84.4039 19.6312 84.4803 19.5124 84.2767 19.2241C83.827 18.9019 82.8936 16.9853 83.9543 17.1464C84.073 17.3076 84.4039 17.1888 84.1579 16.8581C83.9967 16.5698 84.1155 15.9592 84.4464 16.1288C84.6076 16.2136 84.6924 16.1712 84.6924 16.0101C84.7773 15.6878 84.9809 15.6454 85.2609 15.7641C85.3797 15.9677 85.5494 15.9677 85.6682 15.8489C86.1943 15.7641 86.1943 16.1373 86.1603 16.5443C86.0415 16.9514 86.2027 16.8666 86.4064 16.7479C87.467 16.3832 87.3058 17.6044 86.5676 18.5796C86.2452 19.0291 86.2452 19.3089 86.7712 19.0291C88.0355 18.9867 87.0936 20.7336 86.2452 21.4714C86.61 21.5138 86.5336 21.5901 86.6949 21.6325C87.467 21.1831 88.604 18.7831 87.1446 18.5796C87.6367 17.7231 88.1203 16.1373 86.5336 16.2221C86.4912 15.6539 86.2452 15.3656 85.473 15.6539C84.947 15.2468 84.6585 15.4504 84.4973 15.8998C83.9288 15.815 83.7676 16.1458 83.9288 16.9175C82.8258 16.6715 83.0718 18.3422 83.9288 19.2326C82.5033 19.3513 83.4367 21.1067 84.0136 21.5477C84.1324 21.4629 84.1749 21.4629 84.3021 21.5053H84.2767Z" fill="white"/>
<path d="M82.6475 26.7546C82.6475 26.7546 82.2827 26.7546 82.3251 26.7546C81.4257 25.05 81.7991 24.397 82.8936 24.7193C82.2827 23.0487 82.7324 22.4805 83.7082 22.8112C83.5045 21.7936 83.8694 21.5053 84.5227 21.7088C84.8875 21.0982 85.3797 21.1406 85.7021 21.7088C87.0088 21.3865 86.8815 22.2346 86.5166 23.1335C88.1457 23.2522 87.3736 24.643 86.4318 25.5758C88.0609 26.5934 86.1094 28.0944 84.9639 28.2216C85.0488 28.2216 84.8027 27.8146 84.7179 27.8146C85.6936 27.6535 87.4075 26.2288 85.8548 25.8641C85.5663 25.8217 85.5324 25.703 85.8124 25.4995C86.7882 24.8889 87.6451 23.2183 86.2197 23.5914C86.0585 23.6338 85.77 23.6762 86.016 23.2692C86.3385 22.8197 86.6269 21.8445 85.77 22.0904C85.6851 22.1328 85.5239 22.1752 85.4815 21.9293C85.2779 21.5646 85.0318 21.4798 84.7518 21.8445C84.7094 22.048 84.5906 22.0904 84.4294 21.9632C83.776 21.7597 83.8609 22.2854 83.9033 22.7773C84.1918 23.2268 83.9882 23.3879 83.6572 23.1419C82.7579 22.7773 82.5203 23.3455 83.2075 24.8465C83.4536 25.2111 83.496 25.4995 83.0039 25.2111C82.1894 24.4818 81.6209 25.0924 82.6391 26.7546H82.6475Z" fill="white"/>
<path d="M64.7786 32.6147C64.575 32.4535 64.3713 32.2924 64.2101 32.1228C63.438 32.2415 62.7847 32.2839 61.9701 32.2839C61.8089 32.3263 61.8089 32.1991 61.9701 32.1991C62.1738 32.1991 64.0489 32.038 64.0489 31.9956C64.0489 31.9956 62.6659 30.6557 62.7083 30.6133C62.7083 30.6557 60.8756 30.325 60.7992 30.2911C60.5532 30.2487 60.638 30.1723 60.7992 30.2062C60.8841 30.2487 62.5047 30.4946 62.5047 30.4522L61.6901 29.231C61.6901 29.231 60.7144 28.9088 60.7144 28.8664C60.5956 28.824 60.6295 28.7476 60.7568 28.824C60.7568 28.824 61.6138 29.1123 61.6138 29.0699L61.1641 28.0523C61.0792 27.9335 61.1641 27.8911 61.2489 28.0099C61.2489 28.0947 61.9022 29.3497 61.9447 29.3158C61.9871 29.3158 62.0635 27.8063 62.0295 27.8063C62.0295 27.6876 62.0719 27.6876 62.1144 27.8063C62.1568 27.8063 62.1144 29.5109 62.1144 29.5109C62.0719 29.5533 63.0138 30.732 63.0901 30.6896C63.1325 30.6896 63.4974 28.4508 63.455 28.4508C63.455 28.366 63.5398 28.4084 63.5398 28.4932C63.5822 28.4084 63.2938 30.732 63.2174 30.8508C63.2174 30.8932 64.6004 32.1906 64.6429 32.1567C64.6004 32.1567 64.9313 29.7568 64.9313 29.672C64.9738 29.5109 65.0501 29.5109 65.0162 29.672C64.8974 30.5285 64.8126 31.3426 64.8126 32.233L65.101 32.479C64.8974 32.479 64.855 32.5214 64.8126 32.5977L64.7786 32.6147Z" fill="white"/>
<path d="M63.2766 33.7084C63.6839 33.5049 64.0063 33.3861 64.4136 33.1826V33.3013C64.0063 33.4625 63.6839 33.6236 63.3106 33.7932C63.1918 33.8356 63.1069 33.7508 63.2681 33.7084H63.2766Z" fill="white"/>
<path d="M66.0428 31.0287C66.0711 30.9722 66.0994 30.9722 66.1277 31.0287C66.0089 31.4358 65.8816 31.8428 65.8053 32.2499H65.644C65.7628 31.8428 65.9325 31.4358 66.0513 31.0287H66.0428Z" fill="white"/>
<path d="M60.6297 27.0768C60.6297 27.0768 60.5449 26.9581 60.5449 26.9157C60.0527 26.7969 59.5691 26.6697 59.0346 26.6273C58.7121 26.6273 58.8309 26.5425 59.0346 26.5425C59.1958 26.5849 60.4176 26.7037 60.4176 26.7037C60.4176 26.7037 59.7643 25.1602 59.7643 25.1178C59.3994 25.033 58.4576 24.3461 58.4576 24.3461C58.254 24.2274 58.2964 24.1426 58.4576 24.2613C58.4576 24.2613 59.5946 24.8719 59.637 24.8719C59.5521 24.6684 59.2721 23.2013 59.2721 23.2013L58.7037 22.6755C58.5424 22.5568 58.5849 22.472 58.7461 22.5907L59.2721 22.9978V22.0649C59.2721 21.9038 59.357 21.9038 59.357 22.0649C59.357 22.1073 59.357 23.3709 59.4418 23.3285L60.0527 22.5144C60.214 22.2685 60.2564 22.3109 60.0952 22.5568C60.0952 22.5568 59.4843 23.532 59.4843 23.4896C59.4418 23.4896 59.934 25.1942 59.9764 25.1942C59.9764 25.1942 60.9521 23.8543 60.9097 23.8119C61.1133 23.5235 61.0285 23.7695 60.9946 23.8967C60.7061 24.3885 60.4261 24.8719 60.0612 25.3638C59.9764 25.4062 60.7909 26.8733 60.7909 26.8733C61.037 26.5086 61.283 26.144 61.6055 25.8132C61.8091 25.6521 61.6903 25.8132 61.6903 25.898C61.3679 26.2203 61.1218 26.6273 60.8758 27.0344C60.757 27.0344 60.6721 27.0344 60.6297 27.0768Z" fill="white"/>
<path d="M59.2042 21.0984C59.2042 20.9373 59.1618 20.7761 59.1618 20.6065C58.8393 20.3182 58.466 20.0807 58.0587 19.8348C57.9739 19.7924 58.0163 19.7161 58.0587 19.75L59.1193 20.403L59.0345 18.5713C59.0345 18.5713 58.0587 17.6384 58.0587 17.596C57.9399 17.4773 58.0163 17.4349 58.1011 17.5536C58.1011 17.5536 59.0005 18.4101 59.0345 18.3677C59.0345 18.3677 59.1193 16.9854 59.1533 16.9854C59.1533 16.9854 58.6272 16.2901 58.6272 16.2561C58.5424 16.1374 58.6272 16.095 58.6696 16.2137C58.6696 16.2137 59.1193 16.8243 59.1618 16.7819C59.2042 16.4936 59.2466 16.2137 59.323 15.883C59.323 15.7643 59.4078 15.7982 59.3654 15.883C59.323 16.2901 59.2466 16.6971 59.2042 17.1042C59.4927 16.943 59.6963 16.6971 59.8999 16.4512C60.0187 16.3325 60.0611 16.3664 59.9424 16.536C59.6963 16.8243 59.4502 17.1042 59.1702 17.3501C59.1702 17.7995 59.1278 18.2829 59.1278 18.7748C59.6199 18.4101 60.3072 17.8419 60.3072 17.8419C60.5957 17.596 60.4684 17.8419 60.3496 17.9267C59.9848 18.2914 59.5775 18.6561 59.1278 18.9868C59.1278 19.6398 59.1702 20.2079 59.289 20.8609C59.6114 20.615 59.9424 20.4115 60.3072 20.2079C60.5108 20.0892 60.4684 20.2079 60.3072 20.2928C59.9424 20.4963 59.6114 20.7422 59.289 21.0221V21.0645C59.289 21.0645 59.2466 21.1069 59.2042 21.1069V21.0984Z" fill="white"/>
<path d="M59.5689 15.2384C59.6114 15.1197 59.6538 15.0349 59.6877 14.9162C59.4417 14.5939 59.1956 14.3056 58.958 13.9833C58.8392 13.8646 58.8732 13.7798 59.0004 13.9409L59.7301 14.7551C59.8914 14.3056 60.095 13.8561 60.2562 13.4152C60.095 13.0929 59.8914 12.7622 59.7301 12.4399C59.6114 12.3212 59.7301 12.2788 59.7726 12.3975C59.9762 12.6859 60.1798 12.9657 60.3411 13.254C60.5871 12.847 60.7907 12.3975 61.0368 11.9481C60.9944 11.787 60.952 11.5834 60.918 11.3799C60.8756 11.2188 60.918 11.2188 60.9604 11.3799C61.0029 11.541 61.0792 11.7021 61.0792 11.8718C61.2404 11.6682 61.4017 11.4223 61.5714 11.2188C61.6901 11.1 61.6562 11.2188 61.6138 11.3036C61.4526 11.5495 61.2489 11.8294 61.0453 12.0753C61.3338 12.0329 61.6138 11.9566 61.8598 11.9142C62.2247 11.7954 61.9447 12.0329 61.8598 11.999C61.5714 12.0838 61.2489 12.1601 60.9265 12.2025C60.6804 12.6519 60.4768 13.1353 60.2307 13.5848C60.7229 13.5424 61.2914 13.4236 61.775 13.2625C61.9362 13.2201 61.9786 13.3049 61.775 13.3473C61.2829 13.5085 60.672 13.6696 60.1459 13.712C59.9847 14.2038 59.7811 14.6872 59.6538 15.1791C60.0186 15.0943 60.3835 15.0179 60.7907 15.0179C60.9095 14.9755 61.1556 15.0603 60.7907 15.1027C60.4259 15.1875 60.0186 15.2639 59.6877 15.3911C59.6877 15.3063 59.6453 15.2724 59.5689 15.2724V15.2384Z" fill="white"/>
<path d="M62.1315 10.5233C62.2163 10.4385 62.2503 10.3621 62.2927 10.3197C62.1739 9.99749 62.0466 9.70916 61.8854 9.38691C61.8006 9.26818 61.8854 9.22578 61.9279 9.3445C61.9279 9.3445 62.3775 10.1586 62.3351 10.1586C62.6575 9.75156 62.9885 9.38691 63.3109 8.97985C63.1921 8.69152 63.0648 8.36927 62.946 8.04702C62.9036 7.84349 63.0309 8.00462 63.0309 8.00462C63.1497 8.29295 63.2769 8.5728 63.4382 8.86113C63.7266 8.5728 64.0066 8.33535 64.2951 8.04702V7.39404C64.2951 7.23291 64.3375 7.23291 64.38 7.39404C64.4224 7.55516 64.4648 7.75869 64.4648 7.91982C64.626 7.80109 64.7872 7.63149 64.9569 7.51276C65.0418 7.42796 65.0757 7.47036 64.9994 7.55516C64.7957 7.71629 64.5921 7.91982 64.3885 8.12334C64.5921 8.12334 64.7957 8.16574 64.9569 8.16574C65.1606 8.16574 65.1606 8.28447 64.9569 8.25055H64.2612L63.3278 9.18338C63.6163 9.22578 64.1 9.26818 64.3885 9.26818C64.5497 9.26818 64.5072 9.35299 64.3885 9.35299C64.0236 9.31058 63.5315 9.31058 63.2091 9.31058C62.9206 9.67524 62.5982 10.0823 62.3097 10.4469C62.6321 10.5317 62.963 10.5317 63.243 10.5657C63.5315 10.5657 63.5315 10.6505 63.2854 10.6505C63.2854 10.6929 62.2248 10.6081 62.2248 10.5657C62.2248 10.6081 62.1824 10.5657 62.14 10.5233H62.1315Z" fill="white"/>
<path d="M65.4741 7.02095C65.839 6.81742 66.2038 6.5715 66.5772 6.36797C66.6196 6.00332 66.662 5.63866 66.6959 5.26553C66.6959 5.1044 66.7808 5.22313 66.7808 5.26553C66.7808 5.58778 66.7808 5.91851 66.7384 6.28317C67.1456 6.03724 67.5953 5.87611 68.0026 5.67258C68.0875 5.46906 68.1638 5.22313 68.2062 5.0196C68.2911 4.85848 68.325 4.90088 68.2911 5.0196C68.2487 5.18073 68.2062 5.38425 68.1723 5.58778C68.3335 5.54538 68.5372 5.46906 68.6984 5.42666C68.8596 5.38425 68.8596 5.42666 68.6984 5.51146C68.4523 5.59626 68.1723 5.67258 67.9262 5.75739C68.1299 5.91851 68.3759 6.00332 68.622 6.07964C68.7408 6.16444 68.7408 6.19836 68.5796 6.16444C68.2911 6.07964 68.0111 5.96091 67.7226 5.87611C67.3153 6.03724 66.9081 6.24076 66.5432 6.48669C66.7893 6.73262 67.0693 6.93615 67.3578 7.09727C67.519 7.18208 67.4765 7.2584 67.3153 7.18208C67.3153 7.18208 66.382 6.6563 66.382 6.6139C66.0935 6.77502 65.8135 6.97855 65.525 7.18208C65.5675 7.09727 65.525 7.06335 65.4826 7.02095H65.4741Z" fill="white"/>
<path d="M65.1096 6.90223C65.1096 6.90223 65.1944 6.94463 65.2283 6.94463C65.2283 6.6987 65.1859 6.41885 65.1859 6.17292C65.1859 6.0542 65.1011 6.0118 65.1011 6.17292V6.90223H65.1096Z" fill="white"/>
<path d="M65.6782 7.38568V7.5044C65.9243 7.66553 66.1279 7.79273 66.374 7.95386C66.4928 7.99626 66.4928 7.91146 66.374 7.86905C66.1279 7.70793 65.8819 7.5468 65.6782 7.3772V7.38568Z" fill="white"/>
<path d="M79.6779 32.5722C79.8815 32.411 80.0851 32.2499 80.2888 32.0803C81.0609 32.199 81.7142 32.2414 82.4864 32.2414C82.6476 32.2838 82.69 32.1227 82.4864 32.1566C82.2827 32.1566 80.4076 31.9955 80.4076 31.9531C80.4076 31.9531 81.7482 30.6132 81.7482 30.5708C81.7482 30.6132 83.5809 30.2825 83.6233 30.2486C83.8694 30.2062 83.7845 30.1298 83.6233 30.1638C83.5809 30.2062 81.9179 30.4521 81.9179 30.4097L82.7748 29.1885C82.7748 29.1885 83.7506 28.8663 83.7506 28.8239C83.8694 28.7815 83.8355 28.7051 83.7082 28.7391L82.8512 29.0274L83.3433 28.0098C83.3858 27.8486 83.3433 27.8486 83.2585 27.9674C83.2585 28.0522 82.5627 29.3072 82.5627 29.2733C82.5203 29.2733 82.4439 27.7299 82.4779 27.7299C82.4779 27.6112 82.4355 27.6112 82.393 27.7299V29.4344C82.393 29.4344 81.4936 30.6556 81.4597 30.6132C81.4173 30.6132 81.0524 28.3744 81.0948 28.332C81.0948 28.2472 81.01 28.2896 81.01 28.3744C80.9676 28.2896 81.2985 30.6132 81.3324 30.7319C81.3324 30.7743 79.9494 32.0718 79.907 32.0379C79.9918 32.0379 79.6185 29.638 79.6185 29.5532C79.5761 29.392 79.5336 29.392 79.5336 29.5532C79.6524 30.4097 79.7373 31.2238 79.7797 32.1142L79.4912 32.3602C79.5761 32.445 79.6524 32.4789 79.6524 32.5637L79.6779 32.5722Z" fill="white"/>
<path d="M81.1882 33.6662C80.781 33.4626 80.4585 33.3439 80.0513 33.1404V33.3015C80.4585 33.4626 80.781 33.5898 81.1543 33.7934C81.2731 33.8358 81.3579 33.7086 81.1967 33.6746L81.1882 33.6662Z" fill="white"/>
<path d="M78.414 31.0287C78.3857 30.9722 78.3574 30.9722 78.3291 31.0287C78.4479 31.4358 78.5752 31.8428 78.6515 32.2499H78.8127C78.6515 31.8428 78.5243 31.4358 78.4055 31.0287H78.414Z" fill="white"/>
<path d="M83.912 27.0006C83.912 27.0006 83.9544 26.8819 83.9968 26.8395C84.489 26.7208 84.9726 26.5936 85.5071 26.5512C85.8296 26.5512 85.7108 26.4664 85.5071 26.4664C85.3035 26.4664 84.0817 26.6275 84.1241 26.6275C84.1241 26.6275 84.7774 25.0841 84.7774 25.0417C85.1423 24.9569 86.0417 24.27 86.0417 24.27C86.2453 24.1512 86.2029 24.1088 86.0417 24.2276L84.9047 24.8381C84.9896 24.6346 85.2696 23.1675 85.2696 23.1675L85.838 22.5993C85.9993 22.4806 85.9568 22.3958 85.7956 22.5145L85.2696 22.9216V21.9888C85.2696 21.8276 85.1847 21.8276 85.1847 21.9888C85.2271 22.0312 85.1847 23.2947 85.0999 23.2523L84.489 22.4382C84.3702 22.1923 84.2853 22.2347 84.4465 22.523C84.4041 22.523 85.0574 23.4983 85.0574 23.4559C85.1423 23.4983 84.6077 25.1604 84.5653 25.1265C84.5653 25.1689 83.632 23.7866 83.632 23.7442C83.4283 23.4559 83.5132 23.7018 83.5896 23.829C83.878 24.3208 84.158 24.8042 84.5229 25.2961C84.6077 25.3385 83.8271 26.8056 83.8271 26.8056C83.5811 26.4409 83.3011 26.0763 83.0126 25.7455C82.8514 25.5844 82.9277 25.7455 82.9277 25.8303C83.2502 26.1526 83.4962 26.5596 83.7423 26.9667C83.7847 26.9667 83.8611 26.9667 83.9035 27.0091L83.912 27.0006Z" fill="white"/>
<path d="M85.3797 21.183C85.3797 21.0219 85.4221 20.8608 85.4221 20.6912C85.787 20.4028 86.1179 20.1654 86.5252 19.9195C86.61 19.8347 86.5676 19.7583 86.5252 19.8347L85.4645 20.4876L85.5494 18.6559C85.5494 18.6559 86.5252 17.7231 86.5252 17.6807C86.6439 17.5619 86.5676 17.5195 86.4827 17.5959C86.4827 17.6383 85.5833 18.4524 85.5494 18.41C85.5494 18.41 85.4646 17.0277 85.4306 17.0277C85.4306 17.0701 85.9567 16.3323 85.9567 16.3323C86.0415 16.2136 85.9567 16.1712 85.9142 16.2899C85.9142 16.2899 85.4645 16.9005 85.4221 16.8581C85.3797 16.5698 85.3373 16.2475 85.2609 15.9592C85.2609 15.8404 85.1761 15.8744 85.2185 15.9592C85.2609 16.3662 85.3373 16.7733 85.3797 17.1803C85.0912 16.9768 84.8876 16.7733 84.6839 16.5273C84.5652 16.4086 84.5227 16.4425 84.6415 16.5698C84.8876 16.892 85.1336 17.1379 85.4561 17.3839C85.4561 17.8757 85.4561 18.3591 85.4985 18.8085C85.0064 18.4439 84.3191 17.8757 84.3191 17.8757C84.0306 17.5874 84.1579 17.8757 84.2767 17.9605C84.6415 18.3252 85.0488 18.6898 85.4985 19.0206C85.4985 19.6311 85.4561 20.2841 85.3797 20.8947C85.0573 20.6488 84.7264 20.4452 84.3615 20.2841C84.1579 20.1993 84.2003 20.2841 84.3615 20.3689C84.7264 20.5724 85.0573 20.8184 85.3797 21.0982V21.1406C85.2949 21.1406 85.3373 21.1406 85.3797 21.183Z" fill="white"/>
<path d="M85.0151 15.2384C85.0151 15.1536 84.9726 15.0349 84.8963 14.9501C85.1423 14.6278 85.3884 14.2971 85.626 14.0172C85.7872 13.8561 85.7108 13.8137 85.5836 13.9748L84.8539 14.789C84.6926 14.3395 84.489 13.89 84.3278 13.4491C84.5314 13.1268 84.6926 12.7961 84.8963 12.4738C85.0151 12.3551 84.8963 12.3127 84.8539 12.4314C84.6926 12.7198 84.489 12.9996 84.2854 13.2455C84.0393 12.8385 83.8357 12.389 83.5896 11.9396C83.632 11.7785 83.6745 11.5749 83.7084 11.4138C83.7508 11.2527 83.7084 11.2527 83.666 11.3714C83.6235 11.5325 83.5472 11.6936 83.5048 11.8633C83.3435 11.6597 83.1823 11.4138 83.0126 11.2103C82.8939 11.0491 82.9278 11.2103 82.9702 11.2527C83.1314 11.4986 83.3351 11.7785 83.4963 12.0244C83.2078 11.982 82.9702 11.9396 82.6817 11.8633C82.3169 11.7785 82.5969 11.982 82.6817 11.982C82.9702 12.0668 83.2926 12.1431 83.6151 12.1855C83.8611 12.635 84.0648 13.1183 84.3108 13.5678C83.8187 13.5254 83.2502 13.4067 82.7666 13.2455C82.6054 13.2031 82.5629 13.2455 82.7666 13.2879C83.2587 13.4491 83.8272 13.6102 84.3957 13.6526C84.5569 14.1445 84.7605 14.6278 84.8878 15.1197C84.5229 15.0349 84.1581 14.9586 83.7508 14.9586C83.632 14.9162 83.386 15.0434 83.7508 15.0434C84.1157 15.1282 84.5229 15.2045 84.8539 15.3317C84.8963 15.2893 84.9387 15.2893 85.0151 15.2469V15.2384Z" fill="white"/>
<path d="M82.4865 10.5574C82.4017 10.4726 82.3678 10.3962 82.3253 10.3538C82.4441 10.0316 82.5714 9.70086 82.7326 9.42101C82.8174 9.30228 82.7326 9.25988 82.6902 9.37861C82.6902 9.37861 82.2405 10.1927 82.2829 10.1927C81.9605 9.82806 81.6296 9.42101 81.3071 9.01395C81.4259 8.72562 81.5532 8.40337 81.672 8.08112C81.7144 7.87759 81.5871 7.99632 81.6296 8.03872C81.4684 8.32705 81.3411 8.6069 81.2223 8.89523C80.9338 8.6069 80.6538 8.32705 80.3653 8.08112V7.38574C80.3653 7.22461 80.3229 7.22461 80.2805 7.38574C80.2381 7.54686 80.1956 7.75039 80.1956 7.95392C80.0344 7.83519 79.8732 7.66559 79.7035 7.54686C79.6187 7.46206 79.5847 7.50446 79.6611 7.58926C79.8647 7.79279 80.0684 7.95392 80.272 8.15744C80.0684 8.15744 79.8647 8.24225 79.7035 8.24225C79.4999 8.19984 79.4999 8.32705 79.7035 8.32705C79.9496 8.32705 80.1956 8.32705 80.3993 8.28465C80.7217 8.6069 81.0102 8.93763 81.3326 9.25988C81.0441 9.30228 80.5605 9.34468 80.272 9.34468C80.1108 9.34468 80.1532 9.38709 80.272 9.42949C80.6368 9.42949 81.0865 9.42949 81.4514 9.38709C81.7399 9.79414 82.0199 10.1588 82.3508 10.5658C82.0284 10.6506 81.6974 10.6506 81.375 10.6846C81.129 10.6846 81.0865 10.7694 81.3326 10.8033L82.3932 10.7185C82.3508 10.6337 82.3932 10.5998 82.4781 10.5574H82.4865Z" fill="white"/>
<path d="M79.0669 7.06329C78.702 6.81736 78.3372 6.61384 77.9639 6.36791C77.9214 6.00326 77.879 5.6386 77.8451 5.26547C77.8451 5.10435 77.7602 5.22307 77.7602 5.26547C77.7602 5.58772 77.7602 5.96085 77.8026 6.28311C77.3954 6.03718 76.9881 5.87605 76.5384 5.67252C76.496 5.469 76.4196 5.26547 76.3772 5.06194C76.3348 4.94322 76.2584 4.94322 76.2923 5.06194C76.3348 5.26547 76.3772 5.469 76.4111 5.63012C76.2499 5.58772 76.0463 5.5114 75.8851 5.469C75.7239 5.4266 75.7239 5.469 75.8851 5.5538C76.1736 5.6386 76.4111 5.71493 76.6572 5.79973C76.4536 5.96085 76.2075 6.04566 75.9614 6.12198C75.8426 6.20678 75.8426 6.2407 76.0039 6.20678C76.2923 6.12198 76.5723 6.04566 76.9032 5.91845C77.3105 6.07958 77.7178 6.28311 78.0826 6.52903C77.8366 6.77496 77.5566 6.97849 77.2681 7.13962C77.1069 7.22442 77.1493 7.30074 77.3105 7.22442C77.3105 7.26682 78.2439 6.69864 78.2439 6.65624C78.5323 6.81736 78.8123 7.06329 79.1008 7.22442C79.016 7.13962 79.0584 7.10569 79.0584 7.06329H79.0669Z" fill="white"/>
<path d="M79.4743 6.93628C79.4743 6.93628 79.3894 6.93628 79.3555 6.97868C79.3555 6.69035 79.3979 6.4529 79.3979 6.20697C79.3979 6.12217 79.4827 6.08825 79.4827 6.20697C79.4827 6.4529 79.4827 6.69883 79.4827 6.93628H79.4743Z" fill="white"/>
<path d="M78.9059 7.42816V7.54688C78.6599 7.70801 78.4562 7.83521 78.2102 7.99634C78.0914 8.08114 78.0914 7.99634 78.2102 7.91153C78.4562 7.75041 78.6599 7.58928 78.9059 7.41968V7.42816Z" fill="white"/>
<path d="M70.5229 35.8624C70.6842 35.7012 70.8114 35.5401 70.8878 35.2942V35.7012C70.769 35.7436 70.6417 35.82 70.5229 35.8624Z" fill="white"/>
<path d="M71.2526 35.0568C71.4138 34.8957 71.5411 34.7345 71.6175 34.531C71.6175 34.6921 71.5326 34.8533 71.5326 34.9805C71.4138 35.0229 71.3714 35.0229 71.2441 35.0653L71.2526 35.0568Z" fill="white"/>
<path d="M70.6841 35.2942C70.8453 35.1331 70.9726 34.972 71.1338 34.8024C71.1338 34.8024 71.2186 34.6836 71.2186 34.76C71.2186 34.8787 70.9301 35.0822 70.9301 35.2094C70.8114 35.2094 70.8114 35.2518 70.6841 35.2942Z" fill="white"/>
<path d="M70.0308 36.1508C70.1495 35.9897 70.3192 35.7861 70.438 35.625C70.438 35.7437 70.3192 35.8709 70.2768 35.9896C70.158 36.0321 70.1156 36.1084 70.0308 36.1508Z" fill="white"/>
<path d="M70.3955 36.6427C70.5567 36.4816 70.684 36.1933 70.8028 35.9897C70.8028 36.1509 70.8876 36.3544 70.8876 36.4816C70.7688 36.524 70.5228 36.6003 70.3955 36.6427Z" fill="white"/>
<path d="M69.8696 37.0836C70.0733 36.7953 70.0308 36.5918 70.1581 36.4307C70.1581 36.5918 70.2005 36.6766 70.2005 36.8377C70.0818 36.8377 69.9969 36.9988 69.8781 37.0836H69.8696Z" fill="white"/>
<path d="M70.1919 37.6941C70.3107 37.3295 70.1919 37.126 70.2343 36.9648C70.2767 37.0836 70.438 37.4143 70.4804 37.533C70.3955 37.5754 70.3192 37.6178 70.1919 37.6941Z" fill="white"/>
<path d="M69.9121 37.9825C69.997 37.6602 69.8273 37.4567 69.8697 37.2871C69.9121 37.4058 70.0309 37.6518 70.0734 37.779C69.9885 37.8638 70.0309 37.8977 69.9121 37.9825Z" fill="white"/>
<path d="M70.2769 38.432C70.2345 38.1437 70.1581 38.1098 70.1921 37.9402C70.1921 38.0589 70.4381 38.1861 70.4381 38.3048C70.3815 38.3331 70.3278 38.3727 70.2769 38.4236V38.432Z" fill="white"/>
<path d="M70.523 39.0764C70.4382 38.7881 70.3618 38.8305 70.3618 38.627C70.4467 38.7118 70.5655 38.7457 70.7267 38.9153C70.5655 38.9577 70.6079 38.9577 70.523 39.0764Z" fill="white"/>
<path d="M70.6414 38.1862C70.6414 37.8639 70.599 37.8215 70.6414 37.6604C70.6838 37.7791 70.845 37.9487 70.9299 38.0675C70.845 38.1099 70.7263 38.1523 70.6414 38.1862Z" fill="white"/>
<path d="M71.1336 38.6696C71.1336 38.3473 71.0912 38.3049 71.1336 38.1438C71.176 38.2625 71.4221 38.4321 71.4984 38.5933C71.3797 38.6357 71.21 38.6357 71.1336 38.6781V38.6696Z" fill="white"/>
<path d="M70.7265 38.9154C70.7265 38.5932 70.5653 38.5508 70.6077 38.3896C70.6925 38.4745 70.8962 38.6356 71.015 38.7543C70.8962 38.7967 70.8113 38.8391 70.7265 38.9154Z" fill="white"/>
<path d="M71.1675 38.0249C71.2099 37.7026 71.2523 37.5754 71.2863 37.4143C71.3287 37.533 71.4475 37.779 71.5748 37.9062C71.4135 37.991 71.2523 37.9486 71.1675 38.0249Z" fill="white"/>
<path d="M71.7788 37.8977C71.8212 37.6094 71.94 37.4482 71.94 37.2871C71.9824 37.4058 72.1437 37.6942 72.2285 37.8553C72.1097 37.8553 71.9061 37.8553 71.7788 37.8977Z" fill="white"/>
<path d="M71.6172 38.5507C71.6596 38.2284 71.6172 38.186 71.6596 38.0249C71.702 38.1436 71.9481 38.3896 72.0669 38.5168C71.9057 38.5168 71.7445 38.5168 71.6172 38.5592V38.5507Z" fill="white"/>
<path d="M72.3132 38.5507C72.398 38.2624 72.398 38.2284 72.432 38.0588C72.432 38.1776 72.678 38.4659 72.7544 38.5846C72.6356 38.5846 72.432 38.4998 72.3047 38.5422L72.3132 38.5507Z" fill="white"/>
<path d="M72.924 38.5932C73.0089 38.3048 73.0089 38.2709 73.0428 38.1013C73.1276 38.1861 73.3313 38.5508 73.3652 38.7119C73.204 38.6695 73.0004 38.5508 72.9155 38.5932H72.924Z" fill="white"/>
<path d="M72.5166 37.8638C72.6354 37.5755 72.6778 37.4568 72.6778 37.2957C72.7627 37.3805 72.8815 37.7451 72.8815 37.9062C72.7966 37.9062 72.6354 37.8214 72.5166 37.8638Z" fill="white"/>
<path d="M73.0854 37.9401C73.2042 37.6518 73.2891 37.5754 73.2891 37.4143C73.3739 37.4991 73.4927 37.8638 73.4927 38.0249C73.3739 38.0249 73.2042 37.9401 73.0854 37.9401Z" fill="white"/>
<path d="M70.1154 38.6356C70.0729 38.3134 69.9966 38.4321 69.9966 38.271C69.9966 38.3134 70.2002 38.3897 70.2426 38.5169C70.1239 38.5593 70.1578 38.5593 70.1239 38.6356H70.1154Z" fill="white"/>
<path d="M70.7266 37.4144C70.8878 37.0921 70.8878 36.8462 70.9302 36.6851C70.9302 36.8038 71.049 37.1769 71.1338 37.2956C71.015 37.338 70.8114 37.338 70.7266 37.4144Z" fill="white"/>
<path d="M71.4136 37.1685C71.5748 36.8463 71.7021 36.6428 71.7021 36.4731C71.7445 36.5919 71.8208 36.9989 71.8633 37.0837C71.7784 37.1685 71.5408 37.1261 71.4136 37.1685Z" fill="white"/>
<path d="M72.152 37.1261C72.3133 36.8378 72.4405 36.6343 72.5169 36.4731C72.6017 36.5919 72.6357 37.0413 72.6357 37.1261C72.4745 37.1261 72.2708 37.0837 72.1436 37.1261H72.152Z" fill="white"/>
<path d="M72.8818 37.1684C73.043 36.8801 73.1279 36.719 73.1279 36.5579C73.2467 36.6766 73.2467 37.126 73.2467 37.2532C73.1279 37.2532 72.9582 37.1684 72.8818 37.1684Z" fill="white"/>
<path d="M73.4077 37.2532C73.5689 36.9649 73.5265 36.8462 73.6114 36.6851C73.7301 36.8038 73.7301 37.2956 73.7726 37.4144C73.6114 37.372 73.4841 37.2956 73.4077 37.2532Z" fill="white"/>
<path d="M73.9421 37.4907C74.1033 37.2024 73.9845 37.0413 74.0609 36.8801C74.2221 36.9989 74.1797 37.4907 74.1797 37.6518C74.0184 37.6094 74.0184 37.5331 73.9336 37.4907H73.9421Z" fill="white"/>
<path d="M73.654 38.1437C73.7728 37.8554 73.7728 37.8215 73.8152 37.6519C73.934 37.7706 73.934 38.1437 73.934 38.2624C73.8152 38.22 73.7304 38.1776 73.6455 38.1437H73.654Z" fill="white"/>
<path d="M73.4079 38.7543C73.4927 38.466 73.4927 38.4321 73.5267 38.2625C73.6455 38.4236 73.6455 38.7882 73.6455 38.9154C73.5606 38.8306 73.5267 38.7967 73.3994 38.7543H73.4079Z" fill="white"/>
<path d="M74.2222 37.6604C74.341 37.3721 74.2222 37.2957 74.307 37.0498C74.4258 37.1685 74.3919 37.6604 74.3919 37.8215C74.2731 37.7791 74.307 37.7028 74.2307 37.6604H74.2222Z" fill="white"/>
<path d="M74.061 38.3472C74.1459 38.1012 74.1035 38.0588 74.1798 37.8977C74.2986 38.0164 74.2647 38.3472 74.2647 38.5083C74.1035 38.4235 74.1035 38.3896 74.061 38.3472Z" fill="white"/>
<path d="M73.7725 38.9154C73.9337 38.7118 73.8573 38.7118 74.0185 38.5083C74.0609 38.6694 73.9761 39.0002 73.9337 39.1189C73.8488 39.0002 73.8149 38.9578 73.7725 38.9154Z" fill="white"/>
<path d="M74.3832 36.8801C74.3832 36.5918 74.3408 36.6342 74.3408 36.4307C74.4596 36.5494 74.4596 36.7953 74.4596 36.9225C74.3408 36.8801 74.4172 36.9225 74.3748 36.8801H74.3832Z" fill="white"/>
<path d="M71.1338 35.6252C71.295 35.464 71.3798 35.3029 71.4986 35.1333V35.5828C71.4138 35.5828 71.2526 35.5828 71.1338 35.6252Z" fill="white"/>
<path d="M71.9058 35.4978C72.0245 35.3367 72.0245 35.2943 72.1094 35.0483C72.1942 35.1331 72.2706 35.3706 72.2706 35.4978C72.1858 35.4978 72.0245 35.4554 71.9058 35.4978Z" fill="white"/>
<path d="M71.7788 34.9296C71.8976 34.8109 71.8976 34.6413 71.9824 34.4377C72.0673 34.4801 72.0673 34.76 72.0673 34.8872C71.9824 34.9296 71.9061 34.8872 71.7788 34.9296Z" fill="white"/>
<path d="M72.3555 34.9297C72.4743 34.7686 72.3979 34.6838 72.4403 34.4802C72.5252 34.5226 72.6864 34.8449 72.7288 34.9721C72.61 34.9297 72.4827 34.8873 72.364 34.9297H72.3555Z" fill="white"/>
<path d="M72.5166 35.4979C72.6778 35.3791 72.6354 35.2519 72.8051 35.0908C72.8475 35.1756 72.9239 35.3791 72.9239 35.5403C72.8051 35.5403 72.6354 35.4979 72.5166 35.4979Z" fill="white"/>
<path d="M72.8818 34.972C72.9667 34.8109 72.9243 34.6497 72.9243 34.5649C72.9667 34.6497 73.1703 34.8872 73.1279 35.0144C73.0091 35.0144 73.0091 34.972 72.8818 34.972Z" fill="white"/>
<path d="M73.2891 35.0568C73.3739 34.8957 73.3315 34.8109 73.3315 34.6921C73.3739 34.7769 73.5351 35.0144 73.5351 35.1416C73.4163 35.1416 73.3739 35.0992 73.2891 35.0568Z" fill="white"/>
<path d="M73.5688 35.1755C73.6113 35.0144 73.5688 35.0144 73.5688 34.8872C73.6113 34.972 73.7301 35.1331 73.7301 35.2519C73.6876 35.2519 73.6876 35.2095 73.5688 35.1671V35.1755Z" fill="white"/>
<path d="M73.8998 35.3368C73.8998 35.1757 73.8574 35.252 73.8574 35.1333C73.9423 35.2181 73.9762 35.252 74.0186 35.3792C73.9338 35.3368 73.9762 35.3368 73.8998 35.3368Z" fill="white"/>
<path d="M73.0851 35.5826C73.17 35.4215 73.1276 35.3791 73.2039 35.1755C73.2464 35.2603 73.4076 35.4978 73.3651 35.6674C73.2803 35.6674 73.1615 35.625 73.0767 35.5826H73.0851Z" fill="white"/>
<path d="M73.4924 35.7438C73.5772 35.5827 73.5348 35.5403 73.6112 35.3792C73.6536 35.464 73.7299 35.7014 73.7299 35.8286C73.6112 35.7862 73.5687 35.7862 73.4839 35.7438H73.4924Z" fill="white"/>
<path d="M73.8574 35.8625C73.9423 35.7014 73.8574 35.7014 73.8998 35.5403C73.9423 35.6251 74.0186 35.8625 74.0186 35.9897C73.9338 35.9049 73.9762 35.9049 73.8574 35.871V35.8625Z" fill="white"/>
<path d="M71.9821 36.3118C72.1009 36.1507 72.2282 35.9472 72.347 35.7437C72.4318 35.8285 72.4658 36.1931 72.4658 36.3118C72.347 36.3118 72.1009 36.2694 71.9736 36.3118H71.9821Z" fill="white"/>
<path d="M72.7202 36.3119C72.8814 36.1508 72.8814 35.9897 72.9663 35.7861C73.0511 35.8285 73.1275 36.2356 73.0851 36.3967C73.0002 36.3543 72.7966 36.3119 72.7202 36.3119Z" fill="white"/>
<path d="M73.2466 36.3544C73.3654 36.2357 73.3654 36.0661 73.4502 35.8625C73.5351 35.905 73.569 36.312 73.569 36.4731C73.4502 36.4731 73.3229 36.3883 73.2466 36.3544Z" fill="white"/>
<path d="M73.696 36.5154C73.7808 36.3118 73.7384 36.2694 73.8148 36.0659C73.8996 36.1083 73.9336 36.5154 73.9336 36.6341C73.8487 36.5917 73.7723 36.5493 73.6875 36.5154H73.696Z" fill="white"/>
<path d="M74.1035 36.719C74.1884 36.5155 74.1035 36.4731 74.1884 36.2695C74.2732 36.3119 74.3496 36.6766 74.3496 36.8377C74.1884 36.7953 74.1884 36.7529 74.1035 36.719Z" fill="white"/>
<path d="M71.1338 36.3968C71.295 36.2781 71.5411 35.9473 71.6259 35.7014C71.6259 35.8201 71.6683 36.1085 71.7108 36.2696C71.5495 36.3544 71.2611 36.3544 71.1423 36.3883L71.1338 36.3968Z" fill="white"/>
<path d="M74.146 35.7437C74.146 35.8624 74.1884 35.9472 74.1884 36.0659C74.1884 36.1083 74.2308 36.1083 74.2733 36.1083C74.2733 35.9896 74.1884 35.8624 74.1545 35.7437H74.146Z" fill="white"/>
<path d="M71.2102 3.39999C71.329 2.95053 70.5993 2.54348 70.5144 2.99294C70.5144 3.44239 70.5145 3.48479 70.2684 3.89185C70.0223 4.2989 70.7605 4.41763 70.9641 4.05297C70.8029 4.1717 70.5993 4.2141 70.4381 3.96817C70.7266 3.88337 70.8878 3.39999 70.7266 3.11166C70.9302 2.99294 71.1338 3.19646 71.2187 3.39999H71.2102Z" fill="white"/>
<path d="M72.5593 2.83185C73.0514 2.78945 73.1277 1.97534 72.6781 2.06014C72.2708 2.22127 72.2284 2.17887 71.7787 2.10254C71.329 2.01774 71.4902 2.75553 71.8974 2.83185C71.7787 2.71313 71.6514 2.5096 71.7787 2.30607C71.9399 2.5096 72.4744 2.552 72.6781 2.30607C72.8393 2.4672 72.7205 2.71313 72.5593 2.83185Z" fill="white"/>
<path d="M73.4499 3.968C73.6112 4.41745 74.3833 4.29025 74.1796 3.88319C73.8912 3.51854 73.9336 3.47614 73.8912 3.02668C73.8487 2.61963 73.1954 2.98428 73.2378 3.39134C73.3227 3.23021 73.4415 3.06908 73.6875 3.14541C73.5687 3.39134 73.6875 3.84079 73.9336 3.95952C73.8912 4.16304 73.6112 4.12064 73.4415 3.95952L73.4499 3.968Z" fill="white"/>
<path d="M72.7205 5.27411C72.3556 5.59637 72.7205 6.29175 73.0853 5.9695C73.3314 5.60485 73.4077 5.60485 73.815 5.44372C74.2223 5.19779 73.6538 4.71441 73.2465 4.91794C73.4502 4.91794 73.6538 5.00274 73.6538 5.24019C73.3653 5.19779 72.958 5.48612 72.958 5.76597C72.6696 5.80837 72.5932 5.47764 72.712 5.27411H72.7205Z" fill="white"/>
<path d="M71.2951 4.86707C70.8878 4.62114 70.3617 5.18932 70.769 5.43525C71.1763 5.52005 71.1763 5.63878 71.4987 5.96103C71.8211 6.28328 72.1096 5.55397 71.7872 5.23172C71.8296 5.39285 71.872 5.63878 71.626 5.72358C71.5836 5.47765 71.1763 5.1554 70.8963 5.23172C70.8114 4.98579 71.0999 4.86707 71.3036 4.86707H71.2951Z" fill="white"/>
<path d="M69.7846 5.27396C69.3773 5.15524 69.2925 4.90931 69.581 4.62098C69.0889 3.44222 69.4198 2.62811 70.3531 2.10233C70.3107 1.65287 70.5143 1.49175 70.9216 1.69528C71.7361 0.92357 72.5931 0.92357 73.5264 1.65287C73.9761 1.44935 74.1373 1.61047 74.0949 2.10233C75.1555 2.71291 75.4016 3.56942 74.9095 4.58706C75.2319 4.90931 75.2743 5.19764 74.7482 5.31636C74.7482 6.24919 73.2804 7.19051 72.6695 6.85977C72.347 7.47036 72.0161 7.0209 71.9398 6.85977C70.8028 6.85977 69.9883 6.49512 69.7846 5.27396ZM71.3289 4.37505C68.6392 5.30788 72.1434 8.08094 72.2622 5.07043C72.1773 7.91981 76.1313 5.51989 73.1616 4.34113C75.9276 5.40116 74.587 0.838767 72.7967 3.28109C74.5446 0.677641 69.9034 1.04229 71.6937 3.23869C69.6998 0.92357 68.724 5.31636 71.3289 4.37505ZM71.0404 2.42458C70.9979 2.22105 71.0404 2.01753 71.0828 1.814C70.964 1.8564 70.8367 1.93272 70.6755 1.8564C70.6331 2.01753 70.5907 2.17865 70.4719 2.26346C70.4295 2.22105 71.0404 2.38218 71.0404 2.42458ZM73.3992 2.38218C73.3992 2.38218 73.9676 2.17865 73.9252 2.22105C73.8828 2.22105 73.8064 1.93272 73.8064 1.7716C73.7216 1.89032 73.5604 1.89032 73.3992 1.814C73.4416 2.01753 73.4416 2.17865 73.3992 2.38218ZM74.4598 5.23156C74.3749 5.14676 74.8246 4.98563 74.8246 4.94323C74.8246 4.94323 74.7058 4.6973 74.7058 4.53617C74.5446 4.6549 74.3834 4.7397 74.2137 4.7821C74.3749 4.86691 74.4598 5.02803 74.4598 5.23156ZM70.0222 5.23156C70.0646 4.98563 70.1834 4.8245 70.387 4.70578C70.141 4.70578 69.9798 4.66338 69.8186 4.50225C69.8186 4.66338 69.7761 4.8245 69.6998 4.95171C69.8186 4.95171 69.9458 5.07043 70.0222 5.24004V5.23156ZM71.9313 6.61385C72.0925 6.69865 72.1773 6.81737 72.2198 6.85977C72.3046 6.69865 72.4234 6.61385 72.627 6.57144C72.4658 6.45272 72.3386 6.28311 72.2198 6.12199C72.1349 6.32552 72.0161 6.48664 71.9313 6.61385Z" fill="white"/>
<path d="M72.1859 2.70459C72.2283 3.35757 72.7544 3.67982 73.4077 3.63742C72.5083 4.1632 72.958 5.10451 72.958 5.18084C72.4659 4.73138 71.9398 4.68898 71.4138 5.18084C71.7362 4.52785 71.575 4.00207 70.8877 3.63742C71.4986 3.88335 72.398 3.14557 72.1944 2.70459H72.1859ZM72.6356 4.21408C72.4744 4.09536 72.3895 3.92575 72.4744 3.76463C72.3132 3.84943 72.1859 3.80703 72.0671 3.76463C72.0671 3.76463 72.1519 4.05296 71.9483 4.21408C72.1095 4.21408 72.2368 4.33281 72.3132 4.46001C72.2283 4.41761 72.4744 4.17168 72.6356 4.21408Z" fill="white"/>
<path d="M65.3472 35.8625C65.7544 35.9813 66.7302 36.2696 67.5447 36.8378C68.5629 37.5671 68.8854 37.8554 69.6235 37.7706" fill="white"/>
<path d="M63.0732 40.6709C63.5229 40.7896 65.6781 40.5098 66.6538 39.7381C67.7145 39.0851 69.0551 38.5593 69.7084 38.3982" fill="white"/>
<path d="M66.6538 43.3505C68.4017 42.8586 70.5229 40.7471 71.0914 39.8481Z" fill="white"/>
<path d="M78.9907 35.8625C78.5834 35.9813 77.6077 36.2696 76.7931 36.8378C75.775 37.5671 75.4865 37.8554 74.7144 37.7706" fill="white"/>
<path d="M81.2645 40.6709C80.8149 40.7896 78.6597 40.5098 77.6839 39.7381C76.6233 39.0851 75.2827 38.5593 74.6294 38.3982" fill="white"/>
<path d="M77.6841 43.3505C75.9362 42.8586 73.815 40.7471 73.2041 39.8481Z" fill="white"/>
<path d="M68.2404 28.4252L68.6052 28.3065L68.2404 28.2217L68.444 27.8994L68.1216 28.1029L68.0368 27.7383L67.9519 28.1029L67.6295 27.8994L67.8331 28.2217L67.4683 28.3065L67.8331 28.4252L67.6295 28.7475L67.9519 28.5439L68.0368 28.9086L68.1216 28.5439L68.444 28.7475L68.2404 28.4252ZM76.5046 28.4252L76.8695 28.3065L76.5046 28.2217L76.7083 27.8994L76.3859 28.1029L76.301 27.7383L76.1822 28.1029L75.8598 27.8994L76.0634 28.2217L75.6986 28.3065L76.0634 28.4252L75.8598 28.7475L76.1822 28.5439L76.301 28.9086L76.3859 28.5439L76.7083 28.7475L76.5046 28.4252ZM76.8695 23.8713L76.7846 23.9137C76.7846 23.9137 76.4962 23.9137 76.1737 23.795C75.724 24.7702 74.7483 25.1348 73.8149 25.4656C73.2889 25.6691 72.7968 25.9914 72.4319 26.2797L72.3471 26.3645L72.2622 26.2797C71.8974 25.9914 71.4477 25.6691 70.9216 25.508C70.0222 25.2197 69.0465 24.855 68.5204 23.6762C68.2743 23.8374 68.0283 23.9222 67.9519 23.9222H67.9095L67.8246 23.8798V23.8374C67.4598 22.701 67.1289 21.5562 67.4174 20.3774L67.5022 20.0552L67.6634 20.3774C68.0707 21.2763 68.6392 22.0056 69.4113 22.6586L69.5301 22.7434L69.4452 22.8282C69.284 22.9893 69.2416 23.1165 69.2416 23.2353C69.2416 23.3964 69.4028 23.5999 69.6489 23.8034C69.8949 24.0918 70.2174 24.2953 70.5483 24.3716C70.5483 24.3292 70.5059 24.2868 70.5059 24.2529C70.5483 23.6847 71.0743 23.1165 71.524 23.354C71.5665 23.0657 71.7277 22.8621 71.9313 22.7434L71.8465 19.7329C71.7616 19.7329 71.558 19.6905 71.558 19.6905C71.1083 20.0976 70.3362 19.8516 70.2513 19.2834C69.7252 19.2834 69.318 18.5881 69.598 17.9775C69.3943 17.8164 69.3943 17.2058 69.5131 17.0022V16.5104H69.2671V16.6715H68.5374V16.1797H67.7652L67.884 15.1196H68.4949V14.9585H69.3519V15.162H69.844V14.9585H70.4974V15.0009C70.5822 14.7974 70.6586 14.6362 70.7434 14.4751C70.6246 14.2292 70.5398 13.9493 70.5398 13.6186C70.5398 12.6434 71.3543 11.7869 72.3725 11.7869C73.3907 11.7869 74.2052 12.601 74.2052 13.6186C74.2052 14.1444 73.9592 14.6786 73.5943 15.0009V15.2044H74.0865V15.0009H75.0198V15.2044H75.5119V15.0433H76.3689V15.2468H77.141L77.2598 16.2221H76.3265V16.7139H75.5119V16.5104H75.0198V17.121H74.0865V16.9174L73.5943 16.875L73.0259 17.8927H72.9834C73.1022 18.2573 73.0683 18.5881 72.941 18.8679V19.029C72.941 19.029 72.941 18.9866 72.9834 18.9866C73.3483 18.6983 73.7556 18.9018 74.0016 19.2326C74.6549 19.1138 74.9349 19.4785 74.9349 20.1654C75.3422 20.3265 75.2998 21.1406 74.9774 21.2254C75.181 21.6749 74.7313 22.3279 74.324 22.1583C74.324 22.6501 73.7131 23.2183 73.4671 22.8876C73.5095 23.2946 73.1022 23.7441 72.7374 23.7441V23.9476C72.7374 23.9476 72.8562 24.0324 72.941 24.0663C73.1871 24.2699 73.4671 24.3886 73.798 24.3886C74.4089 24.3886 74.9349 24.0239 75.1386 23.6932C75.461 23.2437 75.461 22.9978 75.1386 22.7604L75.0198 22.6416L75.1386 22.5568C75.3846 22.3957 76.7677 20.6827 77.0137 20.3604L77.0986 20.2417L77.2174 20.3265C77.3022 20.4113 77.3786 20.53 77.3786 20.776C77.421 21.6325 77.0901 23.583 76.8525 23.8713H76.8695ZM69.7083 16.7902C69.8695 16.6291 70.5228 16.5019 70.684 16.5867C70.684 16.5867 70.9301 16.4256 70.9725 16.3832C70.7689 16.1797 69.8356 16.1797 69.7083 16.7902ZM71.1337 17.2397C71.0913 17.121 70.9725 16.9514 70.7689 16.875C70.7265 16.8326 70.5228 17.1973 70.6077 17.4432C70.7265 17.3584 70.9301 17.1973 71.1337 17.2397ZM70.684 17.7316C70.7689 17.8927 70.9301 17.9775 71.0913 18.0199C71.2101 17.8588 71.2525 17.6552 71.1762 17.4517C71.0149 17.4941 70.8537 17.6128 70.684 17.74V17.7316ZM71.2101 18.5881C71.0065 18.0962 70.9216 18.2997 70.5143 17.9351C70.2683 18.4269 70.718 18.8679 71.2101 18.5881ZM71.7022 16.9598C71.7022 16.3493 70.9725 15.7811 70.4804 16.0609C71.0065 16.0185 71.6174 16.6715 71.7022 16.9598ZM72.1095 16.1457C72.2283 15.7387 72.2283 15.4164 72.2283 15.4164C72.0246 15.4164 71.821 15.3316 71.6598 15.2553C71.5749 15.374 71.4986 15.5776 71.4562 15.7048C71.8634 15.7472 71.9822 16.027 72.1095 16.1542V16.1457ZM71.541 15.8235C71.541 15.8235 71.8634 16.1457 71.9907 16.4765C72.0331 16.3917 72.0756 16.3153 72.1095 16.2729C71.8634 15.9846 71.7022 15.9083 71.541 15.8235ZM70.9301 15.8659C71.3374 16.027 71.6598 16.3153 71.8295 16.7648C71.8719 16.7224 71.8719 16.68 71.9143 16.68C71.8719 16.2305 71.2186 15.7048 70.9386 15.8659H70.9301ZM71.4222 17.8588C72.0331 17.9775 72.4828 17.6552 72.8052 16.9598C73.9846 14.3988 72.398 13.3812 71.6683 13.8645C71.7107 14.0681 71.8719 14.2292 72.0756 14.314C72.398 14.5175 72.4828 15.0433 72.4404 15.4164C72.4828 15.4588 72.2792 17.0022 71.4222 17.3669C71.5071 17.4517 71.5071 17.774 71.4222 17.8588ZM73.1277 13.7882V13.6271C73.1277 13.22 72.8052 12.8554 72.3556 12.8554C71.9907 12.8554 71.6598 13.1437 71.6259 13.5084C71.6259 13.5084 72.3556 13.0165 73.1362 13.7967L73.1277 13.7882ZM72.1519 18.9527C72.644 18.9527 72.8477 18.2997 72.6016 17.9351C72.1943 18.0538 72.1943 18.3421 72.1519 18.9527ZM72.0331 19.4785L72.1519 22.6501L72.5168 22.7349L72.3556 22.5314L72.398 19.029L72.0331 19.4785ZM73.2974 22.4042C72.644 22.4042 72.6865 22.7688 72.6016 23.4642C73.1701 23.6254 73.4162 22.7349 73.2974 22.4042ZM73.9931 21.7088C73.501 21.7088 73.4671 22.3618 73.5434 22.684C74.1119 22.7264 74.1968 21.8275 73.9931 21.7088ZM74.2816 20.9371C74.1628 21.0982 74.2392 21.6325 74.3665 21.8699C74.9774 21.8275 74.8925 21.217 74.2816 20.9371ZM74.1628 20.2417C74.044 20.3604 74.6549 20.9371 74.8925 21.0134C75.0962 20.6064 75.0113 20.2841 74.1628 20.2417ZM73.5519 19.7499C73.4331 19.8686 74.3665 20.0721 74.6549 20.0382C74.5362 19.47 74.1628 19.2241 73.5519 19.7499ZM72.9834 19.6651H73.3059C73.3059 19.6651 73.4246 19.6227 73.5095 19.5803C73.6283 19.4955 73.8319 19.3767 73.8319 19.3767C73.8319 19.3767 73.5859 19.1308 73.3398 19.1308C73.0937 19.0884 72.9325 19.2495 72.9325 19.2495V19.6566H72.9749L72.9834 19.6651ZM72.941 19.8686L72.8562 22.2685C72.9749 22.1837 73.1446 22.1498 73.3059 22.1837C73.3059 21.8191 73.6283 21.3696 74.0016 21.4883C73.9168 21.2848 74.0016 20.8777 74.1204 20.759C74.0016 20.5555 73.9168 20.3944 73.9592 20.2332C73.6368 20.1145 73.3907 20.0297 73.3483 19.8686C73.1871 19.8262 73.0259 19.8686 72.941 19.8686ZM73.6707 15.5182V15.8404L77.0052 15.7556L76.9204 15.5097H73.6622L73.6707 15.5182ZM72.2452 15.0687C72.2028 14.9076 72.2028 14.8228 72.1265 14.6617C71.6768 14.543 71.3119 14.1359 71.3119 13.644C71.3119 13.1183 71.7616 12.6264 72.3301 12.6264C72.8986 12.6264 73.3483 13.1183 73.3483 13.644C73.3483 13.7628 73.3483 13.89 73.3059 13.9663C73.3907 14.085 73.4671 14.2546 73.5095 14.4158C73.6707 14.1698 73.798 13.8476 73.798 13.5592C73.798 12.7027 73.1446 12.0158 72.2877 12.0158C71.4307 12.0158 70.7774 12.7112 70.7774 13.5592C70.7349 14.3734 71.4307 15.0687 72.2452 15.0687ZM70.4549 15.8404H70.6162C70.7349 15.7217 70.9386 15.6793 70.9386 15.6793C70.981 15.4334 71.1422 15.1111 71.261 14.95C71.1422 14.8313 71.0149 14.7465 70.9386 14.5854C70.7349 14.95 70.5737 15.3571 70.4465 15.8489L70.4549 15.8404ZM70.2513 15.7556V15.4334H68.0537L67.9689 15.6793L70.2513 15.7641V15.7556ZM69.7252 17.6637C69.8865 17.3754 70.0901 17.2143 70.3362 17.1379C70.3786 16.9768 70.421 16.892 70.4974 16.7733C69.9713 16.6885 69.4368 17.2227 69.7252 17.6722V17.6637ZM70.3362 17.4178C70.1749 17.5365 70.0137 17.6637 69.8865 17.8672C70.0052 17.986 70.0901 18.0708 70.2089 18.1556C70.2513 17.952 70.2937 17.7909 70.3701 17.6637C70.3701 17.5789 70.3701 17.545 70.3277 17.4178H70.3362ZM70.7434 18.8849C70.4974 18.8001 70.3786 18.6813 70.2937 18.4778C70.2937 18.4778 69.8865 18.2319 69.844 18.1895C69.7592 18.8425 70.2513 19.1647 70.7434 18.8849ZM71.4392 19.4531C71.2356 19.3682 71.1168 19.2071 71.0319 19.046C70.8707 19.1308 70.7095 19.2071 70.5059 19.2071C70.7519 19.6566 71.0743 19.699 71.4392 19.4531ZM71.9652 18.393C71.804 18.3082 71.5156 18.8001 71.2356 18.8425C71.4392 19.5718 72.1349 19.1647 71.9652 18.393ZM71.6768 23.9222C72.1265 24.1257 72.5337 23.2268 72.3725 22.9045C71.6768 22.9045 71.8465 23.354 71.6768 23.9222ZM70.7434 24.2868C71.3119 24.5327 71.558 23.761 71.4731 23.5575C71.1507 23.4388 70.8198 23.6423 70.7434 24.2868ZM77.1749 20.8693C77.1749 20.7845 77.1749 20.7081 77.1325 20.6657C76.7677 21.1152 75.8259 22.2939 75.461 22.6586C75.8259 23.0657 75.6646 23.4727 75.3762 23.8374C75.1301 24.2868 74.4768 24.6515 73.8319 24.6515C73.4671 24.6515 73.1022 24.5327 72.8137 24.2868C72.6101 24.1681 72.4913 24.0833 72.4065 24.0833C72.2877 24.0833 72.1604 24.1681 71.9992 24.2868C71.7531 24.5327 71.3459 24.6515 70.981 24.6515C70.4549 24.6515 69.9204 24.4055 69.5131 23.9561C69.1907 23.7102 69.0634 23.4642 69.021 23.2268C69.021 23.0657 69.0634 22.9045 69.2246 22.7349C68.5713 22.1667 68.0877 21.5562 67.6804 20.7845C67.5192 21.7597 67.9265 22.2515 68.2489 23.2268C68.3677 23.1844 68.5713 23.1081 68.741 22.9385L68.8598 22.8197L68.9446 23.4303C69.5131 24.5327 70.2089 24.6091 71.0998 24.9398C71.5919 25.1009 72.0331 24.7363 72.4404 25.0246C72.7289 24.8211 73.0513 24.9059 73.3737 24.9398L73.8234 24.8974C74.8416 24.6091 75.5289 24.3716 76.021 23.1929L75.9022 22.5823L76.1907 23.1081C76.4368 23.1929 76.5131 22.9045 76.5556 22.7434C76.6404 22.4975 77.2089 21.7258 77.1665 20.8693H77.1749ZM72.1265 28.6796V27.1362H71.5156V28.722C71.5156 29.2478 71.1931 29.4513 70.7859 29.4513C70.3786 29.4513 70.0562 29.2054 70.0562 28.722V27.1362H69.4452V28.6796C69.4452 29.4513 69.9713 30.0195 70.7859 30.0195C71.558 29.9771 72.1265 29.4513 72.1265 28.6796ZM75.5459 29.9432L74.078 28.5185L75.461 27.1362H74.6465L73.5434 28.315V27.1362H72.9325V29.9856H73.5434V28.7644L74.7228 29.9856H75.5374V29.9432H75.5459Z" fill="white"/>
<path d="M66.696 24.5583L65.8391 25.0841L66.4924 26.1442L67.3918 25.6184L67.553 25.9067L65.6779 27.0431L65.5166 26.7547L66.2463 26.3053L65.593 25.2453L64.8633 25.6947L64.6597 25.4064L66.5348 24.27L66.696 24.5583Z" fill="white"/>
<path d="M65.0245 23.1337L66.0003 22.8114L66.0851 23.0998L65.1094 23.422L64.2524 24.5244L64.1336 24.1598L64.8294 23.3457L63.8112 23.0998L63.6924 22.7351L65.033 23.1422L65.0245 23.1337Z" fill="white"/>
<path d="M65.6355 20.8949L65.7204 21.5902L63.5652 21.8362L63.4804 21.1408C63.3955 20.5302 63.8028 19.9196 64.4561 19.8348C65.067 19.7924 65.5592 20.2843 65.6355 20.8949ZM63.7264 21.1408L63.7689 21.5054L65.3555 21.3443L65.3131 20.9797C65.2707 20.4115 64.8634 20.1656 64.4137 20.208C63.964 20.2504 63.684 20.6998 63.7179 21.1408H63.7264Z" fill="white"/>
<path d="M65.6355 17.7995L64.6173 18.41L64.5748 18.6984L65.5506 18.7832L65.5082 19.1054L63.353 18.9019L63.3955 18.2913C63.4379 17.7995 63.8027 17.6383 64.0488 17.6383C64.3373 17.6807 64.4985 17.8419 64.5748 18.0878L65.6779 17.4348L65.6355 17.7995ZM63.6839 18.3252L63.6415 18.6136L64.2948 18.656L64.3373 18.3676C64.3797 18.0793 64.2185 17.9606 64.0488 17.9606C63.8451 17.9606 63.6839 18.0793 63.6839 18.3252Z" fill="white"/>
<path d="M66.0853 16.0102C65.8816 16.6208 65.3132 16.9854 64.6598 16.7819C64.0065 16.5784 63.7265 15.9678 63.9301 15.3572C64.1338 14.7466 64.7022 14.382 65.3556 14.5855C65.9665 14.7466 66.255 15.3996 66.0853 16.0102ZM64.1762 15.442C64.0574 15.8915 64.295 16.3409 64.7447 16.502C65.1944 16.6208 65.678 16.3833 65.8053 15.9763C65.9241 15.5268 65.6865 15.0774 65.2368 14.9162C64.7871 14.7551 64.3035 15.001 64.1762 15.442Z" fill="white"/>
<path d="M67.2647 13.449C66.9423 13.9748 66.2465 14.1783 65.6781 13.8137C65.152 13.4914 64.9823 12.7536 65.3556 12.2278C65.4744 12.0243 65.7205 11.8208 66.009 11.6597L66.2975 11.8208C66.009 11.9395 65.7714 12.143 65.6017 12.3466C65.3556 12.7536 65.4405 13.2455 65.8478 13.5253C66.255 13.7713 66.7811 13.6441 67.0271 13.2794C67.112 13.1183 67.1884 12.9572 67.1884 12.7536L66.7387 12.4653L66.4502 12.9148L66.2465 12.7536L66.6962 12.0582L67.5108 12.584C67.5108 12.8299 67.4259 13.1946 67.2647 13.4405V13.449Z" fill="white"/>
<path d="M69.14 11.3715L68.003 11.0832L67.7994 11.2867L68.4103 12.016L68.1642 12.2195L66.7388 10.5489L67.2309 10.1419C67.5957 9.81961 67.9606 9.98074 68.1642 10.1419C68.3254 10.3454 68.3254 10.5913 68.2066 10.7948L69.4285 11.1171L69.14 11.363V11.3715ZM67.3497 10.3963L67.146 10.5574L67.5533 11.0493L67.757 10.8881C67.9606 10.6846 67.9606 10.5235 67.8418 10.3624C67.757 10.2436 67.5533 10.2436 67.3497 10.4048V10.3963Z" fill="white"/>
<path d="M71.2524 10.3961L70.8451 9.94668L69.9118 10.2689V10.8795L69.5894 10.9982L69.7081 8.64071L69.9966 8.55591L71.5833 10.3028L71.2609 10.3877L71.2524 10.3961ZM69.9457 8.88664V9.98908L70.6754 9.74315L69.9457 8.88664Z" fill="white"/>
<path d="M72.7204 9.46326H72.3556L72.3131 10.3198H71.9907L72.1095 8.16577L72.7628 8.20817C73.3313 8.25057 73.4925 8.57283 73.4925 8.90356C73.4501 9.31061 73.0853 9.51414 72.7204 9.47174V9.46326ZM72.7204 8.44562H72.398L72.3556 9.17493H72.678C72.9241 9.17493 73.1277 9.0562 73.1277 8.81027C73.1701 8.64915 73.0853 8.44562 72.7204 8.44562Z" fill="white"/>
<path d="M75.2404 11.168L75.6901 10.2351L74.5531 9.70936L74.1034 10.6422L73.8149 10.5235L74.7907 8.573L75.0792 8.69172L74.7143 9.46343L75.8513 9.98921L76.2162 9.2175L76.5046 9.33622L75.5289 11.2867L75.2404 11.168Z" fill="white"/>
<path d="M76.0127 11.7444L77.4806 10.1162L77.7266 10.3197L76.2588 11.948L76.0127 11.7444Z" fill="white"/>
<path d="M78.9909 12.1856C78.7024 11.8209 78.2188 11.7361 77.8115 12.0244C77.4042 12.3128 77.3194 12.7961 77.6079 13.2032C77.7691 13.4491 78.0151 13.5679 78.2612 13.6951L77.9727 13.8986C77.7267 13.7799 77.523 13.6103 77.3618 13.4067C76.997 12.8809 77.0733 12.1856 77.6079 11.8209C78.1339 11.4139 78.8297 11.575 79.1945 12.1092C79.3557 12.3552 79.4406 12.6011 79.483 12.8385L79.1945 13.0421C79.1945 12.6774 79.1097 12.3467 78.9909 12.1856Z" fill="white"/>
<path d="M78.7447 16.341C78.5834 15.7304 78.9059 15.1198 79.5592 14.9163C80.2125 14.7552 80.781 15.1198 80.9422 15.7304C81.1034 16.341 80.781 16.9516 80.1277 17.1551C79.4744 17.3586 78.9059 16.994 78.7447 16.341ZM80.6537 15.8491C80.535 15.3997 80.0853 15.1537 79.6356 15.2809C79.1859 15.4081 78.9059 15.8491 79.0247 16.2986C79.1434 16.748 79.5931 16.994 80.0428 16.8667C80.4925 16.7395 80.7725 16.2986 80.6537 15.8491Z" fill="white"/>
<path d="M81.0187 18.2913L80.4502 18.3337L80.4926 19.1054H80.2042L80.1617 18.3337L79.1436 18.4185V18.0963L81.3411 17.9775L81.426 19.3174H81.1375L81.0187 18.2998V18.2913Z" fill="white"/>
<path d="M81.0612 20.4452L80.4927 20.4028L80.4079 21.1745L80.1194 21.1321L80.2042 20.3604L79.186 20.2756L79.2285 19.9534L81.3836 20.1569L81.2648 21.4968L80.9763 21.4544L81.0612 20.4367V20.4452Z" fill="white"/>
<path d="M78.9481 21.8276L81.0609 22.3195L80.976 22.6078L78.8633 22.1584L78.9481 21.8361V21.8276Z" fill="white"/>
<path d="M80.1275 24.6006C80.2887 24.1511 80.0851 23.7017 79.6354 23.4981C79.1857 23.337 78.7021 23.5405 78.5324 23.9476C78.4136 24.1935 78.4136 24.4734 78.4899 24.7617L78.1675 24.643C78.1251 24.3971 78.1675 24.1172 78.2524 23.8713C78.4984 23.2607 79.1093 22.9724 79.7627 23.2183C80.3736 23.4642 80.6196 24.1172 80.3736 24.7278C80.2548 24.9737 80.0851 25.1772 79.8815 25.3384L79.559 25.2196C79.8051 25.0585 80.0087 24.855 80.1275 24.6091V24.6006Z" fill="white"/>
<path d="M77.6839 25.1265L79.4742 26.39L78.6596 27.5264L78.456 27.3653L79.0669 26.5088L78.5748 26.1865L78.0827 26.8819L77.8366 26.7208L78.3287 26.0254L77.7178 25.5759L77.1069 26.4324L76.8608 26.2713L77.6754 25.1349L77.6839 25.1265Z" fill="white"/>
</g>
<defs>
<clipPath id="clip0_4280_2507">
<rect width="182" height="88" fill="white" transform="translate(48.335 1)"/>
</clipPath>
</defs>
</svg>
