<svg width="247" height="90" viewBox="0 0 247 90" fill="none" xmlns="http://www.w3.org/2000/svg">
<g clip-path="url(#clip0_4280_2750)">
<path d="M152.337 26.9407C142.169 26.9407 136.307 34.5592 136.307 44.995C136.307 55.4309 142.179 63.0494 152.337 63.0494C162.495 63.0494 168.368 55.4309 168.368 44.995C168.368 34.5592 162.505 26.9407 152.337 26.9407ZM152.337 56.9784C145.879 56.9784 143.39 51.0363 143.39 44.995C143.39 38.9538 145.879 33.0117 152.337 33.0117C158.795 33.0117 161.285 38.9538 161.285 44.995C161.285 51.0363 158.795 56.9784 152.337 56.9784Z" fill="white"/>
<path d="M48.5049 27.9524H73.9794V34.0333H55.5977V41.5924H72.7394V47.5146H55.5977V55.9664H73.9794V62.0474H48.5049V27.9524Z" fill="white"/>
<path d="M77.0251 62.0474H84.1079V51.8199H90.5261C99.2061 51.8199 105.029 47.5543 105.029 39.8861C105.029 32.218 99.2061 27.9524 90.5261 27.9524H77.0151V62.0474H77.0251ZM90.5361 45.7488H84.1178V34.0234H90.5361C94.9901 34.0234 97.9562 35.9677 97.9562 39.8861C97.9562 43.8045 94.9901 45.7488 90.5361 45.7488Z" fill="white"/>
<path d="M178.328 27.9525H171.046V62.0475H177.99V48.2389C177.99 44.4693 177.851 41.1064 177.723 38.1503C178.546 39.8565 181.026 44.9851 182.177 46.9096L191.214 62.0574H198.485V27.9525H191.541V41.414C191.541 45.1935 191.68 48.8936 191.809 51.8498C190.986 50.1435 188.506 45.0149 187.345 43.0904L178.308 27.9426L178.328 27.9525Z" fill="white"/>
<path d="M113.084 50.7585C113.084 55.3416 116.893 57.1272 120.95 57.1272C123.599 57.1272 127.894 56.3534 127.894 52.8318C127.894 49.1217 122.637 48.4174 117.578 47.0683C112.26 45.6696 107.152 43.6658 107.152 37.3567C107.152 30.3135 113.808 26.9407 120.028 26.9407C127.21 26.9407 133.817 30.0754 133.817 38.0312H126.734C126.496 33.8847 123.311 32.8232 119.691 32.8232C117.28 32.8232 114.235 33.8351 114.235 36.7317C114.235 39.3803 115.971 39.797 124.601 42.0091C127.111 42.6341 134.977 44.1518 134.977 51.9688C134.977 58.2878 130.007 63.0097 120.653 63.0097C113.034 63.0097 105.902 59.25 105.991 50.7585H113.074H113.084Z" fill="white"/>
</g>
<defs>
<clipPath id="clip0_4280_2750">
<rect width="150" height="36.1186" fill="white" transform="translate(48.5049 26.9407)"/>
</clipPath>
</defs>
</svg>
