<svg width="192" height="90" viewBox="0 0 192 90" fill="none" xmlns="http://www.w3.org/2000/svg">
<g clip-path="url(#clip0_4280_2406)">
<path d="M51.9564 20.6692V44.8724H48.6965V20.6692H51.9564Z" fill="white"/>
<path d="M57.5338 39.1496V40.0146C57.5338 41.4306 58.0027 42.4094 59.273 42.4094C60.434 42.4094 60.9439 41.6855 60.9439 40.2377C60.9439 38.7899 60.5068 37.9567 58.2987 36.5089C55.7627 34.8789 54.5698 33.5358 54.5698 30.8906C54.5698 27.9176 56.1269 25.9644 59.2821 25.9644C62.6831 25.9644 63.9579 27.9585 63.9579 31.1091V31.9059H60.8028V30.8178C60.8028 29.4018 60.3657 28.7189 59.2866 28.7189C58.2076 28.7189 57.8024 29.4838 57.8024 30.6447C57.8024 31.8057 58.1985 32.384 59.9741 33.5449C63.02 35.5027 64.2129 36.8048 64.2129 39.8871C64.2129 43.3701 62.542 45.1822 59.1728 45.1822C55.189 45.1822 54.2466 42.6462 54.2466 40.001V39.1678H57.5474V39.1587L57.5338 39.1496Z" fill="white"/>
<path d="M66.3025 20.6692H71.1604C76.3416 20.6692 77.3205 23.5694 77.3205 27.7672V37.1871C77.3205 40.8841 76.7013 44.8679 71.0876 44.8679H66.3025V20.6692ZM69.5624 42.0861H70.8645C73.5097 42.0861 74.0197 40.488 74.0197 37.6971V27.4803C74.0197 25.0172 73.5826 23.4601 70.8645 23.4601H69.5624V42.0861Z" fill="white"/>
<path d="M80.2163 20.6692H84.8512C88.8714 20.6692 90.392 22.6269 90.392 26.0689V27.0478C90.392 30.4488 89.272 31.4687 88.1429 31.9376C89.3358 32.3337 90.861 33.3536 90.861 36.7956V38.6076C90.861 42.7417 89.2629 44.8815 85.097 44.8815H80.2163V20.6692ZM84.5643 30.6765C86.7042 30.6765 87.3143 29.9526 87.3143 27.3756V26.3603C87.3143 24.2933 86.5904 23.3873 84.669 23.3873H83.3669V30.6674H84.5689V30.6765H84.5643ZM83.3715 42.1953H84.7464C87.0684 42.1953 87.6785 41.1072 87.6785 38.5393V36.8684C87.6785 34.4053 86.9136 33.3536 84.5643 33.3536H83.3715V42.1953Z" fill="white"/>
<path d="M49.5478 60.2249V68.0012H48.4961V60.2249H49.5433H49.5478Z" fill="white"/>
<path d="M51.6833 66.1618V66.4396C51.6833 66.8949 51.8336 67.209 52.2388 67.209C52.6121 67.209 52.7715 66.9768 52.7715 66.5079C52.7715 66.0389 52.6303 65.7749 51.9201 65.3059C51.1096 64.7823 50.7181 64.3498 50.7181 63.503C50.7181 62.5468 51.2189 61.9231 52.2297 61.9231C53.3269 61.9231 53.7321 62.5651 53.7321 63.5758V63.8308H52.7305V63.4802C52.7305 63.0249 52.5893 62.8064 52.2388 62.8064C51.8882 62.8064 51.7607 63.0522 51.7607 63.4256C51.7607 63.7989 51.8882 63.981 52.4619 64.3543C53.4407 64.9826 53.8232 65.4015 53.8232 66.3895C53.8232 67.5095 53.2905 68.0923 52.2114 68.0923C50.9321 68.0923 50.6316 67.2819 50.6316 66.4305V66.1618H51.6879H51.6833Z" fill="white"/>
<path d="M54.8884 67.9967V59.8879H55.9219V67.9967H54.8884Z" fill="white"/>
<path d="M60.2154 66.8585C60.2154 67.241 60.2154 67.7873 60.2382 67.9967H59.2821C59.2593 67.8693 59.2092 67.6234 59.2092 67.5415C59.0089 67.9376 58.6629 68.0878 58.2258 68.0878C57.3425 68.0878 56.9919 67.2865 56.9919 66.3623V66.2575C56.9919 64.8325 57.9207 64.4045 58.9952 64.4045H59.1773V63.5713C59.1773 63.0705 59.1045 62.7746 58.6993 62.7746C58.2941 62.7746 58.1985 63.0751 58.1985 63.4985V63.6169H57.1741V63.5121C57.1741 62.6607 57.5019 61.9141 58.7312 61.9141C59.8375 61.9141 60.2108 62.556 60.2108 63.4894V66.854L60.2154 66.8585ZM59.2047 65.2149H58.9588C58.3624 65.2149 57.9799 65.4608 57.9799 66.2484V66.344C57.9799 66.8221 58.1393 67.1727 58.5536 67.1727C59.0225 67.1727 59.2047 66.8403 59.2047 65.9889V65.2195V65.2149Z" fill="white"/>
<path d="M61.6314 63.7534C61.6314 62.6015 61.6314 62.2964 61.6223 62.0187H62.6057C62.6376 62.1917 62.6376 62.3511 62.6513 62.5514C62.8334 62.1553 63.184 61.9231 63.6848 61.9231C64.1856 61.9231 64.4861 62.1234 64.6318 62.5833C64.8321 62.2327 65.1417 61.9231 65.7609 61.9231C66.3801 61.9231 66.9219 62.2236 66.9219 63.3846V67.9967H65.8747V63.5849C65.8747 63.1387 65.77 62.861 65.3876 62.861C64.9095 62.861 64.7911 63.2571 64.7911 63.8717V67.9876H63.744V63.6168C63.744 63.0203 63.5755 62.861 63.2431 62.861C62.7651 62.861 62.6649 63.2662 62.6649 63.8854V67.9967H61.6314V63.7534Z" fill="white"/>
<path d="M68.3059 59.8879H69.3531V61.1354H68.3059V59.8879ZM68.3059 62.0187H69.3394V67.9967H68.3059V62.0187Z" fill="white"/>
<path d="M73.7284 66.0571V66.1345C73.7284 67.1908 73.4598 68.0923 72.1303 68.0923C70.8009 68.0923 70.5732 67.2181 70.5732 65.9843V63.8217C70.5732 62.8382 70.9238 61.9231 72.185 61.9231C73.5463 61.9231 73.7193 62.9065 73.7193 63.6805V63.9127H72.6858V63.6805C72.6858 63.1797 72.6129 62.8064 72.1622 62.8064C71.7661 62.8064 71.6159 63.1068 71.6159 63.7033V66.2848C71.6159 66.7537 71.7115 67.209 72.1622 67.209C72.5856 67.209 72.6858 66.8903 72.6858 66.303V66.0571H73.7284Z" fill="white"/>
<path d="M76.7561 60.225H78.3132C79.975 60.225 80.2937 61.1538 80.2937 62.506V65.5337C80.2937 66.7175 80.0934 67.9968 78.2904 67.9968H76.7561V60.2205V60.225ZM77.7987 67.0999H78.2221C79.0735 67.0999 79.2329 66.59 79.2329 65.6931V62.4104C79.2329 61.6137 79.0917 61.1219 78.2221 61.1219H77.7987V67.0999Z" fill="white"/>
<path d="M82.4473 65.2604V66.1846C82.4473 66.7082 82.552 67.209 83.0665 67.209C83.5809 67.209 83.6629 66.7628 83.6629 66.2802V66.2484H84.6645V66.2802C84.6645 66.9313 84.5234 68.0923 83.0847 68.0923C81.6459 68.0923 81.4229 67.1954 81.4229 65.9843V63.9082C81.4229 63.0568 81.7188 61.9231 83.0847 61.9231C84.3094 61.9231 84.6918 62.7836 84.6918 63.9082V65.2604H82.4518H82.4473ZM83.6856 64.4317V63.7579C83.6856 63.2116 83.5809 62.8018 83.0801 62.8018C82.6112 62.8018 82.4518 63.1524 82.4518 63.7625V64.4226H83.6856V64.4317Z" fill="white"/>
<path d="M86.5722 62.0188C86.7543 63.1252 87.1777 65.5883 87.328 66.8358H87.3371C87.4418 65.6611 87.9335 63.1934 88.1338 62.0188H89.1673L87.888 67.9968H86.7133L85.4658 62.0188H86.5767H86.5722Z" fill="white"/>
<path d="M90.9521 65.2604V66.1846C90.9521 66.7082 91.0569 67.209 91.5713 67.209C92.0858 67.209 92.1678 66.7628 92.1678 66.2802V66.2484H93.1694V66.2802C93.1694 66.9313 93.0283 68.0923 91.5895 68.0923C90.1508 68.0923 89.9277 67.1954 89.9277 65.9843V63.9082C89.9277 63.0568 90.2237 61.9231 91.5895 61.9231C92.8143 61.9231 93.1967 62.7836 93.1967 63.9082V65.2604H90.9567H90.9521ZM92.1905 64.4317V63.7579C92.1905 63.2116 92.0858 62.8018 91.585 62.8018C91.116 62.8018 90.9567 63.1524 90.9567 63.7625V64.4226H92.1905V64.4317Z" fill="white"/>
<path d="M94.3894 67.9967V59.8879H95.4229V67.9967H94.3894Z" fill="white"/>
<path d="M99.9941 63.799V66.1847C99.9941 67.4641 99.3658 68.0924 98.3095 68.0924C97.2532 68.0924 96.6477 67.4641 96.6477 66.1938V63.7626C96.6477 62.5151 97.3306 61.9277 98.3505 61.9277C99.3703 61.9277 99.9941 62.5879 99.9941 63.8035V63.799ZM97.6903 63.7352V66.2211C97.6903 66.7766 97.8633 67.1499 98.3323 67.1499C98.7557 67.1499 98.9515 66.8494 98.9515 66.2029V63.7216C98.9515 63.2117 98.8012 62.8247 98.3232 62.8247C97.8861 62.8383 97.6858 63.1661 97.6858 63.7307L97.6903 63.7352Z" fill="white"/>
<path d="M101.214 63.7352C101.214 62.9248 101.214 62.383 101.205 62.0097H102.189C102.211 62.128 102.234 62.383 102.234 62.6152C102.393 62.2328 102.721 61.9141 103.313 61.9141C104.146 61.9141 104.547 62.4877 104.547 63.6624V66.1483C104.547 67.5005 104.069 68.0787 103.213 68.0787C102.667 68.0787 102.384 67.8101 102.243 67.5323V69.9955H101.21V63.7307L101.214 63.7352ZM102.248 65.9707C102.248 66.6218 102.352 67.1454 102.89 67.1454C103.359 67.1454 103.509 66.7857 103.509 66.1665V63.7352C103.509 63.116 103.304 62.8611 102.935 62.8611C102.448 62.8611 102.252 63.2207 102.252 63.9401V65.9661H102.243L102.248 65.9707Z" fill="white"/>
<path d="M105.785 63.7534C105.785 62.6015 105.785 62.2964 105.776 62.0187H106.76C106.792 62.1917 106.792 62.3511 106.805 62.5514C106.987 62.1553 107.338 61.9231 107.839 61.9231C108.34 61.9231 108.64 62.1234 108.786 62.5833C108.986 62.2327 109.296 61.9231 109.915 61.9231C110.534 61.9231 111.076 62.2236 111.076 63.3846V67.9967H110.029V63.5849C110.029 63.1387 109.924 62.861 109.542 62.861C109.064 62.861 108.945 63.2571 108.945 63.8717V67.9876H107.898V63.6168C107.898 63.0203 107.73 62.861 107.397 62.861C106.919 62.861 106.819 63.2662 106.819 63.8854V67.9967H105.785V63.7534Z" fill="white"/>
<path d="M113.325 65.2604V66.1846C113.325 66.7082 113.43 67.209 113.944 67.209C114.459 67.209 114.541 66.7628 114.541 66.2802V66.2484H115.551V66.2802C115.551 66.9313 115.41 68.0923 113.972 68.0923C112.533 68.0923 112.31 67.1954 112.31 65.9843V63.9082C112.31 63.0568 112.606 61.9231 113.972 61.9231C115.196 61.9231 115.579 62.7836 115.579 63.9082V65.2604H113.33H113.325ZM114.564 64.4317V63.7579C114.564 63.2116 114.459 62.8018 113.958 62.8018C113.489 62.8018 113.33 63.1524 113.33 63.7625V64.4226H114.564V64.4317Z" fill="white"/>
<path d="M116.749 63.8535C116.749 62.6469 116.749 62.2964 116.74 62.0186H117.723C117.746 62.1598 117.769 62.3783 117.769 62.5923C117.942 62.2099 118.27 61.9321 118.866 61.9321C119.567 61.9321 120.072 62.3373 120.072 63.4574V68.0057H119.025V63.6668C119.025 63.1113 118.843 62.87 118.47 62.87C118.015 62.87 117.787 63.1022 117.787 64.0447V68.0012H116.753V63.8535H116.744H116.749Z" fill="white"/>
<path d="M120.924 62.0187H121.584V60.5618H122.618V62.0187H123.414V62.9429H122.618V66.6809C122.618 66.9768 122.663 67.2272 123.041 67.2272C123.146 67.2272 123.31 67.2181 123.373 67.1954V67.9921C123.191 68.0877 122.895 68.0968 122.69 68.0968C122.007 68.0968 121.584 67.8646 121.584 66.8721V62.952H120.924V62.0233V62.0187Z" fill="white"/>
<path d="M126.273 60.2249H127.758C129.046 60.2249 129.538 60.8532 129.538 61.9595V62.2782C129.538 63.3755 129.178 63.7033 128.814 63.8535C129.196 63.981 129.688 64.3088 129.688 65.4106V65.9888C129.688 67.3183 129.178 68.0012 127.835 68.0012H126.26V60.2249H126.269H126.273ZM127.671 63.4347C128.354 63.4347 128.554 63.2025 128.554 62.3784V62.0506C128.554 61.3904 128.322 61.0945 127.703 61.0945H127.28V63.4301H127.671V63.4347ZM127.28 67.1407H127.726C128.472 67.1407 128.673 66.7901 128.673 65.9661V65.4334C128.673 64.6366 128.427 64.3043 127.671 64.3043H127.289V67.1407H127.28Z" fill="white"/>
<path d="M133.895 66.8585C133.895 67.241 133.895 67.7873 133.918 67.9967H132.962C132.939 67.8693 132.889 67.6234 132.889 67.5415C132.689 67.9376 132.343 68.0878 131.905 68.0878C131.022 68.0878 130.672 67.2865 130.672 66.3623V66.2575C130.672 64.8325 131.6 64.4045 132.675 64.4045H132.857V63.5713C132.857 63.0705 132.784 62.7746 132.379 62.7746C131.974 62.7746 131.878 63.0751 131.878 63.4985V63.6169H130.854V63.5121C130.854 62.6607 131.182 61.9141 132.411 61.9141C133.517 61.9141 133.891 62.556 133.891 63.4894V66.854L133.895 66.8585ZM132.88 65.2149H132.634C132.038 65.2149 131.655 65.4608 131.655 66.2484V66.344C131.655 66.8221 131.814 67.1727 132.229 67.1727C132.698 67.1727 132.88 66.8403 132.88 65.9889V65.2195V65.2149Z" fill="white"/>
<path d="M135.302 63.8535C135.302 62.6469 135.302 62.2964 135.293 62.0186H136.276C136.299 62.1598 136.322 62.3783 136.322 62.5923C136.495 62.2099 136.822 61.9321 137.419 61.9321C138.12 61.9321 138.625 62.3373 138.625 63.4574V68.0057H137.578V63.6668C137.578 63.1113 137.396 62.87 137.023 62.87C136.568 62.87 136.34 63.1022 136.34 64.0447V68.0012H135.306V63.8535H135.297H135.302Z" fill="white"/>
<path d="M141.066 64.6823H141.075C141.353 64.0221 141.926 62.7564 142.25 62.0189H143.347C142.951 62.8293 142.591 63.5304 142.227 64.2225L143.474 68.0059H142.336L141.526 65.2378C141.407 65.4609 141.175 65.9207 141.07 66.121V68.0059H140.037V59.8972H141.07V64.6823H141.061H141.066Z" fill="white"/>
<path d="M50.0852 50.3725C50.2218 50.3725 50.3402 50.3269 50.4358 50.2359C50.5314 50.1494 50.5769 50.031 50.5769 49.9035C50.5769 49.7669 50.5314 49.6577 50.4358 49.5712C50.3402 49.4847 50.2218 49.4346 50.0852 49.4346C49.9486 49.4346 49.8303 49.4801 49.7346 49.5712C49.639 49.6577 49.5935 49.7715 49.5935 49.9035C49.5935 50.0356 49.639 50.1494 49.7346 50.2359C49.8303 50.3224 49.9395 50.3725 50.0852 50.3725Z" fill="white"/>
<path d="M51.8198 50.3725C51.961 50.3725 52.0748 50.327 52.1795 50.236C52.2751 50.1495 52.3207 50.0356 52.3207 49.9036C52.3207 49.7716 52.2751 49.6577 52.1795 49.5621C52.0839 49.4756 51.9655 49.4255 51.8198 49.4255C51.6741 49.4255 51.5649 49.4711 51.4693 49.5621C51.3737 49.6532 51.3281 49.7625 51.3281 49.8945C51.3281 50.0265 51.3737 50.1403 51.4693 50.2268C51.5558 50.3225 51.6741 50.368 51.8198 50.368V50.3725Z" fill="white"/>
<path d="M54.4695 57.5295C54.3329 57.5295 54.2145 57.5751 54.1189 57.6707C54.0233 57.7663 53.9778 57.8756 53.9778 58.0121C53.9778 58.1487 54.0233 58.258 54.1189 58.3445C54.2145 58.431 54.3329 58.472 54.4695 58.472C54.6061 58.472 54.7245 58.431 54.8201 58.3445C54.9157 58.258 54.9612 58.1442 54.9612 58.0121C54.9612 57.8801 54.9157 57.7663 54.8201 57.6707C54.7245 57.5751 54.6061 57.5295 54.4695 57.5295Z" fill="white"/>
<path d="M56.1997 57.5295C56.0586 57.5295 55.9448 57.5751 55.8491 57.6707C55.7535 57.7663 55.708 57.8756 55.708 58.0121C55.708 58.1487 55.7535 58.258 55.8491 58.3445C55.9448 58.431 56.0631 58.472 56.1997 58.472C56.3409 58.472 56.4547 58.431 56.5594 58.3445C56.655 58.258 56.7005 58.1442 56.7005 58.0121C56.7005 57.8801 56.655 57.7572 56.5594 57.6707C56.4638 57.566 56.3454 57.5295 56.1997 57.5295Z" fill="white"/>
<path d="M65.7471 50.723C65.8882 50.723 66.0111 50.6775 66.1113 50.5864C66.2069 50.4999 66.2524 50.3815 66.2524 50.2359C66.2524 50.0902 66.2069 49.9809 66.1113 49.8853C66.0157 49.7897 65.8882 49.7441 65.7471 49.7441C65.6059 49.7441 65.483 49.7897 65.3828 49.8853C65.2872 49.9809 65.2417 50.0902 65.2417 50.2359C65.2417 50.3815 65.2872 50.4908 65.3828 50.5864C65.4784 50.6729 65.5968 50.723 65.7471 50.723Z" fill="white"/>
<path d="M70.1453 50.7229C70.2864 50.7229 70.4093 50.6774 70.505 50.5863C70.6006 50.4952 70.6461 50.386 70.6461 50.2539C70.6461 50.1219 70.6006 50.0081 70.505 49.9125C70.4093 49.826 70.291 49.7759 70.1453 49.7759C69.9996 49.7759 69.8903 49.8214 69.7947 49.9125C69.6991 49.999 69.6536 50.1128 69.6536 50.2448C69.6536 50.3769 69.6991 50.4907 69.7947 50.5772C69.8903 50.6728 70.0087 50.7183 70.1453 50.7183V50.7229Z" fill="white"/>
<path d="M68.4107 50.7231C68.5472 50.7231 68.6656 50.6775 68.7612 50.5865C68.8568 50.5 68.9024 50.3816 68.9024 50.2541C68.9024 50.1175 68.8568 50.0082 68.7612 49.9217C68.6656 49.8352 68.5472 49.7852 68.4107 49.7852C68.2741 49.7852 68.1557 49.8307 68.0601 49.9217C67.9645 50.0128 67.9189 50.1221 67.9189 50.2541C67.9189 50.3861 67.9645 50.5 68.0601 50.5865C68.1557 50.673 68.2741 50.7231 68.4107 50.7231Z" fill="white"/>
<path d="M75.932 55.8769H73.4052V49.3207H72.6903V55.8769H69.6945V51.7292H68.9797V55.8769H66.1433V51.7292H65.4285V55.8769H63.2522C63.4024 55.5491 63.4753 55.194 63.4753 54.8206C63.4753 54.0831 63.2203 53.4593 62.7286 52.9585C62.2278 52.4577 61.6177 52.2027 60.8847 52.2027C60.1516 52.2027 59.5416 52.4577 59.0498 52.9676C58.5581 53.4775 58.3123 54.0967 58.3123 54.8297C58.3123 55.1894 58.3851 55.5445 58.5263 55.886H55.7672V51.7383H55.0524V55.886H52.1977V51.2921H51.4829V51.7383H51.0686C50.1853 51.7383 49.4705 51.9705 48.9242 52.4304C48.3824 52.8765 48.1138 53.4639 48.1138 54.1696C48.1138 54.9709 48.3915 55.5764 48.9561 55.9816C49.5206 56.3959 50.2218 56.5917 51.0686 56.5917H53.1493H53.3177H58.9861C59.4869 57.1335 60.1243 57.393 60.8847 57.393C61.645 57.393 62.2824 57.1244 62.7923 56.5917H76.6559V49.3162H75.9411V55.8723L75.932 55.8769ZM51.4738 55.8769H50.7681C50.2127 55.8769 49.7528 55.7267 49.3749 55.4171C49.0016 55.1075 48.8195 54.7022 48.8195 54.1832C48.8195 53.6642 49.0198 53.2544 49.4068 52.9266C49.7983 52.5988 50.2491 52.4395 50.7681 52.4395H51.4738V55.8723V55.8769ZM62.2141 56.1455C61.8499 56.5052 61.4037 56.6782 60.871 56.6782C60.3383 56.6782 59.9012 56.4961 59.5507 56.1319C59.2001 55.7676 59.0271 55.3214 59.0271 54.8024C59.0271 54.2834 59.2001 53.8417 59.5507 53.473C59.9012 53.1087 60.3474 52.9266 60.8801 52.9266C61.4128 52.9266 61.8635 53.1087 62.2232 53.4684C62.5829 53.8281 62.765 54.2788 62.765 54.8206C62.765 55.3624 62.5829 55.7995 62.2187 56.1501L62.2141 56.1455Z" fill="white"/>
<path d="M82.8389 54.3151C82.98 54.3151 83.1029 54.2696 83.2031 54.1786C83.2987 54.092 83.3442 53.9737 83.3442 53.828C83.3442 53.6823 83.2987 53.573 83.2031 53.4774C83.1075 53.3818 82.98 53.3408 82.8389 53.3408C82.6977 53.3408 82.5748 53.3863 82.4746 53.4774C82.379 53.573 82.3335 53.6823 82.3335 53.828C82.3335 53.9737 82.379 54.0829 82.4746 54.1786C82.5702 54.2651 82.6886 54.3151 82.8389 54.3151Z" fill="white"/>
<path d="M82.8389 56.018C82.98 56.018 83.1029 55.9725 83.2031 55.8814C83.2987 55.7949 83.3442 55.6766 83.3442 55.5309C83.3442 55.3852 83.2987 55.2759 83.2031 55.1803C83.1075 55.0847 82.98 55.0437 82.8389 55.0437C82.6977 55.0437 82.5748 55.0892 82.4746 55.1803C82.379 55.2759 82.3335 55.3852 82.3335 55.5309C82.3335 55.6766 82.379 55.7858 82.4746 55.8814C82.5702 55.977 82.6886 56.018 82.8389 56.018Z" fill="white"/>
<path d="M92.5136 52.1936C91.7806 52.1936 91.1705 52.4486 90.6788 52.9585C90.1871 53.4685 89.9413 54.0877 89.9413 54.8207C89.9413 55.1804 90.0141 55.5355 90.1552 55.8769H88.1064V51.7292H86.5084C85.921 51.7292 85.4521 51.8704 85.1106 52.1527C84.6872 52.5123 84.4823 53.0268 84.4823 53.6961V57.0015H82.3925C81.869 57.0015 81.3454 56.8649 80.8263 56.5963L80.4985 57.2337C81.1086 57.5615 81.8189 57.7209 82.6202 57.7209H85.1971V53.5777C85.1971 53.2135 85.3155 52.9267 85.5614 52.7354C85.8072 52.5442 86.1259 52.4486 86.5175 52.4486H87.3916V56.5963H90.6196C91.1205 57.1381 91.7397 57.3976 92.4863 57.3976C93.233 57.3976 93.8522 57.1518 94.353 56.66C94.8629 56.1683 95.1179 55.5537 95.1179 54.8161C95.1179 54.0785 94.8629 53.4548 94.3712 52.9494C93.8613 52.4577 93.2512 52.2028 92.5182 52.2028L92.5136 52.1936ZM93.8431 56.1456C93.4789 56.5052 93.0327 56.6783 92.5 56.6783C91.9673 56.6783 91.5302 56.4961 91.1796 56.1319C90.8291 55.7677 90.6561 55.3215 90.6561 54.8025C90.6561 54.2834 90.8291 53.8418 91.1796 53.473C91.5302 53.1088 91.9764 52.9267 92.5091 52.9267C93.0418 52.9267 93.4925 53.1088 93.8522 53.4685C94.2119 53.8281 94.394 54.2789 94.394 54.8207C94.394 55.3443 94.2119 55.7995 93.8477 56.1501L93.8431 56.1456Z" fill="white"/>
<path d="M98.1457 50.3406H97.4309V55.3897H98.1457V50.3406Z" fill="white"/>
<path d="M111.067 54.5929C111.067 55.0163 110.957 55.3487 110.725 55.5854C110.493 55.8313 110.17 55.9497 109.746 55.9497C109.323 55.9497 108.977 55.8313 108.713 55.59C108.449 55.3487 108.308 55.0482 108.299 54.6931V52.1571H107.584V54.6521C107.584 55.0664 107.465 55.3669 107.233 55.5672C107.001 55.7676 106.719 55.8677 106.368 55.8677H104.975V52.1617H104.26V55.8677H102.375C101.952 55.8677 101.619 55.804 101.374 55.6765C101.128 55.549 100.927 55.3487 100.786 55.0892C100.864 54.8342 100.905 54.5792 100.905 54.3243V49.3662H101.565V48.6514H100.181V54.3288C100.181 54.8524 100.03 55.244 99.7117 55.4989C99.393 55.7539 98.9787 55.8723 98.4551 55.8723H95.9829L96.0694 56.5871H98.182C99.3521 56.5871 100.14 56.2684 100.545 55.6264C100.686 55.9133 100.895 56.1409 101.164 56.3185C101.401 56.4778 101.742 56.5552 102.179 56.5734V56.5825H106.354C107.046 56.5825 107.57 56.3139 107.943 55.7539C108.308 56.3594 108.904 56.669 109.714 56.669C111.089 56.669 111.772 55.936 111.772 54.4745V51.201H111.058V54.5975L111.067 54.5929Z" fill="white"/>
<path d="M114.969 50.3406H114.254V55.3897H114.969V50.3406Z" fill="white"/>
<path d="M113.721 57.8392C113.721 58.5631 114.054 58.9183 114.732 58.9183H115.096V58.5131H114.796C114.422 58.5131 114.24 58.3446 114.24 58.0122H115.383V57.5342H113.721V57.8347V57.8392Z" fill="white"/>
<path d="M116.995 54.3336C116.995 54.8571 116.844 55.2487 116.526 55.5037C116.207 55.7586 115.793 55.877 115.269 55.877H112.806L112.892 56.5918H115.005C115.92 56.5918 116.603 56.3915 117.049 56.0045C117.495 55.6084 117.718 55.0484 117.718 54.3336V49.3754H118.379V48.6606H116.995V54.3381V54.3336Z" fill="white"/>
<path d="M120.905 49.3162H120.191V56.5917H120.905V49.3162Z" fill="white"/>
<path d="M129.802 53.2181H128.473V52.8584C128.473 52.69 128.514 52.5625 128.591 52.4851C128.668 52.3986 128.796 52.3576 128.987 52.3576H129.511V51.9524H128.969C128.627 51.9524 128.372 52.0389 128.204 52.2165C128.035 52.3895 127.949 52.6626 127.949 53.0451V53.6962H129.793V53.2181H129.802Z" fill="white"/>
<path d="M134.332 50.723C134.473 50.723 134.596 50.6775 134.696 50.5864C134.792 50.4999 134.837 50.3815 134.837 50.2359C134.837 50.0902 134.792 49.9809 134.696 49.8853C134.601 49.7897 134.473 49.7441 134.332 49.7441C134.191 49.7441 134.068 49.7897 133.968 49.8853C133.872 49.9809 133.827 50.0902 133.827 50.2359C133.827 50.3815 133.872 50.4908 133.968 50.5864C134.063 50.6729 134.191 50.723 134.332 50.723Z" fill="white"/>
<path d="M137.082 57.5022C136.941 57.5022 136.818 57.5477 136.718 57.6388C136.622 57.7344 136.568 57.8437 136.568 57.9894C136.568 58.1351 136.613 58.2443 136.709 58.3308C136.804 58.4173 136.932 58.4674 137.073 58.4674C137.214 58.4674 137.337 58.4219 137.437 58.3308C137.533 58.2443 137.578 58.1259 137.578 57.9894C137.578 57.8528 137.533 57.7344 137.437 57.6479C137.342 57.5523 137.223 57.5067 137.078 57.5067L137.082 57.5022Z" fill="white"/>
<path d="M139.732 55.877H137.442V51.7293H136.727V55.877H134.733V51.7293H134.018V55.877H131.855V49.3208H131.14V55.877H128.222C127.617 55.877 127.157 55.7495 126.847 55.5036C126.537 55.2487 126.378 54.8435 126.378 54.2789V52.5716H125.663V54.3836C125.663 54.6796 125.718 54.971 125.823 55.276C125.927 55.5765 126.091 55.8315 126.323 56.0318C126.547 56.2321 126.815 56.3732 127.125 56.4689C127.434 56.5554 127.84 56.6054 128.35 56.6054H140.456V49.3299H139.741V55.8815H139.732V55.877Z" fill="white"/>
<path d="M143.219 49.3162H142.505V56.5917H143.219V49.3162Z" fill="white"/>
<path d="M120.04 31.1137C120.04 31.4734 119.922 31.7876 119.731 32.0607L121.265 34.3099L124.826 34.3326L125.581 34.3417L125.836 33.7954L127.093 31.0864L124.853 28.0269L120.887 27.8584L119.558 29.9664C119.854 30.2623 120.045 30.6675 120.045 31.1183L120.04 31.1137Z" fill="white"/>
<path d="M118.424 29.4974C118.625 29.4974 118.807 29.5383 118.98 29.6021L120.282 27.5442L118.352 25.3269L117.741 25.3724L114.723 25.5955L112.647 28.259L114.29 30.9133L115.825 30.7949L116.867 30.7175C117.049 30.0164 117.669 29.5019 118.424 29.5019V29.4974Z" fill="white"/>
<path d="M115.929 38.626L118.584 38.5486L118.743 38.2527L120.692 34.6695L119.23 32.516C118.993 32.6526 118.72 32.7391 118.429 32.7391C117.632 32.7391 116.972 32.1609 116.849 31.396L115.893 31.4688L114.317 31.5872L112.196 35.1385L113.166 36.8549C113.348 36.8094 113.539 36.7775 113.739 36.7775C114.836 36.7866 115.752 37.5788 115.934 38.6306L115.929 38.626Z" fill="white"/>
<path d="M115.952 39.2862C115.815 40.3926 114.878 41.2485 113.735 41.2485C113.585 41.2485 113.439 41.2349 113.298 41.2076L112.146 43.5523H112.137L114.14 46.8896H119.012L121.11 43.2746L118.597 39.2134L115.952 39.2862Z" fill="white"/>
<path d="M125.595 35.0065L125.176 35.0019L121.279 34.9746L119.239 38.7444L119.176 38.8537L121.493 42.6144L125.882 42.4869L127.758 38.6078L126.679 36.8049L125.595 35.0065Z" fill="white"/>
<path d="M127.234 25.764L126.592 25.6365L125.914 26.8111L125.413 27.6716L127.658 30.7312L129.31 30.9679L131.072 31.2183L131.71 29.2697L131.828 28.8872L129.629 26.2238L127.234 25.764Z" fill="white"/>
<path d="M131.814 34.9746C131.814 34.5466 132.028 34.1642 132.361 33.9411L131.145 31.9606L131.104 31.8877L129.324 31.6327L127.662 31.396L126.264 34.41L126.16 34.6422L127.239 36.4452L128.318 38.2481L131.846 38.2572L131.956 37.9567L132.638 36.1356C132.16 35.9762 131.805 35.5164 131.805 34.9746H131.814Z" fill="white"/>
<path d="M134.287 34.7924L135.106 34.8789L135.821 34.9563L136.235 32.6844L134.778 30.2532L134.514 29.8161L134.214 29.7296L132.424 29.2288L132.306 29.6021L131.678 31.5416L131.732 31.6281L133.03 33.7361H133.071C133.681 33.727 134.191 34.1914 134.287 34.7924Z" fill="white"/>
<path d="M135.853 35.6347L135.106 35.5573L134.209 35.4617C134.059 35.8213 133.74 36.09 133.358 36.1856L132.761 37.7745L132.452 38.5941L134.032 41.8949L136.303 41.6627L137.132 38.7079L135.853 35.6392V35.6347Z" fill="white"/>
<path d="M136.827 33.0942L136.431 35.2842L137.71 38.3483L138.735 38.3528L138.935 36.1037L137.911 33.5632L137.323 33.3082L136.827 33.0942Z" fill="white"/>
<path d="M139.427 35.5027L139.277 34.6832L138.776 33.1079L138.452 32.1564L138.393 32.0972L138.489 33.2263L139.427 35.5027Z" fill="white"/>
<path d="M139.636 36.6635L139.604 36.6453L139.563 36.6226L139.381 38.6714L139.882 41.0252L139.955 41.0025L140.096 38.9445L139.636 36.6635Z" fill="white"/>
<path d="M137.751 39.0129H137.733L136.923 41.9177L138.657 44.6676L139.062 43.9255L139.286 41.4624L138.767 39.022L137.751 39.0129Z" fill="white"/>
<path d="M130.189 25.8596L132.393 28.5276L134.446 29.1013L134.596 27.9312L133.321 26.4469L132.638 25.6456L130.631 24.8352L130.189 25.8596Z" fill="white"/>
<path d="M135.161 27.5761L135.917 28.0268L135.885 27.8994L133.672 25.4772L133.18 25.1494L133.171 25.245L133.904 26.0964L135.161 27.5761Z" fill="white"/>
<path d="M135.224 28.3955L135.111 29.5246L136.804 32.3611L137.25 32.5523L137.783 32.78L137.669 31.496L137.665 31.3913L136.836 30.0391L136.199 28.9828L135.662 28.655L135.224 28.3955Z" fill="white"/>
<path d="M123.269 23.3555L120.614 23.1506H120.582L118.943 24.9946L120.86 27.1982L124.835 27.3666L125.336 26.5061L126.005 25.3451L124.917 24.3298L124.48 23.9246C124.375 23.9656 124.275 23.9884 124.152 23.9884C123.738 23.9747 123.396 23.7197 123.269 23.3601V23.3555Z" fill="white"/>
<path d="M124.967 23.4647L125.509 23.9655L126.583 24.9581L129.611 25.5363L130.057 24.4937L128.072 22.7863L125.354 22.1489L125.331 22.1808L124.967 22.5951C125.04 22.7317 125.085 22.8728 125.085 23.0413C125.076 23.1824 125.04 23.3281 124.976 23.4647H124.967Z" fill="white"/>
<path d="M132.52 24.8715V24.6894L130.749 23.2097L128.973 22.1716L128.705 22.4585L130.622 24.1112L132.52 24.8715Z" fill="white"/>
<path d="M120.136 20.7559L119.125 21.416L120.555 22.4814L123.273 22.6954C123.41 22.3539 123.742 22.1081 124.138 22.1081C124.248 22.1081 124.352 22.1308 124.448 22.1627L124.648 21.9487L124.721 21.8713L123.219 20.9425L120.182 20.7604H120.136V20.7559Z" fill="white"/>
<path d="M120.214 20.0865L122.973 20.2231L122.649 20.1685L119.936 20L120.15 20.0865H120.214Z" fill="white"/>
<path d="M118.452 21.7393L115.301 22.0671L113.575 23.6105L113.849 23.9338L114.7 24.9263L117.705 24.7078L118.338 24.6577L119.945 22.8456L119.863 22.7819L118.452 21.7393Z" fill="white"/>
<path d="M115.233 21.4069L118.424 21.0746L118.752 20.8606L119.335 20.4781L118.807 20.2642L115.765 20.5464L114.746 21.1383L115.174 21.3751L115.233 21.4069Z" fill="white"/>
<path d="M125.367 21.4707L128.117 22.1127L128.299 21.9169L128.377 21.8349L128.054 21.6528L124.293 20.46L123.992 20.6284L124.175 20.7377L125.367 21.4707Z" fill="white"/>
<path d="M108.353 27.576L108.809 28.6551L111.226 28.1224L112.055 27.9403L114.131 25.2768L113.184 24.1659L113.015 23.9656L110.052 24.6804L108.453 26.5015C108.526 26.6427 108.572 26.7975 108.572 26.9705C108.563 27.1936 108.485 27.4076 108.358 27.576H108.353Z" fill="white"/>
<path d="M107.57 25.9689C107.707 25.9689 107.825 25.9917 107.944 26.0418L109.455 24.339L109.2 23.9155L109.159 23.8518L107.347 24.685L105.79 26.2922L105.376 26.7383L105.494 27.4395L106.569 26.9797C106.569 26.4151 107.015 25.9689 107.57 25.9689Z" fill="white"/>
<path d="M109.109 23.1461L109.173 23.1006L109.323 22.9822L108.736 23.3236L108.777 23.3009L109.109 23.1461Z" fill="white"/>
<path d="M112.924 23.2417L114.586 21.803L114.545 21.7893L114.031 21.4934L111.422 22.1763L110.229 23.1142L109.724 23.5149L110.015 23.9975L112.924 23.2417Z" fill="white"/>
<path d="M108.818 29.338L107.98 30.6675L106.869 32.4568L108.085 35.2386L111.472 34.8425L111.604 34.8243L113.689 31.2639L112.073 28.6187L111.326 28.7826L108.818 29.338Z" fill="white"/>
<path d="M104.602 32.566L105.699 32.2883L106.273 32.1472L107.443 30.2805L108.23 29.0239L107.784 27.9494C107.711 27.963 107.643 27.9722 107.561 27.9722C107.261 27.9722 106.987 27.8356 106.805 27.6216L105.399 28.259L104.065 30.3351L103.691 30.9088L103.969 32.2064C104.215 32.261 104.438 32.3976 104.606 32.5706L104.602 32.566Z" fill="white"/>
<path d="M101.137 36.4953L102.084 36.2631L102.894 34.4009C102.607 34.1687 102.425 33.8227 102.425 33.4312C102.425 32.8757 102.79 32.4068 103.29 32.2383L103.099 31.3459L102.17 31.8559L102.02 31.9333L100.859 34.6377L101 36.5317L101.137 36.4907V36.4953Z" fill="white"/>
<path d="M104.879 27.84L104.779 27.2026L104.151 27.6488L103.778 27.9083L102.193 30.2622L102.129 31.1136L103.099 30.59L104.879 27.84Z" fill="white"/>
<path d="M103.687 34.6923C103.623 34.6923 103.568 34.6832 103.504 34.6786L102.676 36.5727L103.495 39.3089L105.89 39.054L106.924 36.8504L107.511 35.5938L107.306 35.1248L106.304 32.8347L105.694 32.9941L104.929 33.1944C104.943 33.2718 104.952 33.3629 104.952 33.4494C104.952 34.1323 104.388 34.6969 103.687 34.6969V34.6923Z" fill="white"/>
<path d="M111.504 39.013C111.504 38.2162 111.927 37.5196 112.551 37.119L111.627 35.489L111.317 35.53L108.098 35.9124L107.511 37.169L106.487 39.3635L108.157 42.8829H111.741L112.679 40.9844C111.973 40.5928 111.504 39.8644 111.504 39.013Z" fill="white"/>
<path d="M103.568 39.9691L102.68 42.9558L104.005 45.9607L106.409 46.2657L107.575 43.2289L105.913 39.7778L103.568 39.9691Z" fill="white"/>
<path d="M100.24 35.2932L99.7711 35.7303C99.6026 36.5316 99.293 38.2435 99.334 39.9372L99.6436 39.9281L100.368 36.9232L100.24 35.2932Z" fill="white"/>
<path d="M102.093 36.9458L101.337 37.1325L100.978 37.219L100.317 39.9598L100.955 42.5049L102.075 42.6233L102.908 39.6593L102.093 36.9458Z" fill="white"/>
</g>
<defs>
<clipPath id="clip0_4280_2406">
<rect width="95.3742" height="50" fill="white" transform="translate(48.1001 20)"/>
</clipPath>
</defs>
</svg>
