<svg width="247" height="90" viewBox="0 0 247 90" fill="none" xmlns="http://www.w3.org/2000/svg">
<g clip-path="url(#clip0_4280_2720)">
<path d="M196.654 53.8795C195.447 55.1493 194.07 55.9138 192.358 56.2612C191.196 56.495 190.178 56.5455 189.01 56.4255C187.443 56.2612 186.154 55.7558 184.897 54.8145C183.867 54.05 183.128 53.2161 182.49 52.1042C181.997 51.2387 181.7 50.43 181.542 49.4445C181.315 48.0799 181.378 46.8795 181.732 45.5465C182.553 42.514 184.821 40.366 187.891 39.7216C189.635 39.3552 191.196 39.3931 192.927 39.8416C194.159 40.1638 195.144 40.7008 196.073 41.5664C196.66 42.116 197.077 42.6656 197.444 43.3795C197.88 44.2198 198.063 45.0411 198.006 45.9887H192.541C192.421 45.2559 192.067 44.6683 191.48 44.2198C190.715 43.6322 189.73 43.588 188.909 44.0997C188.353 44.4472 187.98 44.921 187.79 45.5528C187.31 47.0501 187.291 48.44 187.715 49.9562C187.891 50.5943 188.195 51.0934 188.675 51.5483C189.218 52.0663 189.907 52.2811 190.652 52.1737C191.12 52.1042 191.499 51.902 191.808 51.5483C192.124 51.1818 192.32 50.7901 192.402 50.31C192.459 49.9688 192.497 49.6846 192.516 49.3434H198.278C198.391 51.0871 197.848 52.6159 196.648 53.8858" fill="white"/>
<path d="M180.595 33.4988H174.618V37.7379H180.595V33.4988Z" fill="white"/>
<path d="M180.595 39.9175H174.618V55.9643H180.595V39.9175Z" fill="white"/>
<path d="M162.229 41.6107C163.019 40.922 163.764 40.4356 164.712 39.9934C166.26 39.2795 167.801 39.1594 169.438 39.6396C171.188 40.1576 172.451 41.3896 173.007 43.1395C173.266 43.9798 173.386 44.7253 173.386 45.6034V55.9644H167.037V46.6522C167.037 46.3426 166.999 46.0773 166.904 45.7803C166.746 45.2433 166.393 44.8516 165.881 44.6305C164.756 44.1504 163.474 44.5737 162.855 45.635C162.602 46.0709 162.482 46.5132 162.482 47.0249V55.9644H156.329V39.9175H162.097L162.229 41.6107Z" fill="white"/>
<path d="M91.5094 41.6107C92.2927 40.922 93.0509 40.4356 93.9922 39.9934C95.54 39.2795 97.0878 39.1594 98.7178 39.6396C100.474 40.1576 101.738 41.3896 102.287 43.1395C102.553 43.9798 102.673 44.7253 102.673 45.6034V55.9644H96.3234V46.6522C96.3234 46.3426 96.2918 46.0773 96.1971 45.7803C96.0328 45.2433 95.679 44.8516 95.161 44.6305C94.0364 44.1504 92.7539 44.5737 92.1411 45.635C91.8758 46.0709 91.7621 46.5132 91.7621 47.0249V55.9644H85.615V39.9175H91.3767L91.5094 41.6107Z" fill="white"/>
<path d="M129.194 50.0636C129.655 50.1394 130.028 50.2342 130.477 50.3858C130.843 50.5058 131.096 50.7901 131.172 51.1755C131.26 51.5861 131.146 51.9778 130.85 52.2811C130.553 52.5906 130.205 52.7549 129.782 52.8244C129.226 52.9128 128.72 52.8686 128.183 52.6728C127.918 52.578 127.716 52.458 127.501 52.2811C127.223 52.0473 127.046 51.782 126.939 51.4345C126.85 51.1439 126.819 50.8912 126.819 50.5816H120.962V50.9228C120.962 51.4787 121.045 51.9462 121.247 52.4643C121.531 53.2414 121.935 53.8415 122.542 54.4101C123.338 55.1493 124.159 55.6168 125.208 55.9137C127.375 56.5329 129.321 56.6592 131.551 56.3181C132.593 56.1538 133.459 55.8758 134.394 55.3894C134.804 55.1746 135.133 54.9471 135.499 54.6502C137.079 53.3172 137.666 51.2829 137.035 49.3118C136.794 48.5663 136.415 47.9914 135.834 47.4797C135.019 46.7784 134.204 46.3298 133.174 46.0266C132.953 45.9634 132.757 45.9066 132.536 45.8497C131.279 45.4959 130.205 45.2685 128.91 45.079C128.569 45.0284 128.278 44.9716 127.943 44.8957C127.785 44.8578 127.653 44.8136 127.507 44.7504C127.147 44.5862 126.989 44.1629 127.147 43.8028C127.154 43.7838 127.166 43.7712 127.173 43.7522C127.368 43.4048 127.653 43.1773 128.038 43.0636C128.708 42.8678 129.321 42.8867 129.978 43.1078C130.609 43.3226 131.007 43.9039 130.976 44.5735H136.611C136.611 43.8786 136.504 43.2911 136.27 42.634C136.03 41.9707 135.664 41.4716 135.114 41.0293C134.634 40.6503 134.179 40.3849 133.604 40.1701C133.042 39.949 132.555 39.8163 131.968 39.7089C130.565 39.4626 129.365 39.3994 127.956 39.4815C127.141 39.5321 126.459 39.6268 125.669 39.8163C124.601 40.0627 123.742 40.4797 122.883 41.1557C122.15 41.7306 121.67 42.4066 121.367 43.2847C121.234 43.6828 121.158 44.0365 121.139 44.4598C121.108 45.1611 121.209 45.7613 121.474 46.412C121.935 47.5871 122.757 48.421 123.932 48.8822C124.526 49.1222 125.037 49.2802 125.669 49.4002C126.901 49.6593 127.943 49.8551 129.182 50.0699" fill="white"/>
<path d="M59.2009 49.0402H55.1008V43.7776H57.7668C58.2785 43.7776 58.7081 43.765 59.2072 43.7397C59.9085 43.6955 60.4897 43.3859 60.913 42.8173C61.1404 42.5204 61.2542 42.2171 61.3173 41.8444C61.3616 41.5285 61.3679 41.2632 61.33 40.9536C61.2163 39.7848 60.256 38.9004 59.0746 38.9004H55.1008V55.9643H48.303V33.4988H59.4031C59.8453 33.4988 60.2181 33.5051 60.6603 33.5304C63.6043 33.6883 66.024 35.3309 67.2812 38.0096C67.9319 39.4058 68.153 40.7514 67.9888 42.2803C67.635 45.5086 65.3859 48.0104 62.2208 48.7117C61.1784 48.9391 60.2749 49.0402 59.1946 49.0402" fill="white"/>
<path d="M148.381 39.608C147.743 39.5069 147.206 39.469 146.561 39.469C145.917 39.469 145.38 39.5132 144.754 39.608C142.916 39.8986 141.425 40.6378 140.079 41.9266C138.645 43.3101 137.868 44.9464 137.685 46.9301C137.578 48.1558 137.672 49.2045 138.001 50.3859C138.5 52.1927 139.441 53.5953 140.932 54.7388C141.912 55.4906 142.884 55.9454 144.085 56.2108C144.938 56.4003 145.683 56.4761 146.561 56.4761C147.439 56.4761 148.185 56.4003 149.038 56.2108C150.238 55.9454 151.217 55.4969 152.197 54.7388L148.76 50.9798C148.21 52.1991 146.789 52.7361 145.569 52.1927C145.014 51.9337 144.616 51.542 144.363 50.9798C144.135 50.4617 143.996 49.9942 143.914 49.4319C143.744 48.3074 143.763 47.3282 143.984 46.2099C144.097 45.6287 144.287 45.1549 144.609 44.6621C145.317 43.5755 146.764 43.2785 147.844 43.9861C148.128 44.1693 148.33 44.3778 148.513 44.6621C148.836 45.1549 149.032 45.6287 149.145 46.2099C149.36 47.3282 149.385 48.3074 149.215 49.4319C149.126 49.9942 148.987 50.4617 148.76 50.9798L152.197 54.7388C153.688 53.5953 154.629 52.1927 155.128 50.3859C155.457 49.2045 155.551 48.1558 155.444 46.9301C155.267 44.9401 154.477 43.3038 153.043 41.9266C151.704 40.6378 150.219 39.8923 148.381 39.608Z" fill="white"/>
<path d="M120.324 54.7009C120.236 53.3742 120.185 52.256 120.16 50.9293C120.122 49.1919 120.103 47.7136 120.091 45.9762C120.091 45.0412 119.983 44.2389 119.743 43.3354C119.44 42.1414 118.739 41.238 117.671 40.6315C117.027 40.2714 116.433 40.0439 115.706 39.886C113.406 39.3932 111.372 39.349 109.041 39.7533C108.39 39.867 107.847 40.025 107.228 40.2777C105.813 40.8652 104.84 41.9392 104.385 43.4049C104.214 43.9672 104.157 44.4726 104.233 45.0602C104.246 45.1676 104.271 45.256 104.322 45.3571L109.704 45.4898C109.685 45.1486 109.73 44.8517 109.85 44.5358C110.02 44.043 110.374 43.6892 110.867 43.5123C111.587 43.247 112.282 43.2344 113.008 43.4744C113.489 43.6324 113.836 43.9798 113.981 44.4663C114.076 44.7695 114.026 45.0665 113.849 45.3255C113.684 45.5593 113.489 45.7109 113.23 45.812C113.072 45.8751 112.933 45.9194 112.768 45.9636C112.023 46.1657 111.385 46.3047 110.627 46.4311C110.02 46.5322 109.509 46.6269 108.915 46.747C108.093 46.9112 107.417 47.0881 106.628 47.3471C105.901 47.5809 105.339 47.9157 104.777 48.4275C104.05 49.0971 103.633 49.8868 103.494 50.8661C103.406 51.5231 103.431 52.0917 103.576 52.7361C103.949 54.4103 105.105 55.6485 106.748 56.1287C108.58 56.6594 110.279 56.5709 112.036 55.8633C112.882 55.5159 113.545 55.0357 114.127 54.3282L113.748 51.5673C113.476 51.9906 113.141 52.2812 112.686 52.4771C112.263 52.6666 111.878 52.7677 111.41 52.8119C111.018 52.8498 110.69 52.8246 110.311 52.7235C110.008 52.635 109.774 52.496 109.553 52.2623C109.37 52.0728 109.262 51.858 109.205 51.5926C109.123 51.1883 109.256 50.8029 109.565 50.5312C109.774 50.3544 109.989 50.2343 110.241 50.1396C110.867 49.9058 111.404 49.7289 112.036 49.552C112.819 49.3309 113.451 49.0971 114.177 48.7623C114.253 49.3435 114.247 49.8489 114.165 50.4365C114.108 50.8661 113.975 51.2136 113.741 51.58L114.12 54.3408C114.24 54.7325 114.348 55.061 114.48 55.4464C114.556 55.6675 114.657 55.8318 114.803 55.996H120.729C120.482 55.5917 120.343 55.2063 120.318 54.7325" fill="white"/>
<path d="M84.4273 54.7009C84.3389 53.3742 84.2883 52.256 84.2631 50.9293C84.2315 49.1919 84.2125 47.7136 84.1936 45.9762C84.1936 45.0412 84.0862 44.2389 83.8524 43.3354C83.5429 42.1414 82.8479 41.238 81.7739 40.6315C81.1295 40.2714 80.542 40.0439 79.8091 39.886C77.5095 39.3932 75.4689 39.349 73.144 39.7533C72.4933 39.867 71.95 40.025 71.3435 40.2777C69.9283 40.8652 68.9491 41.9392 68.4942 43.4049C68.3236 43.9672 68.2731 44.4726 68.3426 45.0602C68.3552 45.1676 68.3805 45.256 68.4247 45.3571L73.8137 45.4898C73.801 45.1486 73.8453 44.8517 73.959 44.5358C74.1359 44.043 74.477 43.6892 74.9698 43.5123C75.6963 43.247 76.3913 43.2344 77.1241 43.4744C77.6043 43.6324 77.9454 43.9798 78.097 44.4663C78.1855 44.7695 78.1413 45.0665 77.9644 45.3255C77.8001 45.5593 77.6043 45.7109 77.3452 45.812C77.1936 45.8751 77.0483 45.9194 76.8841 45.9636C76.1386 46.1657 75.5005 46.3047 74.7361 46.4311C74.1296 46.5322 73.6241 46.6269 73.024 46.747C72.209 46.9112 71.533 47.0881 70.737 47.3471C70.0104 47.5809 69.4482 47.9157 68.8859 48.4275C68.1594 49.0971 67.7424 49.8868 67.6034 50.8661C67.515 51.5231 67.5339 52.0917 67.6792 52.7361C68.0583 54.4103 69.2144 55.6485 70.857 56.1287C72.6765 56.6594 74.3886 56.5709 76.1449 55.8633C76.9978 55.5159 77.6485 55.0357 78.236 54.3282L77.857 51.5673C77.5916 51.9906 77.2505 52.2812 76.7893 52.4771C76.366 52.6666 75.9806 52.7677 75.5131 52.8119C75.1277 52.8498 74.7866 52.8246 74.4202 52.7235C74.1106 52.635 73.8769 52.496 73.662 52.2623C73.4788 52.0728 73.3714 51.858 73.3146 51.5926C73.2261 51.1883 73.3588 50.8029 73.6747 50.5312C73.8895 50.3544 74.0917 50.2343 74.357 50.1396C74.9824 49.9058 75.5068 49.7289 76.1575 49.552C76.9283 49.3309 77.5664 49.0971 78.2992 48.7623C78.3687 49.3435 78.3687 49.8489 78.2866 50.4365C78.236 50.8661 78.1034 51.2136 77.8633 51.58L78.2423 54.3408C78.3624 54.7325 78.4698 55.061 78.6088 55.4464C78.6783 55.6675 78.7793 55.8318 78.9247 55.996H84.8506C84.6042 55.5917 84.4652 55.2063 84.4336 54.7325" fill="white"/>
</g>
<defs>
<clipPath id="clip0_4280_2720">
<rect width="150" height="23.0026" fill="white" transform="translate(48.303 33.4988)"/>
</clipPath>
</defs>
</svg>
