<svg width="248" height="90" viewBox="0 0 248 90" fill="none" xmlns="http://www.w3.org/2000/svg">
<path d="M143.443 54.1199C143.443 54.1199 146.762 55.0405 151.001 55.0405C155.519 55.0405 157.61 54.5385 157.61 54.5385V51.1915C157.61 51.1915 155.351 51.6381 152.2 51.6381C149.439 51.6381 147.737 51.2752 147.737 51.2752V46.5342H156.3V43.1872H147.737V38.6693C147.737 38.6693 149.41 38.3623 151.921 38.3623C154.738 38.3623 157.275 38.8086 157.275 38.8086V35.4339C157.275 35.4339 155.044 34.9596 151.418 34.9596C146.594 34.9596 143.442 35.8248 143.442 35.8248L143.443 54.1199ZM82.2521 46.506C82.1402 46.7852 82.0014 47.3152 81.9177 47.6221C81.8344 47.3152 81.6945 46.7852 81.5834 46.506L77.7895 36.7728C77.1482 35.1552 76.1446 34.9596 74.3038 34.9596C73.6622 34.9596 72.351 35.0436 72.351 35.0436L70.3988 54.7618H74.7223L75.67 41.542L79.77 51.5542C80.0772 52.3351 80.6902 52.642 81.9177 52.642C83.1444 52.642 83.7586 52.3351 84.0652 51.5542L88.1646 41.542L89.1131 54.7615H93.4355L91.4836 35.0433C91.4836 35.0433 90.1725 34.9594 89.5317 34.9594C87.6909 34.9594 86.6872 35.155 86.0451 36.7725L82.2521 46.506ZM60.6097 50.5502C59.6894 50.9129 57.4577 51.6381 55.8125 51.6381C54.0273 51.6381 52.6888 51.0245 52.6888 49.072C52.6888 47.3708 53.6085 46.3949 56.0637 46.3112L60.6097 46.1439V50.5502ZM58.0436 34.9596C54.1947 34.9596 51.1826 35.9082 50.0111 36.4941L50.9316 39.7292C50.9316 39.7292 53.8883 38.6695 56.7884 38.6695C59.2708 38.6695 60.5534 39.3665 60.5534 41.8207V43.2155H56.7884C50.4017 43.2155 48.5049 46.1439 48.5049 49.3793C48.5049 53.6739 51.8522 55.0408 54.8919 55.0408C58.4339 55.0408 60.498 53.5629 60.7487 53.5629C60.9443 53.5629 61.6693 54.3435 64.9041 54.3435V40.6777C64.9041 36.5777 62.3666 34.9596 58.0436 34.9596ZM109.808 50.5502C108.887 50.9129 106.656 51.6381 105.011 51.6381C103.225 51.6381 101.886 51.0245 101.886 49.072C101.886 47.3708 102.807 46.3949 105.261 46.3112L109.808 46.1439V50.5502ZM107.241 34.9596C103.392 34.9596 100.38 35.9082 99.209 36.4941L100.129 39.7292C100.129 39.7292 103.086 38.6695 105.986 38.6695C108.468 38.6695 109.751 39.3665 109.751 41.8207V43.2155H105.986C99.5996 43.2155 97.7025 46.1439 97.7025 49.3793C97.7025 53.6739 101.049 55.0408 104.09 55.0408C107.632 55.0408 109.696 53.5629 109.947 53.5629C110.142 53.5629 110.867 54.3435 114.102 54.3435V40.6777C114.103 36.5777 111.564 34.9596 107.241 34.9596ZM175.656 49.853C174.624 50.3546 172.393 51.1915 170.357 51.1915C167.4 51.1915 166.898 49.853 166.898 46.7852V35.127C166.898 35.127 166.619 35.127 166.257 35.127C165.281 35.127 163.105 35.2943 162.575 35.4062V47.3431C162.575 52.5586 163.858 55.0408 169.157 55.0408C173.201 55.0408 175.572 53.4792 175.739 53.4792C175.795 53.4792 177.19 54.3432 179.98 54.3432V35.4062C179.673 35.3503 177.58 35.127 176.52 35.127C176.13 35.127 175.656 35.127 175.656 35.127L175.656 49.853ZM185.086 54.3432C185.086 54.3432 187.763 55.0408 191.501 55.0408C195.043 55.0408 199.505 53.8415 199.505 49.0449C199.505 45.9206 197.19 44.582 193.425 43.2158C191.389 42.4625 189.659 41.7933 189.659 40.3984C189.659 39.7294 190.162 38.4186 192.755 38.4186C195.182 38.4186 197.664 39.5339 197.664 39.5339L198.752 36.3265C198.027 35.9639 195.656 34.9594 192.365 34.9594C188.795 34.9594 185.309 36.8561 185.309 40.6771C185.309 44.61 188.879 45.809 191.668 46.7295C193.565 47.3708 195.155 48.0404 195.155 49.2953C195.155 50.522 194.485 51.5824 191.278 51.5824C188.656 51.5824 185.867 50.9968 185.867 50.9968L185.086 54.3432ZM124.7 38.697C125.398 38.5576 126.764 38.3623 128.131 38.3623C131.255 38.3623 133.709 40.1195 133.709 44.8613C133.709 49.4632 132.509 51.6381 127.741 51.6381C126.207 51.6381 124.7 51.4151 124.7 51.4151V38.697ZM128.326 34.9596C125.872 34.9596 122.469 35.3782 120.378 36.1312V54.4549C122.107 54.818 125.343 55.0408 127.602 55.0408C135.299 55.0408 138.283 52.0284 138.283 44.8613C138.283 38.6693 134.489 34.9596 128.326 34.9596Z" fill="white"/>
</svg>
